<?xml version="1.0" standalone="no"?>
<!DOCTYPE svg PUBLIC "-//W3C//DTD SVG 1.1//EN" "http://www.w3.org/Graphics/SVG/1.1/DTD/svg11.dtd" >
<svg xmlns="http://www.w3.org/2000/svg">
<metadata></metadata>
<defs>
<font id="columbia_titlingmedium" horiz-adv-x="1892" >
<font-face units-per-em="2048" ascent="1567" descent="-481" />
<missing-glyph horiz-adv-x="819" />
<glyph horiz-adv-x="0" />
<glyph horiz-adv-x="682" />
<glyph unicode=" "  horiz-adv-x="819" />
<glyph unicode="&#x09;" horiz-adv-x="819" />
<glyph unicode="&#xa0;" horiz-adv-x="819" />
<glyph unicode="!" horiz-adv-x="964" d="M270 180q0 45 16.5 84t46 67.5t67.5 45t81 16.5q90 0 151.5 -61.5t61.5 -151.5q0 -43 -16 -81t-45 -67.5t-68 -46t-84 -16.5q-43 0 -81 16.5t-67.5 46t-46 67.5t-16.5 81zM293 1374v60h377v-60l-99 -846h-178z" />
<glyph unicode="&#x22;" horiz-adv-x="1155" d="M168 1354v80h326v-80l-82 -649h-162zM662 1354v80h326v-80l-82 -649h-162z" />
<glyph unicode="#" horiz-adv-x="1738" d="M63 301v272h359l106 314h-282v272h362l90 275h201q-23 -70 -44 -138.5t-44 -136.5h379l92 275h201q-23 -70 -44.5 -138.5t-43.5 -136.5h278v-272h-360q-25 -78 -51.5 -157t-51.5 -157h281v-272h-361l-98 -301h-205l99 301h-379l-98 -301h-205l100 301h-281zM627 573h379 l104 314h-379z" />
<glyph unicode="$" horiz-adv-x="1748" d="M109 549l143 14q41 -106 135 -191t223 -139l115 353q-111 20 -212 52t-179 82t-124 125t-46 183q0 109 52 190.5t139 136t203 82t243 27.5q53 0 101 -5t93 -15l68 209l184 -60l-65 -202q61 -23 102 -41.5t62 -18.5q33 0 33.5 33t-3.5 80h156l57 -502l-145 -16 q-33 98 -116 171.5t-198 116.5l-122 -366q111 -20 223 -49t203.5 -80t148.5 -130t57 -198q0 -104 -47 -183t-133 -133.5t-205.5 -81t-267.5 -26.5q-72 0 -131 7.5t-113 19.5l-69 -213l-189 55l68 213q-72 29 -118 52.5t-68 23.5q-31 0 -29 -38t6 -97h-156zM434 1067 q0 -45 33 -74.5t87 -50t121.5 -34t137.5 -23.5l127 375q-56 12 -117 12q-86 0 -156.5 -14.5t-122.5 -41t-81 -64.5t-29 -85zM799 182q77 -16 153 -16q193 0 304.5 47t111.5 131q0 49 -39 83t-102.5 57.5t-143 38t-161.5 26.5z" />
<glyph unicode="%" horiz-adv-x="2107" d="M66 1061q0 82 32.5 152.5t93 121.5t143.5 80t185 29q100 0 184 -29t143.5 -80t93.5 -121.5t34 -152.5t-34 -152.5t-93.5 -122t-143 -80t-184.5 -28.5q-102 0 -185 28.5t-143.5 80t-93 122t-32.5 152.5zM270 80l1436 1384l109 -108l-1434 -1387zM303 1061q0 -41 15.5 -82 t43 -75t67.5 -55.5t91 -21.5q49 0 89 18.5t68 50.5t43 74t15 91q0 98 -57 163.5t-158 65.5q-102 0 -159.5 -65.5t-57.5 -163.5zM1135 373q0 82 32.5 152.5t93 121.5t143.5 80t185 29q100 0 184.5 -29t143.5 -80t93 -121.5t34 -152.5t-34 -152.5t-93 -122t-143 -80 t-185 -28.5q-102 0 -185 28.5t-143.5 80t-93 122t-32.5 152.5zM1372 373q0 -41 15.5 -82t43 -75t67.5 -55.5t91 -21.5q102 0 158.5 67.5t56.5 166.5q0 98 -57 163.5t-158 65.5q-102 0 -159.5 -65.5t-57.5 -163.5z" />
<glyph unicode="&#x26;" horiz-adv-x="2220" d="M76 420q0 129 57 215t140 139t178.5 79t173.5 34q-23 96 -13.5 198.5t53.5 186.5t125.5 138t204.5 54q74 0 135.5 -23.5t105.5 -64.5t67.5 -100t23.5 -129q0 -82 -31.5 -142.5t-82 -103.5t-114 -70.5t-126.5 -42.5q20 -53 59 -117.5t87 -125t97.5 -109.5t92.5 -74 q47 29 91 73t80 91t60.5 90t34.5 68q14 35 5 65.5t-60 30.5h-134v164h697v-164h-111q-41 0 -88 -21.5t-88 -99.5q-51 -100 -124 -205.5t-175 -197.5q45 -27 105.5 -46.5t152.5 -19.5q100 0 183 42t135 98l112 -103q-33 -55 -85 -99t-117.5 -74.5t-139.5 -47t-147 -16.5 q-154 0 -260.5 33.5t-157.5 62.5q-123 -59 -264.5 -88t-272.5 -29q-137 0 -258 25.5t-212 80t-143 139.5t-52 206zM385 446q0 -59 25.5 -111t76 -91t123 -60.5t166.5 -21.5q27 0 62.5 3t73.5 11t77 20.5t74 28.5q-51 41 -102.5 91.5t-100.5 110.5t-92 133t-76 159 q-66 -4 -122 -24.5t-97 -55.5t-64.5 -84t-23.5 -109zM872 1114q0 -35 3.5 -79t23.5 -91q39 4 81 17.5t77 37t58.5 58.5t23.5 82q0 59 -34 93t-89 34q-35 0 -61.5 -15.5t-45 -39t-28 -50t-9.5 -47.5z" />
<glyph unicode="'" horiz-adv-x="661" d="M168 1354v80h326v-80l-82 -649h-162z" />
<glyph unicode="(" horiz-adv-x="1021" d="M117 717q0 168 45 308t138 242.5t237.5 160t341.5 57.5v-170q-227 0 -341 -157.5t-114 -440.5q0 -287 113.5 -443.5t341.5 -156.5v-168q-197 0 -341.5 57t-237.5 159.5t-138 243t-45 308.5z" />
<glyph unicode=")" horiz-adv-x="1021" d="M141 -51v170q227 0 341 157.5t114 440.5q0 287 -113.5 443.5t-341.5 156.5v168q197 0 341.5 -57t237.5 -159.5t138 -243t45 -308.5t-45 -308t-138 -242.5t-237.5 -160t-341.5 -57.5z" />
<glyph unicode="*" horiz-adv-x="1226" d="M106 967l84 256l46 -15l323 -186l-80 364v48h271v-48l-80 -364l323 186l45 15l84 -256l-45 -15l-372 -39l278 -247l27 -37l-217 -160l-27 39q-2 4 -13.5 30.5t-26.5 63.5t-33.5 79t-35 78t-29 61.5t-14.5 27.5l-151 -340l-29 -39l-217 160l29 37l278 247l-372 39z" />
<glyph unicode="+" horiz-adv-x="1275" d="M106 618v197h435v434h196v-434h434v-197h-434v-434h-196v434h-435z" />
<glyph unicode="," horiz-adv-x="888" d="M221 186q0 84 59.5 145.5t157.5 61.5q92 0 160 -66.5t68 -189.5q0 -94 -29 -173t-78 -142.5t-115.5 -111.5t-144.5 -79l-63 121q37 16 88 46t95 75t73.5 102.5t25.5 128.5q-6 -47 -46 -75.5t-75 -28.5q-78 0 -127 55t-49 131z" />
<glyph unicode="-" horiz-adv-x="913" d="M102 618v197h709v-197h-709z" />
<glyph unicode="." horiz-adv-x="868" d="M221 180q0 45 16.5 84t46 67.5t67.5 45t81 16.5q45 0 84 -16.5t67.5 -45t46 -67.5t17.5 -84q0 -43 -17.5 -81t-46 -67.5t-67.5 -46t-84 -16.5q-43 0 -81 16.5t-67.5 46t-46 67.5t-16.5 81z" />
<glyph unicode="/" horiz-adv-x="1255" d="M14 37l1069 1474l158 -114l-1067 -1475z" />
<glyph unicode="0" d="M76 717q0 170 63.5 308t179 235.5t275.5 150.5t352 53q193 0 352.5 -53t275.5 -150.5t179.5 -235.5t63.5 -308t-63.5 -308.5t-179.5 -235.5t-275.5 -150.5t-352.5 -53.5t-352.5 53.5t-275 150.5t-179 235.5t-63.5 308.5zM391 717q0 -139 44 -242.5t120 -173.5t176 -103.5 t215 -33.5q113 0 214.5 33.5t177 103.5t119.5 173.5t44 242.5t-44 242.5t-119.5 172t-177 102.5t-214.5 34q-115 0 -215 -34t-176 -102.5t-120 -172t-44 -242.5z" />
<glyph unicode="1" horiz-adv-x="1284" d="M133 0v162h289q29 0 53.5 3t42 16.5t27.5 38t10 67.5v653q0 78 -26.5 102.5t-100.5 24.5h-285v162h125q330 0 418 229h164v-1169q0 -37 5 -60.5t20.5 -39t43 -21.5t72.5 -6h221v-162h-1079z" />
<glyph unicode="2" horiz-adv-x="1808" d="M174 920l72 524h139q4 -29 10 -55.5t37 -26.5q27 0 51.5 10t55.5 21q66 25 165 48t197 23q147 0 282.5 -27.5t238 -83t164 -139.5t61.5 -196q0 -125 -63.5 -200t-165 -119t-229.5 -65.5t-257 -35.5q-84 -10 -184.5 -24.5t-185.5 -50.5t-137 -100.5t-40 -174.5h741 q80 0 144.5 8t114 39t82 91t51.5 165l163 -19q-18 -135 -36.5 -267t-38.5 -265h-1430q-90 352 54.5 533.5t510.5 228.5q90 12 189.5 26.5t183.5 41t139.5 70.5t55.5 116q0 61 -34 108t-94.5 80t-142.5 49.5t-176 16.5q-111 0 -203 -30t-159.5 -81t-109.5 -117.5t-50 -142.5 q-41 4 -83 9t-83 12z" />
<glyph unicode="3" horiz-adv-x="1820" d="M96 203l109 164q49 -31 111.5 -65t141.5 -63.5t177 -48t219 -18.5q102 0 194.5 15.5t161 44t109.5 72.5t41 104q0 72 -37 114.5t-106.5 65t-170 29t-225.5 6.5h-309v186h309q131 0 221.5 15.5t146.5 43t80.5 66.5t24.5 86q0 51 -26.5 96t-82 79t-139 54.5t-200.5 20.5 q-98 0 -185.5 -24.5t-155 -67.5t-113.5 -102.5t-60 -131.5l-164 23l63 477h138q2 -37 15 -60.5t32 -23.5q23 0 40 10t52 27q45 16 97 28.5t104.5 21.5t100.5 13t87 4q156 0 285 -28.5t221 -84t143 -137t51 -186.5q0 -57 -23.5 -109.5t-62 -94.5t-86 -69.5t-96.5 -33.5 q53 0 118.5 -19.5t122 -60.5t95.5 -102.5t39 -147.5q0 -98 -56.5 -177t-162 -133t-256 -83t-338.5 -29q-135 0 -247 16.5t-207 46t-179 72.5t-162 99z" />
<glyph unicode="4" horiz-adv-x="1896" d="M57 342v162l1155 946h197v-924h115q70 0 99.5 26t47.5 91l123 -27l-61 -274h-324v-74q0 -37 5 -57.5t21.5 -31.5t45 -14t75.5 -3h115v-162h-895v162h211q31 0 54.5 3t40 13t24.5 31.5t8 56.5v76h-1057zM377 526h737v609z" />
<glyph unicode="5" horiz-adv-x="1785" d="M78 205l104 164q37 -29 102.5 -63t148.5 -64.5t177.5 -51t190.5 -20.5q98 0 189 17.5t160 53t109.5 92t40.5 134.5q0 139 -125.5 217t-349.5 78q-154 0 -283.5 -51.5t-215.5 -128.5l-148 30l103 822h1071q35 0 60.5 10t35.5 45l108 -19l-51 -278l-1073 -2l-41 -377 q57 39 124 65.5t136.5 43t137 23.5t124.5 7q170 0 305.5 -34.5t228.5 -98t143 -152.5t50 -198q0 -129 -61 -223t-167.5 -155.5t-252 -91.5t-311.5 -30q-86 0 -182.5 10.5t-195.5 36t-198.5 71.5t-193.5 118z" />
<glyph unicode="6" horiz-adv-x="1712" d="M76 698q0 59 15 140.5t54 166.5t105.5 167.5t168 147t243 104.5t329.5 40q129 0 290 -29.5t327 -103.5l-80 -188q-57 29 -124 52.5t-136.5 40.5t-140 25.5t-136.5 8.5q-139 -2 -250.5 -46t-189.5 -118t-119 -170t-39 -201q47 51 111.5 92t140.5 69t157 42t163 14 q135 0 258 -26.5t217 -84t150.5 -144.5t56.5 -210q0 -129 -59.5 -226t-162 -161.5t-241.5 -97.5t-299 -33q-152 0 -297.5 40t-259 127t-183 225.5t-69.5 336.5zM418 481q0 -41 30.5 -96t90 -104.5t145.5 -83t197 -33.5q98 0 181 21.5t142.5 60.5t93 95t33.5 126 q0 135 -116.5 212t-325.5 77q-94 0 -179 -30t-149.5 -73t-103.5 -90t-39 -82z" />
<glyph unicode="7" horiz-adv-x="1716" d="M102 932l76 543l125 -11q0 -23 13.5 -26.5t35.5 -3.5h1303v-162q-66 -45 -143.5 -99.5t-154.5 -127t-148.5 -167t-128 -220.5t-89.5 -288.5t-33 -369.5h-370q2 131 38 288.5t117.5 320.5t216 318.5t334.5 284.5h-669q-78 0 -137.5 -11t-103.5 -44t-72.5 -92t-47.5 -154z " />
<glyph unicode="8" horiz-adv-x="1783" d="M86 401q0 72 25.5 130.5t70.5 102.5t102.5 73.5t123.5 42.5q-31 8 -69 32.5t-72 60.5t-56.5 84t-22.5 105q0 100 54.5 180t148.5 136.5t222 86t278 29.5t278.5 -29.5t223 -86t148.5 -136t54 -180.5q0 -57 -17 -104t-46 -83t-64.5 -61.5t-70.5 -42.5q59 -18 113.5 -46.5 t96.5 -70.5t66.5 -98.5t24.5 -130.5q0 -106 -59.5 -186t-166 -133t-255 -80t-326.5 -27q-172 0 -319.5 27t-255 81t-169 135t-61.5 189zM365 414q0 -55 35.5 -101.5t101 -80t160 -53t208.5 -19.5q117 0 211.5 17.5t161 46t103 68.5t36.5 85q0 53 -30.5 89t-84 61.5t-125 41 t-152.5 27.5t-167 21.5t-168 23.5q-59 0 -112.5 -17.5t-93 -47t-62 -70.5t-22.5 -92zM485 1055q0 -63 70 -99t174.5 -56.5t224 -33t222.5 -26.5q57 23 103 68.5t46 119.5q0 104 -106.5 175t-307.5 71t-313.5 -60.5t-112.5 -158.5z" />
<glyph unicode="9" horiz-adv-x="1712" d="M66 946q0 129 59 226.5t161.5 162t241.5 97t299 32.5q152 0 297.5 -40t259 -127t183 -225t69.5 -337q0 -59 -15 -140t-54 -166t-105.5 -168t-168 -147.5t-243 -104.5t-329.5 -40q-129 0 -290 30t-327 103l80 189q57 -29 124 -52.5t136.5 -41t140 -25.5t136.5 -8 q139 2 250.5 46t189.5 117.5t118 170t38 200.5q-47 -51 -111.5 -92t-139.5 -68.5t-156 -42t-162 -14.5q-135 0 -258 27t-217.5 84t-150.5 144t-56 210zM381 967q0 -135 116.5 -212t325.5 -77q94 0 179 29.5t150 72.5t102.5 90t37.5 82q0 41 -30.5 96.5t-90 104.5t-144.5 83 t-196 34q-98 0 -181 -21.5t-143.5 -60.5t-93 -95.5t-32.5 -125.5z" />
<glyph unicode=":" horiz-adv-x="868" d="M221 180q0 45 16.5 84t46 67.5t67.5 45t81 16.5q45 0 84 -16.5t67.5 -45t46 -67.5t17.5 -84q0 -43 -17.5 -81t-46 -67.5t-67.5 -46t-84 -16.5q-43 0 -81 16.5t-67.5 46t-46 67.5t-16.5 81zM221 973q0 45 16.5 84t46 67.5t67.5 45t81 16.5q45 0 84 -16.5t67.5 -45 t46 -67.5t17.5 -84q0 -43 -17.5 -81t-46 -67.5t-67.5 -46t-84 -16.5q-43 0 -81 16.5t-67.5 46t-46 67.5t-16.5 81z" />
<glyph unicode=";" horiz-adv-x="888" d="M221 186q0 84 59.5 145.5t157.5 61.5q92 0 160 -66.5t68 -189.5q0 -94 -29 -173t-78 -142.5t-115.5 -111.5t-144.5 -79l-63 121q37 16 88 46t95 75t73.5 102.5t25.5 128.5q-6 -47 -46 -75.5t-75 -28.5q-78 0 -127 55t-49 131zM221 973q0 45 16.5 84t46 67.5t67.5 45 t81 16.5q45 0 84 -16.5t67.5 -45t46 -67.5t17.5 -84q0 -43 -17.5 -81t-46 -67.5t-67.5 -46t-84 -16.5q-43 0 -81 16.5t-67.5 46t-46 67.5t-16.5 81z" />
<glyph unicode="&#x3c;" horiz-adv-x="1165" d="M66 688v49l831 500l100 -174l-598 -350l598 -351l-100 -174z" />
<glyph unicode="=" horiz-adv-x="1275" d="M106 406v196h1065v-196h-1065zM106 831v197h1065v-197h-1065z" />
<glyph unicode="&#x3e;" horiz-adv-x="1165" d="M166 362l598 350l-598 351l100 174l831 -500v-49l-831 -500z" />
<glyph unicode="?" horiz-adv-x="1679" d="M137 1370q41 16 115 33.5t161 31t179 21.5t170 8q156 0 301 -15t259 -61.5t182.5 -128t68.5 -212.5q0 -92 -39 -158t-101.5 -110t-144.5 -69.5t-167 -39t-167 -16.5t-147 -3v-123h-242v285l29 25q61 -4 108.5 -2t102.5 2q82 0 160.5 10t138 33.5t96.5 63.5t37 99 q0 68 -40 111t-107.5 68.5t-155.5 36t-184 10.5q-133 0 -240 -19.5t-148 -58.5q-29 -29 -32.5 -65.5t4.5 -98.5l-154 -16zM479 180q0 45 16.5 84t45 67.5t66.5 45t81 16.5q92 0 153.5 -61.5t61.5 -151.5q0 -43 -16.5 -81t-46 -67.5t-68.5 -46t-84 -16.5q-43 0 -81 16.5 t-66.5 46t-45 67.5t-16.5 81z" />
<glyph unicode="@" d="M68 713q0 170 62.5 308t178 236.5t280.5 152.5t367 54q221 0 384 -66.5t270.5 -170t161 -228.5t53.5 -241q0 -119 -36 -203t-97.5 -138.5t-142.5 -79t-171 -24.5q-55 0 -93 13.5t-62.5 32t-36.5 38t-17 31.5q-53 -57 -135 -86t-184 -29q-45 0 -99.5 11.5t-102.5 40 t-79.5 75.5t-31.5 119q0 68 28.5 115t76.5 75.5t109.5 41t127.5 12.5h260q0 72 -43 115t-160 43q-109 0 -156 -28t-39 -73l-123 -14l-40 211q53 16 144 37.5t202 21.5q123 0 208 -24.5t137 -70.5t75.5 -110.5t23.5 -144.5v-207q0 -39 16.5 -56.5t61.5 -17.5q33 0 67.5 16.5 t63.5 50.5t47 85t18 121q0 102 -45 202.5t-133 180.5t-215 129t-293 49q-172 0 -305 -47t-223 -130t-136 -193.5t-46 -235.5q0 -111 41 -218.5t127 -192.5t220 -137t322 -52q92 0 178.5 19.5t172.5 51.5l67 -139q-51 -23 -158.5 -49.5t-279.5 -26.5q-207 0 -368.5 58.5 t-272.5 159t-169 236.5t-58 290zM776 559q0 -33 40 -60.5t102 -27.5q66 0 124 24.5t97 71.5v99h-232q-72 -2 -101.5 -34t-29.5 -73z" />
<glyph unicode="A" horiz-adv-x="2070" d="M12 0v162h133q55 0 83 26.5t57 75.5l495 905q15 26 15 49q1 11 -3 22q-12 32 -61 32h-176v162h569l648 -1170q20 -41 50.5 -71.5t108.5 -30.5h125v-162h-878v162h190q44 0 68 22q12 10 11 27q0 18 -13 43l-80 152h-752l-72 -142q-12 -24 -12 -42t12 -32q23 -28 76 -28 h158v-162h-752zM698 590h553q-72 129 -141.5 256t-140.5 254z" />
<glyph unicode="B" horiz-adv-x="1888" d="M106 0v162h158q23 0 42.5 3t33.5 16.5t22.5 38t8.5 67.5v858q0 72 -24.5 99.5t-102.5 27.5h-138v162h1059q113 0 211.5 -21.5t171 -64.5t113.5 -111t41 -160q0 -68 -22.5 -122t-59.5 -94t-81 -65.5t-87 -35.5q84 -12 149.5 -45t109.5 -80t67.5 -106.5t23.5 -125.5 q0 -106 -47 -183t-124 -126t-175 -71.5t-203 -22.5h-1147zM666 184h516q141 6 214.5 69.5t73.5 162.5q0 57 -23.5 101t-64.5 71.5t-97 42t-124 14.5h-495v-461zM666 829h464q129 4 191.5 62.5t62.5 155.5q0 104 -81.5 152t-217.5 48h-419v-418z" />
<glyph unicode="C" horiz-adv-x="1775" d="M76 733q0 178 72.5 315.5t190.5 229.5t267.5 139t300.5 47q119 0 207 -19.5t152.5 -44t108.5 -44t75 -19.5q27 0 29 34q1 11 1 23q0 24 -3 50h155l66 -543l-160 -20q-29 88 -85 159.5t-131 121.5t-166 77t-189 27q-123 0 -229.5 -39t-185.5 -109.5t-124 -171t-45 -221.5 q0 -129 46 -231.5t129 -174t195.5 -109.5t245.5 -38q170 0 316.5 63.5t275.5 210.5l129 -112q-59 -80 -134 -147.5t-169 -115.5t-212 -75t-261 -27q-190 0 -350 54.5t-275.5 153.5t-179 240.5t-63.5 315.5z" />
<glyph unicode="D" horiz-adv-x="1935" d="M106 0v162h158q23 0 42.5 3t33.5 16.5t22.5 38t8.5 67.5v858q0 72 -24.5 99.5t-102.5 27.5h-138v162h900q199 0 357.5 -46.5t269 -135.5t169 -221t58.5 -304q0 -164 -58.5 -297t-169 -229.5t-269.5 -148.5t-357 -52h-900zM666 186h264q135 0 246.5 33t192.5 99.5t126 168 t45 240.5q0 145 -46 245.5t-127 162t-190.5 88t-234.5 26.5h-276v-1063z" />
<glyph unicode="E" horiz-adv-x="1863" d="M104 0v162h140q31 0 54.5 3t39.5 15.5t24.5 37t8.5 67.5v860q0 72 -24.5 99.5t-102.5 27.5h-140v162h1565l68 -525l-162 -18q-16 109 -48 178.5t-79 108.5t-109.5 53t-140.5 14h-532v-414h268q72 0 99.5 25t27.5 102v117h162v-676h-162v140q0 23 -3 42t-16.5 33.5 t-38 22.5t-67.5 8h-270v-461h491q100 0 174 13.5t126 58.5t87 130t60 230q41 -4 79.5 -8t79.5 -8l-61 -600h-1598z" />
<glyph unicode="F" horiz-adv-x="1785" d="M104 0v162h152q25 0 46.5 3t36.5 15.5t23.5 37t8.5 67.5v860q0 72 -24.5 99.5t-102.5 27.5h-140v162h1565l68 -525l-162 -18q-16 109 -48 178.5t-79 108.5t-109.5 53t-140.5 14h-532v-414h268q72 0 99.5 25t27.5 102v117h162v-676h-162v140q0 23 -3 42t-16.5 33.5 t-38 22.5t-67.5 8h-270v-358q0 -72 24.5 -98.5t102.5 -26.5h165v-162h-854z" />
<glyph unicode="G" horiz-adv-x="1986" d="M76 727q0 182 72.5 320.5t190.5 230.5t267.5 139t300.5 47q119 0 207 -19.5t152.5 -44t108.5 -44t75 -19.5q27 0 29 30q1 10 1 21q0 22 -3 48h155l66 -535l-160 -20q-29 88 -85 159.5t-131 121.5t-166 77t-189 27q-123 0 -229.5 -39t-185.5 -109.5t-124 -171t-45 -221.5 q0 -129 48 -231.5t130 -174t191.5 -109.5t232.5 -38q94 0 173 19.5t140.5 48t102.5 64.5t63 71v55q0 16 -9 35.5t-44 19.5h-250v181h778v-181h-110q-23 0 -41.5 -2t-31.5 -12t-20 -31.5t-7 -58.5v-381h-140l-55 178q-106 -109 -248.5 -159t-355.5 -50q-180 0 -336 53.5 t-271.5 151.5t-181 238.5t-65.5 314.5z" />
<glyph unicode="H" horiz-adv-x="2172" d="M104 0v162h160q23 0 42.5 3t33.5 15.5t22.5 37t8.5 67.5v862q0 84 -33 104.5t-94 20.5h-140v162h807v-162h-139q-47 0 -76.5 -20.5t-29.5 -104.5v-318h839v318q0 84 -32.5 104.5t-94.5 20.5h-116v162h804v-162h-157q-47 0 -77 -20.5t-30 -104.5v-860q0 -72 24.5 -98.5 t102.5 -26.5h137v-162h-804v162h137q23 0 42 3t33.5 15.5t22.5 37t8 67.5v360h-839v-358q0 -72 24.5 -98.5t102.5 -26.5h118v-162h-807z" />
<glyph unicode="I" horiz-adv-x="1038" d="M104 0v162h160q23 0 42.5 3t33.5 15.5t22.5 37t8.5 67.5v860q0 78 -28 102.5t-99 24.5h-140v162h828v-162h-160q-47 0 -76.5 -20.5t-29.5 -104.5v-860q0 -72 24.5 -98.5t102.5 -26.5h139v-162h-828z" />
<glyph unicode="J" horiz-adv-x="1669" d="M20 477l181 25q12 -66 42.5 -125.5t84 -103.5t129 -70.5t174.5 -26.5q102 0 179 28.5t129 76t77.5 111t25.5 134.5v586q0 88 -35.5 124t-123.5 36h-344v162h1065v-162h-158q-23 0 -42.5 -3t-33.5 -16.5t-22.5 -38t-8.5 -67.5v-619q0 -115 -42 -217t-123.5 -178 t-205.5 -120t-286 -44q-152 0 -269.5 38t-200.5 105.5t-131 161t-61 203.5z" />
<glyph unicode="K" horiz-adv-x="2070" d="M104 0v162h160q23 0 42.5 3t33.5 15.5t22.5 37t8.5 67.5v821q0 51 -5.5 84t-19.5 51.5t-38.5 24.5t-63.5 6h-140v162h828v-162h-160q-47 0 -76.5 -20.5t-29.5 -104.5v-440l612 471q40 32 40 56q0 4 -2 10q-11 28 -65 28h-121v162h826v-162h-96q-45 0 -84 -8.5t-80 -26.5 t-87 -48t-104 -71l-340 -260q137 -147 271.5 -297.5t271.5 -300.5q61 -68 123.5 -83t103.5 -15h107v-162h-916v162h156q42 0 60 32q6 11 7 23q0 21 -20 43l-385 436l-278 -211v-198q0 -72 24.5 -98.5t102.5 -26.5h139v-162h-828z" />
<glyph unicode="L" horiz-adv-x="1802" d="M104 0v162h140q31 0 54.5 3t39.5 15.5t24.5 37t8.5 67.5v860q0 72 -24.5 99.5t-102.5 27.5h-140v162h854v-162h-186q-23 0 -42 -3t-33.5 -16.5t-22.5 -38t-8 -67.5v-963h405q121 0 205 8.5t140.5 51.5t93 136t65.5 263q41 -4 81 -8t81 -8q-16 -160 -30.5 -314.5 t-31.5 -312.5h-1571z" />
<glyph unicode="M" horiz-adv-x="2496" d="M104 0v162h160q23 0 42.5 3t33.5 15.5t22.5 37t8.5 67.5v860q0 72 -24.5 99.5t-102.5 27.5h-140v162h607l542 -1041l539 1041h598v-162h-160q-47 0 -76.5 -20.5t-29.5 -104.5v-860q0 -72 24.5 -98.5t102.5 -26.5h139v-162h-813v162h145q23 0 42.5 3t33.5 15.5t22.5 37 t8.5 67.5v807q-141 -274 -278.5 -546t-278.5 -546h-135l-566 1108v-821q0 -72 25 -98.5t102 -26.5h125v-162h-719z" />
<glyph unicode="N" horiz-adv-x="2185" d="M106 0v162h158q23 0 42.5 3t33.5 16.5t22.5 38t8.5 67.5v858q0 72 -24.5 99.5t-102.5 27.5h-138v162h580l977 -1004v715q0 72 -24.5 99.5t-102.5 27.5h-125v162h717v-162h-160q-23 0 -42 -3t-33.5 -16.5t-22.5 -38t-8 -67.5v-1147h-199l-1092 1122v-833q0 -72 25 -99.5 t102 -27.5h125v-162h-717z" />
<glyph unicode="O" d="M76 717q0 170 63.5 308t179 235.5t275.5 150.5t352 53q193 0 352.5 -53t275.5 -150.5t179.5 -235.5t63.5 -308t-63.5 -308.5t-179.5 -235.5t-275.5 -150.5t-352.5 -53.5t-352.5 53.5t-275 150.5t-179 235.5t-63.5 308.5zM391 717q0 -139 44 -242.5t120 -173.5t176 -103.5 t215 -33.5q113 0 214.5 33.5t177 103.5t119.5 173.5t44 242.5t-44 242.5t-119.5 172t-177 102.5t-214.5 34q-115 0 -215 -34t-176 -102.5t-120 -172t-44 -242.5z" />
<glyph unicode="P" horiz-adv-x="1742" d="M106 0v162h158q23 0 42.5 3t33.5 16.5t22.5 38t8.5 67.5v858q0 72 -24.5 99.5t-102.5 27.5h-138v162h988q117 0 225 -20.5t193 -70t136.5 -131.5t51.5 -204q0 -123 -49 -208t-133 -139.5t-194 -78t-230 -23.5h-428v-270q0 -72 24.5 -99.5t102.5 -27.5h139v-162h-826z M666 745h399q162 0 240.5 73t78.5 190q0 115 -79.5 178t-233.5 63h-405v-504z" />
<glyph unicode="Q" d="M74 717q0 170 63.5 308t179 235.5t275.5 150.5t354 53q193 0 352.5 -53t275.5 -150.5t179.5 -235.5t63.5 -308q0 -129 -38 -237.5t-104.5 -194.5t-159 -148.5t-202.5 -99.5q27 -78 94.5 -125t148.5 -62q43 -9 86 -9q40 0 81 7q85 15 149 58l84 -137q-72 -59 -160 -89 t-182 -34q-16 -1 -32 -1q-78 0 -158 17q-97 19 -184 60.5t-161.5 103t-124.5 141.5q-94 0 -170 19q-160 18 -289.5 78.5t-224 154.5t-145.5 220t-51 278zM389 717q0 -139 44 -243.5t120 -174.5t177 -103.5t216 -33.5q113 0 214.5 33.5t177 103.5t119.5 174.5t44 243.5 t-44 242.5t-119.5 172t-177 102.5t-214.5 34q-115 0 -216 -34t-177 -102.5t-120 -172t-44 -242.5z" />
<glyph unicode="R" horiz-adv-x="1986" d="M106 0v162h158q23 0 42.5 3t33.5 16.5t22.5 38t8.5 67.5v858q0 72 -24.5 99.5t-102.5 27.5h-138v162h1002q115 0 222.5 -18.5t189.5 -64.5t131 -127t49 -204q0 -90 -33 -159.5t-85 -118t-115.5 -78t-125.5 -39.5q18 -76 68.5 -164t129.5 -161t187 -114q73 -28 159 -28 q40 0 83 6l19 -164q-84 -11 -160 -11q-64 0 -123 8q-127 17 -228.5 61t-177 108.5t-131 137.5t-90.5 146.5t-53 137.5h-358v-299q0 -72 24.5 -99.5t102.5 -27.5h139v-162h-826zM666 774h399q154 0 236.5 67.5t82.5 178.5t-86 170t-227 59h-405v-475z" />
<glyph unicode="S" horiz-adv-x="1748" d="M109 549l143 14q33 -86 105.5 -159.5t168 -126t206 -82t220.5 -29.5q193 0 304.5 47t111.5 131q0 55 -48 91t-124 59.5t-169 39t-181 27.5q-127 20 -249 50t-218 81t-155.5 131t-59.5 205q0 109 52 190.5t139 136t203 82t243 27.5q111 0 202 -20.5t160.5 -46t115.5 -46 t67 -20.5q34 0 34 33v8q0 31 -4 72h156l57 -502l-145 -16q-27 80 -89.5 144.5t-146.5 108.5t-184 68.5t-201 24.5q-86 0 -156.5 -14.5t-122.5 -41t-81 -64.5t-29 -85q0 -53 45 -86t115 -54.5t155 -34.5t164 -26q78 -14 163 -29.5t165 -39t152.5 -56t128 -81t87 -115 t31.5 -154.5q0 -104 -47 -183t-133 -133.5t-205.5 -81t-267.5 -26.5q-135 0 -240.5 24.5t-182.5 54.5t-125 54.5t-72 24.5q-31 0 -29 -38t6 -97h-156z" />
<glyph unicode="T" horiz-adv-x="1798" d="M37 883l69 551h1586l69 -551l-162 -19q-18 135 -52 211t-80 115t-102 48t-120 9h-198v-958q0 -72 24.5 -99.5t102.5 -27.5h139v-162h-828v162h160q23 0 42.5 3t33.5 16.5t22.5 38t8.5 67.5v960h-199q-63 0 -119.5 -9t-102.5 -48t-80 -115t-52 -211z" />
<glyph unicode="U" horiz-adv-x="2082" d="M66 1276v158h806v-158h-133q-41 0 -64.5 -9.5t-36.5 -27.5t-17.5 -45t-6.5 -64v-507q0 -121 35 -206t98.5 -138.5t151.5 -79t193 -25.5q104 0 192 25.5t151.5 79t99.5 138.5t36 206v507q-2 37 -5 65t-14.5 46.5t-35 26.5t-62.5 8h-143v158h708v-158h-133 q-41 0 -64.5 -9.5t-34.5 -27.5t-14.5 -45t-3.5 -64v-522q0 -168 -48 -288.5t-139 -198.5t-224 -115t-301 -37q-170 0 -306.5 37t-232.5 115t-148.5 198.5t-52.5 288.5v522q-2 78 -26.5 112t-95.5 34h-129z" />
<glyph unicode="V" horiz-adv-x="2066" d="M14 1272v162h863v-162h-156q-61 0 -85 -26q-11 -12 -11 -30q0 -21 14 -49l463 -829l446 829q14 29 14 51q0 16 -8 27q-18 27 -73 27h-158v162h731v-162h-133q-55 0 -85 -27.5t-56 -77.5l-625 -1167h-209l-649 1167q-10 20 -21.5 39t-29 33t-43 23.5t-64.5 9.5h-125z" />
<glyph unicode="W" horiz-adv-x="2713" d="M12 1272v162h779v-162h-107q-48 0 -70 -26q-10 -12 -11 -30q0 -21 13 -49l357 -770l280 645l-53 125q-10 20 -22.5 39t-30 33t-43 23.5t-64.5 9.5h-53v162h746v-162h-148q-51 0 -69 -34q-8 -15 -7 -33q0 -23 13 -52l331 -756l342 770q13 28 13 50q0 13 -4 24 q-11 31 -66 31h-217v162h778v-162h-131q-55 0 -83.5 -27.5t-55.5 -77.5q-133 -293 -263 -583.5t-263 -583.5h-187l-350 791l-332 -791h-190q-135 293 -270.5 583.5t-272.5 583.5q-10 20 -22.5 39t-30 33t-43 23.5t-64.5 9.5h-129z" />
<glyph unicode="X" horiz-adv-x="2091" d="M66 0v162h86q141 0 251 104l461 441l-440 460q-35 35 -64.5 55.5t-59.5 32t-59.5 14.5t-62.5 3h-112v162h915v-162h-127q-48 0 -60 -32q-3 -7 -3 -14q0 -27 32 -59l254 -266l273 266q29 28 29 53q-1 10 -5 19q-16 33 -71 33h-89v162h787v-162h-78q-72 0 -139.5 -20.5 t-132.5 -84.5l-432 -413l469 -488q37 -39 69.5 -59.5t63 -30.5t61.5 -12t66 -2h98v-162h-936v162h147q49 0 61 30q3 7 2 14q0 26 -32 60l-282 295l-301 -295q-29 -28 -29 -53q0 -11 4 -19q16 -32 72 -32h114v-162h-800z" />
<glyph unicode="Y" horiz-adv-x="1939" d="M23 1272v162h866v-162h-152q-59 0 -62 -34v-6q0 -31 27 -65l336 -419l340 440q25 33 18 58.5t-59 25.5h-135v162h713v-162h-76q-59 0 -117.5 -25.5t-101.5 -79.5l-481 -596v-284q0 -72 24.5 -98.5t102.5 -26.5h139v-162h-825v162h157q23 0 42.5 3t33.5 15.5t22.5 37 t8.5 67.5v278l-516 604q-41 47 -90.5 76t-124.5 29h-90z" />
<glyph unicode="Z" horiz-adv-x="1816" d="M106 0v162l1131 1085h-557q-76 -2 -139.5 -16t-112.5 -51t-84 -101.5t-49 -167.5l-162 19l57 504h1467v-162l-1118 -1088h569q100 0 173 14.5t125 58.5t87 127t57 220l162 -18l-59 -586h-1547z" />
<glyph unicode="[" horiz-adv-x="991" d="M164 -41v1516h676v-162h-275q-47 0 -76.5 -20.5t-29.5 -104.5v-942q0 -39 5 -63.5t19.5 -38t39 -18.5t63.5 -5h254v-162h-676z" />
<glyph unicode="\" horiz-adv-x="1255" d="M14 1397l1067 -1475l160 115l-1069 1474z" />
<glyph unicode="]" horiz-adv-x="991" d="M151 -41v162h275q47 0 76.5 20.5t29.5 104.5v942q0 39 -5 63.5t-19.5 38t-39 18.5t-63.5 5h-254v162h676v-1516h-676z" />
<glyph unicode="^" horiz-adv-x="1333" d="M106 625v51l437 758h262l422 -758v-51h-221l-340 610l-338 -610h-222z" />
<glyph unicode="_" horiz-adv-x="1064" d="M0 -391h1065v-162h-1065v162z" />
<glyph unicode="`" horiz-adv-x="876" d="M102 1855v50h328l344 -301v-48h-227z" />
<glyph unicode="a" horiz-adv-x="2070" d="M12 0v162h133q55 0 83 26.5t57 75.5l495 905q15 26 15 49q1 11 -3 22q-12 32 -61 32h-176v162h569l648 -1170q20 -41 50.5 -71.5t108.5 -30.5h125v-162h-878v162h190q44 0 68 22q12 10 11 27q0 18 -13 43l-80 152h-752l-72 -142q-12 -24 -12 -42t12 -32q23 -28 76 -28 h158v-162h-752zM698 590h553q-72 129 -141.5 256t-140.5 254z" />
<glyph unicode="b" horiz-adv-x="1884" d="M106 0v162h158q23 0 42.5 3t33.5 16.5t22.5 38t8.5 67.5v858q0 72 -24.5 99.5t-102.5 27.5h-138v162h1059q113 0 211.5 -21.5t171 -64.5t113.5 -111t41 -160q0 -68 -22.5 -122t-59.5 -94t-81 -65.5t-87 -35.5q84 -12 149.5 -45t109.5 -80t67.5 -106.5t23.5 -125.5 q0 -106 -47 -183t-124 -126t-175 -71.5t-203 -22.5h-1147zM666 184h516q141 6 214.5 69.5t73.5 162.5q0 57 -23.5 101t-64.5 71.5t-97 42t-124 14.5h-495v-461zM666 829h464q129 4 191.5 62.5t62.5 155.5q0 104 -81.5 152t-217.5 48h-419v-418z" />
<glyph unicode="c" horiz-adv-x="1777" d="M76 733q0 178 72.5 315.5t190.5 229.5t267.5 139t300.5 47q119 0 207 -19.5t152.5 -44t108.5 -44t75 -19.5q27 0 29 34q1 11 1 23q0 24 -3 50h155l66 -543l-160 -20q-29 88 -85 159.5t-131 121.5t-166 77t-189 27q-123 0 -229.5 -39t-185.5 -109.5t-124 -171t-45 -221.5 q0 -129 46 -231.5t129 -174t195.5 -109.5t245.5 -38q170 0 316.5 63.5t275.5 210.5l129 -112q-59 -80 -134 -147.5t-169 -115.5t-212 -75t-261 -27q-190 0 -350 54.5t-275.5 153.5t-179 240.5t-63.5 315.5z" />
<glyph unicode="d" horiz-adv-x="1935" d="M106 0v162h158q23 0 42.5 3t33.5 16.5t22.5 38t8.5 67.5v858q0 72 -24.5 99.5t-102.5 27.5h-138v162h900q199 0 357.5 -46.5t269 -135.5t169 -221t58.5 -304q0 -164 -58.5 -297t-169 -229.5t-269.5 -148.5t-357 -52h-900zM666 186h264q135 0 246.5 33t192.5 99.5t126 168 t45 240.5q0 145 -46 245.5t-127 162t-190.5 88t-234.5 26.5h-276v-1063z" />
<glyph unicode="e" horiz-adv-x="1863" d="M104 0v162h140q31 0 54.5 3t39.5 15.5t24.5 37t8.5 67.5v860q0 72 -24.5 99.5t-102.5 27.5h-140v162h1565l68 -525l-162 -18q-16 109 -48 178.5t-79 108.5t-109.5 53t-140.5 14h-532v-414h268q72 0 99.5 25t27.5 102v117h162v-676h-162v140q0 23 -3 42t-16.5 33.5 t-38 22.5t-67.5 8h-270v-461h491q100 0 174 13.5t126 58.5t87 130t60 230q41 -4 79.5 -8t79.5 -8l-61 -600h-1598z" />
<glyph unicode="f" horiz-adv-x="1785" d="M104 0v162h152q25 0 46.5 3t36.5 15.5t23.5 37t8.5 67.5v860q0 72 -24.5 99.5t-102.5 27.5h-140v162h1565l68 -525l-162 -18q-16 109 -48 178.5t-79 108.5t-109.5 53t-140.5 14h-532v-414h268q72 0 99.5 25t27.5 102v117h162v-676h-162v140q0 23 -3 42t-16.5 33.5 t-38 22.5t-67.5 8h-270v-358q0 -72 24.5 -98.5t102.5 -26.5h165v-162h-854z" />
<glyph unicode="g" horiz-adv-x="1984" d="M76 727q0 182 72.5 320.5t190.5 230.5t267.5 139t300.5 47q119 0 207 -19.5t152.5 -44t108.5 -44t75 -19.5q27 0 29 30q1 10 1 21q0 22 -3 48h155l66 -535l-160 -20q-29 88 -85 159.5t-131 121.5t-166 77t-189 27q-123 0 -229.5 -39t-185.5 -109.5t-124 -171t-45 -221.5 q0 -129 48 -231.5t130 -174t191.5 -109.5t232.5 -38q94 0 173 19.5t140.5 48t102.5 64.5t63 71v55q0 16 -9 35.5t-44 19.5h-250v181h778v-181h-110q-23 0 -41.5 -2t-31.5 -12t-20 -31.5t-7 -58.5v-381h-140l-55 178q-106 -109 -248.5 -159t-355.5 -50q-180 0 -336 53.5 t-271.5 151.5t-181 238.5t-65.5 314.5z" />
<glyph unicode="h" horiz-adv-x="2172" d="M104 0v162h160q23 0 42.5 3t33.5 15.5t22.5 37t8.5 67.5v862q0 84 -33 104.5t-94 20.5h-140v162h807v-162h-139q-47 0 -76.5 -20.5t-29.5 -104.5v-318h839v318q0 84 -32.5 104.5t-94.5 20.5h-116v162h804v-162h-157q-47 0 -77 -20.5t-30 -104.5v-860q0 -72 24.5 -98.5 t102.5 -26.5h137v-162h-804v162h137q23 0 42 3t33.5 15.5t22.5 37t8 67.5v360h-839v-358q0 -72 24.5 -98.5t102.5 -26.5h118v-162h-807z" />
<glyph unicode="i" horiz-adv-x="1038" d="M104 0v162h160q23 0 42.5 3t33.5 15.5t22.5 37t8.5 67.5v860q0 78 -28 102.5t-99 24.5h-140v162h828v-162h-160q-47 0 -76.5 -20.5t-29.5 -104.5v-860q0 -72 24.5 -98.5t102.5 -26.5h139v-162h-828z" />
<glyph unicode="j" horiz-adv-x="1669" d="M20 477l181 25q12 -66 42.5 -125.5t84 -103.5t129 -70.5t174.5 -26.5q102 0 179 28.5t129 76t77.5 111t25.5 134.5v586q0 88 -35.5 124t-123.5 36h-344v162h1065v-162h-158q-23 0 -42.5 -3t-33.5 -16.5t-22.5 -38t-8.5 -67.5v-619q0 -115 -42 -217t-123.5 -178 t-205.5 -120t-286 -44q-152 0 -269.5 38t-200.5 105.5t-131 161t-61 203.5z" />
<glyph unicode="k" horiz-adv-x="2070" d="M104 0v162h160q23 0 42.5 3t33.5 15.5t22.5 37t8.5 67.5v821q0 51 -5.5 84t-19.5 51.5t-38.5 24.5t-63.5 6h-140v162h828v-162h-160q-47 0 -76.5 -20.5t-29.5 -104.5v-440l612 471q40 32 40 56q0 4 -2 10q-11 28 -65 28h-121v162h826v-162h-96q-45 0 -84 -8.5t-80 -26.5 t-87 -48t-104 -71l-340 -260q137 -147 271.5 -297.5t271.5 -300.5q61 -68 123.5 -83t103.5 -15h107v-162h-916v162h156q42 0 60 32q6 11 7 23q0 21 -20 43l-385 436l-278 -211v-198q0 -72 24.5 -98.5t102.5 -26.5h139v-162h-828z" />
<glyph unicode="l" horiz-adv-x="1802" d="M104 0v162h140q31 0 54.5 3t39.5 15.5t24.5 37t8.5 67.5v860q0 72 -24.5 99.5t-102.5 27.5h-140v162h854v-162h-186q-23 0 -42 -3t-33.5 -16.5t-22.5 -38t-8 -67.5v-963h405q121 0 205 8.5t140.5 51.5t93 136t65.5 263q41 -4 81 -8t81 -8q-16 -160 -30.5 -314.5 t-31.5 -312.5h-1571z" />
<glyph unicode="m" horiz-adv-x="2496" d="M104 0v162h160q23 0 42.5 3t33.5 15.5t22.5 37t8.5 67.5v860q0 72 -24.5 99.5t-102.5 27.5h-140v162h607l542 -1041l539 1041h598v-162h-160q-47 0 -76.5 -20.5t-29.5 -104.5v-860q0 -72 24.5 -98.5t102.5 -26.5h139v-162h-813v162h145q23 0 42.5 3t33.5 15.5t22.5 37 t8.5 67.5v807q-141 -274 -278.5 -546t-278.5 -546h-135l-566 1108v-821q0 -72 25 -98.5t102 -26.5h125v-162h-719z" />
<glyph unicode="n" horiz-adv-x="2185" d="M106 0v162h158q23 0 42.5 3t33.5 16.5t22.5 38t8.5 67.5v858q0 72 -24.5 99.5t-102.5 27.5h-138v162h580l977 -1004v715q0 72 -24.5 99.5t-102.5 27.5h-125v162h717v-162h-160q-23 0 -42 -3t-33.5 -16.5t-22.5 -38t-8 -67.5v-1147h-199l-1092 1122v-833q0 -72 25 -99.5 t102 -27.5h125v-162h-717z" />
<glyph unicode="o" d="M76 717q0 170 63.5 308t179 235.5t275.5 150.5t352 53q193 0 352.5 -53t275.5 -150.5t179.5 -235.5t63.5 -308t-63.5 -308.5t-179.5 -235.5t-275.5 -150.5t-352.5 -53.5t-352.5 53.5t-275 150.5t-179 235.5t-63.5 308.5zM391 717q0 -139 44 -242.5t120 -173.5t176 -103.5 t215 -33.5q113 0 214.5 33.5t177 103.5t119.5 173.5t44 242.5t-44 242.5t-119.5 172t-177 102.5t-214.5 34q-115 0 -215 -34t-176 -102.5t-120 -172t-44 -242.5z" />
<glyph unicode="p" horiz-adv-x="1742" d="M106 0v162h158q23 0 42.5 3t33.5 16.5t22.5 38t8.5 67.5v858q0 72 -24.5 99.5t-102.5 27.5h-138v162h988q117 0 225 -20.5t193 -70t136.5 -131.5t51.5 -204q0 -123 -49 -208t-133 -139.5t-194 -78t-230 -23.5h-428v-270q0 -72 24.5 -99.5t102.5 -27.5h139v-162h-826z M666 745h399q162 0 240.5 73t78.5 190q0 115 -79.5 178t-233.5 63h-405v-504z" />
<glyph unicode="q" d="M74 717q0 170 63.5 308t179 235.5t275.5 150.5t354 53q193 0 352.5 -53t275.5 -150.5t179.5 -235.5t63.5 -308q0 -129 -38 -237.5t-104.5 -194.5t-159 -148.5t-202.5 -99.5q27 -78 94.5 -125t148.5 -62q43 -9 86 -9q40 0 81 7q85 15 149 58l84 -137q-72 -59 -160 -89 t-182 -34q-16 -1 -32 -1q-78 0 -158 17q-97 19 -184 60.5t-161.5 103t-124.5 141.5q-94 0 -170 19q-160 18 -289.5 78.5t-224 154.5t-145.5 220t-51 278zM389 717q0 -139 44 -243.5t120 -174.5t177 -103.5t216 -33.5q113 0 214.5 33.5t177 103.5t119.5 174.5t44 243.5 t-44 242.5t-119.5 172t-177 102.5t-214.5 34q-115 0 -216 -34t-177 -102.5t-120 -172t-44 -242.5z" />
<glyph unicode="r" horiz-adv-x="1986" d="M106 0v162h158q23 0 42.5 3t33.5 16.5t22.5 38t8.5 67.5v858q0 72 -24.5 99.5t-102.5 27.5h-138v162h1002q115 0 222.5 -18.5t189.5 -64.5t131 -127t49 -204q0 -90 -33 -159.5t-85 -118t-115.5 -78t-125.5 -39.5q18 -76 68.5 -164t129.5 -161t187 -114q73 -28 159 -28 q40 0 83 6l19 -164q-84 -11 -160 -11q-64 0 -123 8q-127 17 -228.5 61t-177 108.5t-131 137.5t-90.5 146.5t-53 137.5h-358v-299q0 -72 24.5 -99.5t102.5 -27.5h139v-162h-826zM666 774h399q154 0 236.5 67.5t82.5 178.5t-86 170t-227 59h-405v-475z" />
<glyph unicode="s" horiz-adv-x="1748" d="M109 549l143 14q33 -86 105.5 -159.5t168 -126t206 -82t220.5 -29.5q193 0 304.5 47t111.5 131q0 55 -48 91t-124 59.5t-169 39t-181 27.5q-127 20 -249 50t-218 81t-155.5 131t-59.5 205q0 109 52 190.5t139 136t203 82t243 27.5q111 0 202 -20.5t160.5 -46t115.5 -46 t67 -20.5q34 0 34 33v8q0 31 -4 72h156l57 -502l-145 -16q-27 80 -89.5 144.5t-146.5 108.5t-184 68.5t-201 24.5q-86 0 -156.5 -14.5t-122.5 -41t-81 -64.5t-29 -85q0 -53 45 -86t115 -54.5t155 -34.5t164 -26q78 -14 163 -29.5t165 -39t152.5 -56t128 -81t87 -115 t31.5 -154.5q0 -104 -47 -183t-133 -133.5t-205.5 -81t-267.5 -26.5q-135 0 -240.5 24.5t-182.5 54.5t-125 54.5t-72 24.5q-31 0 -29 -38t6 -97h-156z" />
<glyph unicode="t" horiz-adv-x="1798" d="M37 883l69 551h1586l69 -551l-162 -19q-18 135 -52 211t-80 115t-102 48t-120 9h-198v-958q0 -72 24.5 -99.5t102.5 -27.5h139v-162h-828v162h160q23 0 42.5 3t33.5 16.5t22.5 38t8.5 67.5v960h-199q-63 0 -119.5 -9t-102.5 -48t-80 -115t-52 -211z" />
<glyph unicode="u" horiz-adv-x="2082" d="M66 1276v158h806v-158h-133q-41 0 -64.5 -9.5t-36.5 -27.5t-17.5 -45t-6.5 -64v-507q0 -121 35 -206t98.5 -138.5t151.5 -79t193 -25.5q104 0 192 25.5t151.5 79t99.5 138.5t36 206v507q-2 37 -5 65t-14.5 46.5t-35 26.5t-62.5 8h-143v158h708v-158h-133 q-41 0 -64.5 -9.5t-34.5 -27.5t-14.5 -45t-3.5 -64v-522q0 -168 -48 -288.5t-139 -198.5t-224 -115t-301 -37q-170 0 -306.5 37t-232.5 115t-148.5 198.5t-52.5 288.5v522q-2 78 -26.5 112t-95.5 34h-129z" />
<glyph unicode="v" horiz-adv-x="2066" d="M14 1272v162h863v-162h-156q-61 0 -85 -26q-11 -12 -11 -30q0 -21 14 -49l463 -829l446 829q14 29 14 51q0 16 -8 27q-18 27 -73 27h-158v162h731v-162h-133q-55 0 -85 -27.5t-56 -77.5l-625 -1167h-209l-649 1167q-10 20 -21.5 39t-29 33t-43 23.5t-64.5 9.5h-125z" />
<glyph unicode="w" horiz-adv-x="2713" d="M12 1272v162h779v-162h-107q-48 0 -70 -26q-10 -12 -11 -30q0 -21 13 -49l357 -770l280 645l-53 125q-10 20 -22.5 39t-30 33t-43 23.5t-64.5 9.5h-53v162h746v-162h-148q-51 0 -69 -34q-8 -15 -7 -33q0 -23 13 -52l331 -756l342 770q13 28 13 50q0 13 -4 24 q-11 31 -66 31h-217v162h778v-162h-131q-55 0 -83.5 -27.5t-55.5 -77.5q-133 -293 -263 -583.5t-263 -583.5h-187l-350 791l-332 -791h-190q-135 293 -270.5 583.5t-272.5 583.5q-10 20 -22.5 39t-30 33t-43 23.5t-64.5 9.5h-129z" />
<glyph unicode="x" horiz-adv-x="2091" d="M66 0v162h86q141 0 251 104l461 441l-440 460q-35 35 -64.5 55.5t-59.5 32t-59.5 14.5t-62.5 3h-112v162h915v-162h-127q-48 0 -60 -32q-3 -7 -3 -14q0 -27 32 -59l254 -266l273 266q29 28 29 53q-1 10 -5 19q-16 33 -71 33h-89v162h787v-162h-78q-72 0 -139.5 -20.5 t-132.5 -84.5l-432 -413l469 -488q37 -39 69.5 -59.5t63 -30.5t61.5 -12t66 -2h98v-162h-936v162h147q49 0 61 30q3 7 2 14q0 26 -32 60l-282 295l-301 -295q-29 -28 -29 -53q0 -11 4 -19q16 -32 72 -32h114v-162h-800z" />
<glyph unicode="y" horiz-adv-x="1939" d="M23 1272v162h866v-162h-152q-59 0 -62 -34v-6q0 -31 27 -65l336 -419l340 440q25 33 18 58.5t-59 25.5h-135v162h713v-162h-76q-59 0 -117.5 -25.5t-101.5 -79.5l-481 -596v-284q0 -72 24.5 -98.5t102.5 -26.5h139v-162h-825v162h157q23 0 42.5 3t33.5 15.5t22.5 37 t8.5 67.5v278l-516 604q-41 47 -90.5 76t-124.5 29h-90z" />
<glyph unicode="z" horiz-adv-x="1816" d="M106 0v162l1131 1085h-557q-76 -2 -139.5 -16t-112.5 -51t-84 -101.5t-49 -167.5l-162 19l57 504h1467v-162l-1118 -1088h569q100 0 173 14.5t125 58.5t87 127t57 220l162 -18l-59 -586h-1547z" />
<glyph unicode="{" horiz-adv-x="1091" d="M45 625v186q129 0 189.5 47t60.5 178q0 274 170 389t479 56l-18 -168q-90 12 -150.5 -3.5t-98.5 -52t-54.5 -91t-16.5 -119.5q0 -131 -55 -221.5t-172 -108.5q115 -20 171 -111.5t56 -220.5q0 -66 17.5 -120t56.5 -91t99.5 -52.5t146.5 -2.5l18 -166q-145 -23 -264 -9.5 t-205 68t-133 150.5t-47 237q0 127 -61.5 176.5t-188.5 49.5z" />
<glyph unicode="|" horiz-adv-x="698" d="M250 -164v1761h201v-1761h-201z" />
<glyph unicode="}" horiz-adv-x="1091" d="M148 -47q145 -23 264 -9.5t205 68t133 150.5t47 237q0 127 61.5 176.5t188.5 49.5v186q-129 0 -189.5 47t-60.5 178q0 274 -170 389t-479 56l18 -168q90 12 150.5 -3.5t98.5 -52t54.5 -91t16.5 -119.5q0 -131 55 -221.5t172 -108.5q-115 -20 -171 -111.5t-56 -220.5 q0 -66 -17.5 -120t-56.5 -91t-99.5 -52.5t-146.5 -2.5z" />
<glyph unicode="~" horiz-adv-x="1142" d="M111 664.5q8 58.5 39.5 105.5t87 75.5t139.5 28.5q63 0 116.5 -19t100.5 -43t89 -43t85 -19q35 0 58.5 13t38 32.5t20.5 41t6 40.5h137q12 -49 3 -106.5t-39.5 -107t-86 -82t-135.5 -32.5q-66 0 -121 19.5t-104 44t-91 44t-79 19.5q-35 0 -57.5 -13.5t-37 -32t-20.5 -41 t-6 -40.5h-141q-10 57 -2 115.5z" />
<glyph unicode="&#xa1;" horiz-adv-x="964" d="M271 1254q0 43 16 81t45 67.5t68 46t84 16.5q43 0 81 -16.5t67.5 -46t46 -67.5t16.5 -81q0 -45 -16.5 -84t-46 -67.5t-67.5 -45t-81 -16.5q-90 0 -151.5 61.5t-61.5 151.5zM295 0v60l99 846h178l100 -846v-60h-377z" />
<glyph unicode="&#xa2;" horiz-adv-x="1513" d="M104 715q0 133 55.5 234.5t145.5 171t205 104.5t235 35q55 0 103 -7q31 100 62.5 199.5t64.5 198.5q47 -14 93 -28.5t93 -31.5l-123 -383q39 -14 64.5 -24t42.5 -10q20 0 20 27.5t-2 41.5h137q10 -100 21.5 -200.5t24.5 -200.5q-35 -4 -71 -7.5t-71 -7.5 q-23 72 -81 126.5t-136 86.5l-221 -686h18q70 0 137.5 17.5t124 50.5t98.5 80t60 104q35 -4 71 -7t71 -7q-12 -100 -23.5 -200.5t-22.5 -201.5h-137q2 6 3 17.5t0 23t-6 19.5t-15 8q-20 0 -51 -13.5t-78 -28.5t-111.5 -27.5t-150.5 -12.5q-10 0 -19.5 1t-19.5 1l-127 -395 q-47 14 -95.5 26.5t-95.5 28.5l121 369q-88 25 -163.5 72t-131 111.5t-87.5 146t-32 178.5zM377 721q0 -106 54 -190.5t144 -129.5q55 170 109.5 338t110.5 336q-86 0 -162 -26.5t-133.5 -73.5t-90 -112.5t-32.5 -141.5z" />
<glyph unicode="&#xa3;" horiz-adv-x="1873" d="M98 2q0 41 1 79t1 79q82 14 140.5 43.5t95.5 66.5t54.5 80t17.5 86q0 37 -10.5 74t-26.5 72h-267v192h189q-29 47 -49.5 97.5t-20.5 121.5q0 119 55.5 208t149.5 147.5t219 87t266 28.5q94 0 179.5 -18.5t150 -42t105.5 -42t51 -18.5q23 0 29 25t6 55v21h151l72 -504 l-82 -12t-84 -10q-14 68 -56 131t-108.5 112t-156 79t-197.5 30q-213 0 -321.5 -82t-108.5 -209q0 -37 6 -62.5t15 -48t21.5 -45t24.5 -49.5h586v-192h-510q8 -33 14.5 -66t6.5 -67q0 -59 -26 -112.5t-73 -88.5h690q129 4 211 77.5t105 227.5l168 -21q-20 -135 -39 -267 t-37 -265h-1606z" />
<glyph unicode="&#xa4;" horiz-adv-x="1562" d="M145 221l197 197q-41 59 -66.5 136t-25.5 163t24.5 161.5t67.5 133.5l-197 198l142 142l196 -199q61 41 136 64.5t161 23.5t161 -23.5t134 -64.5q49 49 100.5 98t100.5 101l139 -142l-194 -198q41 -57 65.5 -133t24.5 -162t-24.5 -163t-65.5 -136l194 -197l-139 -141 q-49 51 -100.5 100t-100.5 99q-59 -41 -134 -65t-161 -24t-160.5 24t-134.5 65q-100 -98 -198 -199zM453 717q0 -70 26.5 -129.5t70.5 -103.5t103.5 -68.5t126.5 -24.5q68 0 127.5 24.5t103.5 68.5t70.5 103.5t26.5 129.5t-26.5 129t-70.5 102t-103.5 67.5t-127.5 24.5 t-127 -24.5t-103 -67.5t-70.5 -102t-26.5 -129z" />
<glyph unicode="&#xa5;" horiz-adv-x="1939" d="M23 1272v162h866v-162h-152q-59 0 -70.5 -24.5t15.5 -65.5l356 -434l340 440q25 33 22 58.5t-63 25.5h-135v162h713v-162h-76q-59 0 -118.5 -25.5t-100.5 -79.5l-279 -348h314v-178h-453l-63 -72v-65h516v-176h-516q0 -47 4 -79t16 -51.5t38 -27.5t69 -8h139v-162h-825 v162h157q27 0 46.5 3t32.5 19.5t20.5 50t7.5 93.5h-537v176h537v65l-72 72h-465v178h314q-76 88 -149 174t-144 174q-39 47 -90.5 76t-124.5 29h-90z" />
<glyph unicode="&#xa6;" horiz-adv-x="698" d="M250 -164v778h201v-778h-201zM250 819v778h201v-778h-201z" />
<glyph unicode="&#xa7;" horiz-adv-x="1751" d="M106 791q0 41 20.5 99t68.5 99q-23 27 -37.5 61.5t-14.5 73.5q0 88 55.5 152.5t148.5 106.5t215 61.5t257 19.5q262 0 449.5 -33.5t294.5 -76.5l-29 -310l-150 7q2 25 -3 60.5t-38 59.5q-31 27 -82 46.5t-113.5 32t-133 18.5t-144.5 6q-233 0 -337.5 -38t-104.5 -95 q0 -33 45 -50.5t118 -25.5t165 -12t184 -13q125 -10 251 -29.5t226.5 -62.5t164 -117.5t63.5 -193.5q0 -41 -24 -96.5t-65 -89.5q49 -59 50 -142q0 -90 -58.5 -153.5t-158 -105.5t-229.5 -61.5t-271 -19.5q-262 0 -441.5 35t-281.5 76l29 305l151 -4q-4 -23 1 -51.5 t24 -50.5q25 -31 73 -53.5t110 -37t135 -21.5t149 -7q250 0 366.5 40t116.5 91q0 37 -48 54t-125 24.5t-172 10.5t-188 11q-125 10 -246.5 29.5t-219 62.5t-157 117t-59.5 191zM293 825q0 -49 42 -82.5t112.5 -55t165 -34t198.5 -18.5q80 -4 164 -11.5t165 -16.5 t152.5 -23.5t126.5 -34.5l23.5 23.5t13.5 29.5q0 53 -45 88t-119.5 56.5t-172 33t-201.5 17.5q-80 4 -162 10t-159 16.5t-146.5 25.5t-126.5 38q-14 -14 -22.5 -28.5t-8.5 -33.5z" />
<glyph unicode="&#xa8;" horiz-adv-x="980" d="M102 1737q0 66 46.5 111.5t113.5 45.5q72 0 118 -46t46 -111q0 -66 -46 -110t-118 -44q-68 0 -114 44t-46 110zM555 1737q0 66 46 111.5t114 45.5q72 0 118 -46t46 -111q0 -66 -46.5 -110t-117.5 -44q-68 0 -114 44t-46 110z" />
<glyph unicode="&#xa9;" d="M68 717q0 156 60 293t173 237.5t275.5 158.5t369.5 58q205 0 369 -59t276.5 -161.5t173 -239t60.5 -287.5q0 -156 -60.5 -292t-173 -237.5t-276.5 -160t-369 -58.5q-207 0 -369.5 58.5t-275.5 160t-173 237.5t-60 292zM246 717q0 -143 56 -256t151.5 -189.5t223.5 -117.5 t269 -41t269 41t223.5 117.5t152 189t56.5 256.5q0 143 -56.5 255.5t-152 189.5t-223.5 117t-269 40t-269 -40t-223.5 -117t-151.5 -189.5t-56 -255.5zM479 723q0 92 37 166t96.5 127t135 81.5t153.5 28.5q63 0 109.5 -11t78 -23.5t51 -23.5t31.5 -11q20 0 22.5 16.5 t2.5 38.5h125l37 -305l-125 -19q-27 76 -95.5 131.5t-166.5 55.5q-51 0 -98.5 -18.5t-82 -51.5t-56 -81t-21.5 -105q0 -61 24.5 -107.5t62.5 -78t87 -48t98 -16.5q84 0 156.5 41t113.5 108l119 -69q-27 -57 -73 -102.5t-102 -76t-121.5 -47t-133.5 -16.5q-88 0 -171 29 t-148.5 83t-105.5 131t-40 173z" />
<glyph unicode="&#xaa;" horiz-adv-x="1445" d="M0 0v162h1444v-162h-1444zM31 506v129h86q61 0 94 63l283 533q10 16 10 31q0 41 -51 41h-86v131h452q98 -186 197.5 -368.5t200.5 -367.5q12 -23 33.5 -43t68.5 -20h94v-129h-610v129h104q45 0 45 27q0 14 -12 36l-31 68h-454l-33 -68q-10 -20 -10 -32q0 -31 43 -31h90 v-129h-514zM524 915h312l-158 287z" />
<glyph unicode="&#xab;" horiz-adv-x="1568" d="M139 717l379 450h246v-57l-322 -393l322 -393v-58h-246zM725 717l379 450h246v-57l-322 -393l322 -393v-58h-246z" />
<glyph unicode="&#xac;" horiz-adv-x="1159" d="M102 618v197h906v-432h-197v235h-709z" />
<glyph unicode="&#xad;" horiz-adv-x="913" d="M102 618v197h709v-197h-709z" />
<glyph unicode="&#xae;" d="M68 717q0 156 60 293t173 237.5t275.5 158.5t369.5 58q205 0 369 -59t276.5 -161.5t173 -239t60.5 -287.5q0 -156 -60.5 -292t-173 -237.5t-276.5 -160t-369 -58.5q-207 0 -369.5 58.5t-275.5 160t-173 237.5t-60 292zM246 717q0 -143 56 -256t151.5 -189.5t223.5 -117.5 t269 -41t269 41t223.5 117.5t152 189t56.5 256.5q0 143 -56.5 255.5t-152 189.5t-223.5 117t-269 40t-269 -40t-223.5 -117t-151.5 -189.5t-56 -255.5zM498 350v117h69q23 0 39.5 10t16.5 58v380q0 39 -13.5 53.5t-54.5 14.5h-57v119h551q63 0 120.5 -11.5t100.5 -38 t67.5 -68.5t24.5 -103q0 -49 -18.5 -85t-46 -60.5t-58.5 -39t-53 -22.5q4 -33 24.5 -71t54 -69.5t79 -51t96.5 -15.5l8 -117q-98 -16 -179 7.5t-141.5 67.5t-98.5 100.5t-52 109.5h-154v-98q0 -39 13.5 -54.5t54.5 -15.5h49v-117h-442zM823 772h199q47 0 83 26.5t36 71.5 q0 43 -32 70t-81 27h-205v-195z" />
<glyph unicode="&#xb0;" horiz-adv-x="1116" d="M106 1042q0 104 39 183.5t102.5 132.5t144.5 79.5t167 26.5t167 -26.5t144.5 -79.5t102.5 -132t39 -184q0 -102 -39 -179t-101.5 -130t-144.5 -79.5t-168 -26.5t-167 26.5t-144.5 79.5t-102.5 130t-39 179zM293 1042q0 -55 20.5 -102t56.5 -83t85 -55.5t104 -19.5 t104.5 19.5t84 55.5t55 83t20.5 102t-20.5 102.5t-55 83.5t-84 56.5t-104.5 20.5t-104 -20.5t-85 -56.5t-56.5 -83.5t-20.5 -102.5z" />
<glyph unicode="&#xb1;" horiz-adv-x="1275" d="M106 184v197h1065v-197h-1065zM106 768v197h435v284h196v-284h434v-197h-434v-285h-196v285h-435z" />
<glyph unicode="&#xb2;" horiz-adv-x="1193" d="M88.5 719q11.5 90 62 151.5t136.5 98.5t207 53q57 8 114.5 16.5t104.5 23.5t76.5 39.5t29.5 63.5q0 35 -22.5 60.5t-60.5 42t-86 23.5t-99 7q-47 0 -99.5 -10t-97.5 -33.5t-77.5 -60.5t-38.5 -90l-132 16l29 314h121q4 -16 7 -29.5t26 -13.5q14 0 38.5 10t63.5 21.5 t90 21.5t119 10q102 0 189.5 -16.5t149.5 -51t98 -89t36 -128.5q0 -90 -52 -144t-128 -85t-162 -44t-153 -19q-150 -16 -226 -60.5t-65 -120.5h493q70 2 116 28t62 107l129 -20l-40 -305h-941q-29 123 -17.5 213z" />
<glyph unicode="&#xb3;" horiz-adv-x="1179" d="M55 645l101 123q23 -16 58.5 -37.5t83.5 -40t105.5 -31t122.5 -12.5q55 0 108.5 7.5t95.5 22.5t67.5 38.5t25.5 56.5q0 76 -76.5 97.5t-222.5 21.5h-178v149h178q92 4 146.5 14.5t84 26t38 36t8.5 44.5q0 63 -72 101t-197 38q-74 0 -128 -16t-88.5 -40.5t-55 -54.5 t-27.5 -56l-135 14l27 287h121q6 -37 35 -37q14 0 37.5 10t37.5 14q123 33 213 33q104 0 193.5 -19.5t154 -56.5t101.5 -91t37 -124q0 -45 -16.5 -78.5t-41 -58.5t-53.5 -39t-51 -20q37 0 75 -12.5t68.5 -36t50 -59.5t19.5 -83q0 -68 -40 -122t-111.5 -91t-172 -57.5 t-223.5 -20.5q-80 0 -156.5 13.5t-142 35t-119 50t-86.5 61.5z" />
<glyph unicode="&#xb4;" horiz-adv-x="876" d="M102 1556v48l342 301h330v-50l-444 -299h-228z" />
<glyph unicode="&#xb6;" horiz-adv-x="1714" d="M113 989q0 121 38.5 206t111.5 138t173.5 77t222.5 24h949v-162h-123q-78 0 -102.5 -27.5t-24.5 -99.5v-1145h-201v1247h-194v-1247h-205v567h-111q-246 0 -390 107.5t-144 314.5z" />
<glyph unicode="&#xb7;" horiz-adv-x="868" d="M221 715q0 45 16.5 84t46 67.5t67.5 45t81 16.5q45 0 84 -16.5t67.5 -45t46 -67.5t17.5 -84q0 -43 -17.5 -81t-46 -67.5t-67.5 -46t-84 -16.5q-43 0 -81 16.5t-67.5 46t-46 67.5t-16.5 81z" />
<glyph unicode="&#xb8;" horiz-adv-x="921" d="M131 -244l109 19q10 -47 63 -82t156 -35q76 0 116.5 14.5t40.5 42.5q0 27 -28.5 43.5t-95.5 16.5q-29 0 -63 1t-64 -1l-17 12l72 244h158l-39 -129q43 0 91 -8.5t89 -29t67.5 -56t26.5 -93.5q0 -53 -29.5 -90t-78 -60.5t-109.5 -34.5t-123 -11q-90 0 -173 18.5t-140 42.5 z" />
<glyph unicode="&#xb9;" horiz-adv-x="954" d="M158 506v127h153q33 0 55.5 9t22.5 56v430q0 41 -13.5 54.5t-53.5 13.5h-158v127h106q88 0 139.5 30.5t79.5 90.5h138v-744q0 -41 13 -54t65 -13h122v-127h-669z" />
<glyph unicode="&#xba;" horiz-adv-x="1306" d="M0 0v162h1307v-162h-1307zM82 969q0 104 40 192t113.5 153.5t179 102.5t238.5 37q131 0 236.5 -37t179.5 -102.5t114 -153.5t40 -192q0 -102 -40 -191.5t-114 -154t-179.5 -101.5t-236.5 -37q-133 0 -238.5 37t-179 101.5t-113.5 154t-40 191.5zM336 969 q0 -70 21.5 -129.5t62.5 -103.5t99.5 -68.5t133.5 -24.5q76 0 134.5 24.5t99.5 68.5t62.5 103.5t21.5 129.5q0 68 -21.5 127t-62.5 103t-99.5 69.5t-134.5 25.5t-134 -25.5t-99 -69.5t-62.5 -103t-21.5 -127z" />
<glyph unicode="&#xbb;" horiz-adv-x="1562" d="M219 267v57l322 393l-322 393v58h246l379 -451l-379 -450h-246zM799 267v57l322 393l-322 393v58h246l379 -451l-379 -450h-246z" />
<glyph unicode="&#xbc;" horiz-adv-x="2553" d="M158 506v127h153q33 0 55.5 9t22.5 56v430q0 41 -13.5 54.5t-53.5 13.5h-158v127h106q88 0 139.5 30.5t79.5 90.5h138v-744q0 -41 13 -54t65 -13h122v-127h-669zM666 37l928 1433l123 -75l-928 -1432zM1272 225v143l741 564h176v-553h72q80 0 102 102l109 -24l-35 -232 h-248v-63q0 -16 13.5 -25.5t33.5 -9.5h127v-127h-604v127h150q23 0 31 12t8 23v22q0 10 1 20.5t1 20.5h-678zM1550 379h400v311z" />
<glyph unicode="&#xbd;" horiz-adv-x="2613" d="M158 506v127h153q33 0 55.5 9t22.5 56v430q0 41 -13.5 54.5t-53.5 13.5h-158v127h106q88 0 139.5 30.5t79.5 90.5h138v-744q0 -41 13 -54t65 -13h122v-127h-669zM651 37l928 1433l123 -75l-928 -1432zM1505.5 213q11.5 90 62 151.5t136.5 98.5t207 53q57 8 114.5 16.5 t104.5 23.5t76.5 39.5t29.5 63.5q0 35 -22.5 60.5t-60.5 42t-86 23.5t-99 7q-47 0 -99.5 -10t-97.5 -33.5t-77.5 -60.5t-38.5 -90l-132 16l29 314h121q4 -16 7 -29.5t26 -13.5q14 0 38.5 10t63.5 21.5t90 21.5t119 10q102 0 189.5 -16.5t149.5 -51t98 -89t36 -128.5 q0 -90 -52 -144t-128 -85t-162 -44t-153 -19q-150 -16 -226 -60.5t-65 -120.5h493q70 2 116 28t62 107l129 -20l-40 -305h-941q-29 123 -17.5 213z" />
<glyph unicode="&#xbe;" horiz-adv-x="2723" d="M57 645l101 123q23 -16 58.5 -37.5t83.5 -40t105.5 -31t122.5 -12.5q55 0 108.5 7.5t95.5 22.5t67.5 38.5t25.5 56.5q0 76 -76.5 97.5t-222.5 21.5h-178v149h178q92 4 146.5 14.5t84 26t38 36t8.5 44.5q0 63 -72 101t-197 38q-74 0 -128 -16t-88.5 -40.5t-55 -54.5 t-27.5 -56l-135 14l27 287h121q6 -37 35 -37q14 0 37.5 10t37.5 14q123 33 213 33q104 0 193.5 -19.5t154 -56.5t101.5 -91t37 -124q0 -45 -16.5 -78.5t-41 -58.5t-53.5 -39t-51 -20q37 0 75 -12.5t68.5 -36t50 -59.5t19.5 -83q0 -68 -40 -122t-111.5 -91t-172 -57.5 t-223.5 -20.5q-80 0 -156.5 13.5t-142 35t-119 50t-86.5 61.5zM835 37l928 1433l123 -75l-928 -1432zM1442 225v143l741 564h176v-553h72q80 0 102 102l109 -24l-35 -232h-248v-63q0 -16 13.5 -25.5t33.5 -9.5h127v-127h-604v127h150q23 0 31 12t8 23v22q0 10 1 20.5t1 20.5 h-678zM1720 379h400v311z" />
<glyph unicode="&#xbf;" horiz-adv-x="1679" d="M84 387q0 92 39 158t101.5 110t144.5 69.5t167 39t167 16.5t147 3v123h242v-285l-29 -25q-61 4 -108.5 2t-102.5 -2q-82 0 -160.5 -10t-138 -33.5t-96.5 -63.5t-37 -99q0 -68 40 -111t107.5 -68.5t155.5 -36t184 -10.5q133 0 240 19.5t148 58.5q29 29 32.5 65.5 t-4.5 98.5l154 16l43 -358q-41 -16 -115 -33.5t-161 -31t-179 -21.5t-170 -8q-156 0 -301 15t-259 61.5t-182.5 128t-68.5 212.5zM754 1254q0 43 16.5 81t46 67.5t68.5 46t84 16.5q43 0 81 -16.5t66.5 -46t45 -67.5t16.5 -81q0 -45 -16.5 -84t-45 -67.5t-66.5 -45t-81 -16.5 q-92 0 -153.5 61.5t-61.5 151.5z" />
<glyph unicode="&#xc0;" horiz-adv-x="2070" d="M12 0v162h133q55 0 83 26.5t57 75.5l495 905q23 39 11.5 71t-60.5 32h-176v162h569l648 -1170q20 -41 50.5 -71.5t108.5 -30.5h125v-162h-878v162h190q43 0 67.5 21.5t-1.5 70.5l-80 152h-752l-72 -142q-23 -47 0 -74.5t76 -27.5h158v-162h-752zM446 1855v50h328 l344 -301v-48h-227zM698 590h553q-72 129 -141.5 256t-140.5 254z" />
<glyph unicode="&#xc1;" horiz-adv-x="2070" d="M12 0v162h133q55 0 83 26.5t57 75.5l495 905q23 39 11.5 71t-60.5 32h-176v162h569l648 -1170q20 -41 50.5 -71.5t108.5 -30.5h125v-162h-878v162h190q43 0 67.5 21.5t-1.5 70.5l-80 152h-752l-72 -142q-23 -47 0 -74.5t76 -27.5h158v-162h-752zM698 590h553 q-72 129 -141.5 256t-140.5 254zM798 1556v48l342 301h330v-50l-444 -299h-228z" />
<glyph unicode="&#xc2;" horiz-adv-x="2070" d="M12 0v162h133q55 0 83 26.5t57 75.5l495 905q23 39 11.5 71t-60.5 32h-176v162h569l648 -1170q20 -41 50.5 -71.5t108.5 -30.5h125v-162h-878v162h190q43 0 67.5 21.5t-1.5 70.5l-80 152h-752l-72 -142q-23 -47 0 -74.5t76 -27.5h158v-162h-752zM532 1556v48l252 301h301 l252 -301v-48h-190l-213 175l-211 -175h-191zM698 590h553q-72 129 -141.5 256t-140.5 254z" />
<glyph unicode="&#xc3;" horiz-adv-x="2070" d="M12 0v162h133q55 0 83 26.5t57 75.5l495 905q23 39 11.5 71t-60.5 32h-176v162h569l648 -1170q20 -41 50.5 -71.5t108.5 -30.5h125v-162h-878v162h190q43 0 67.5 21.5t-1.5 70.5l-80 152h-752l-72 -142q-23 -47 0 -74.5t76 -27.5h158v-162h-752zM529 1682.5 q6 60.5 33.5 109.5t77.5 80t124 31q57 0 104.5 -22.5t90.5 -49.5t80.5 -49.5t76.5 -22.5q20 0 39 13.5t31 33t19 44t7 48.5h117q20 -55 13 -114.5t-35.5 -110.5t-78.5 -84t-118 -33q-57 0 -107.5 23t-95.5 49.5t-83 49t-70 22.5q-23 0 -42.5 -14.5t-32.5 -35t-18.5 -44 t-0.5 -43.5h-123q-14 59 -8 119.5zM698 590h553q-72 129 -141.5 256t-140.5 254z" />
<glyph unicode="&#xc4;" horiz-adv-x="2070" d="M12 0v162h133q55 0 83 26.5t57 75.5l495 905q23 39 11.5 71t-60.5 32h-176v162h569l648 -1170q20 -41 50.5 -71.5t108.5 -30.5h125v-162h-878v162h190q43 0 67.5 21.5t-1.5 70.5l-80 152h-752l-72 -142q-23 -47 0 -74.5t76 -27.5h158v-162h-752zM546 1737 q0 66 46.5 111.5t113.5 45.5q72 0 118 -46t46 -111q0 -66 -46 -110t-118 -44q-68 0 -114 44t-46 110zM698 590h553q-72 129 -141.5 256t-140.5 254zM999 1737q0 66 46 111.5t114 45.5q72 0 118 -46t46 -111q0 -66 -46.5 -110t-117.5 -44q-68 0 -114 44t-46 110z" />
<glyph unicode="&#xc5;" horiz-adv-x="2070" d="M12 0v162h133q55 0 84 26.5t56 75.5q135 246 267 487.5t265 487.5q-39 16 -75.5 46t-65.5 70t-46.5 90t-17.5 107q0 88 34 154t89.5 110t124 66.5t137.5 22.5q70 0 137.5 -22.5t121 -65.5t87 -109t33.5 -152q0 -104 -46 -178.5t-116 -113.5q141 -252 278.5 -500 t279.5 -500q20 -41 50.5 -71.5t108.5 -30.5h125v-162h-878v162h170q47 0 78.5 22.5t5.5 71.5l-78 150h-752l-72 -142q-23 -47 0 -74.5t76 -27.5h158v-162h-752zM698 590h553q-72 129 -141.5 256t-140.5 254zM797 1552q0 -88 55 -142t145 -54q88 0 143.5 54t55.5 142 q0 86 -55.5 141.5t-143.5 55.5q-90 0 -145 -55.5t-55 -141.5z" />
<glyph unicode="&#xc6;" horiz-adv-x="2924" d="M-12 0v160h80q80 0 130 28.5t81 75.5l579 866q35 51 21.5 96.5t-82.5 45.5h-160v162h2087l55 -512q-41 -4 -82 -8.5t-82 -8.5q-18 117 -54 185.5t-91 102.5t-128 43t-165 9h-457v-414h269q72 0 99.5 25t27.5 102v105h161v-649h-161v125q0 23 -3.5 42t-16.5 33.5 t-37.5 22.5t-67.5 8h-271v-461h443q117 0 199.5 9.5t140 51.5t94.5 129t61 242q41 -4 80 -8t80 -8q-16 -152 -30.5 -301t-30.5 -299h-1569v160h110q29 0 52.5 3t40 15t25.5 36t9 65v139h-739l-96 -156q-29 -43 -8.5 -72.5t73.5 -29.5h140v-160h-807zM797 602h628v574 q-2 35 -25.5 51t-80.5 16q-70 0 -96.5 -21.5t-42.5 -45.5z" />
<glyph unicode="&#xc7;" horiz-adv-x="1781" d="M82 733q0 178 72.5 315.5t191.5 229.5t268.5 139t300.5 47q119 0 206 -19.5t151.5 -44t108.5 -44t75 -19.5q27 0 29 31t-2 70h155l66 -537l-160 -20q-29 88 -84 159.5t-131 121.5t-167 77t-189 27q-123 0 -229.5 -39t-184.5 -109.5t-123 -171t-45 -221.5 q0 -129 46 -231.5t128 -174t194.5 -109.5t246.5 -38q170 0 316 63.5t275 210.5l129 -112q-55 -78 -125.5 -142.5t-158.5 -111.5t-196.5 -76t-239.5 -33l-21 -69q43 0 91 -8.5t89 -29t68 -56t27 -93.5q0 -53 -30 -90t-78 -60.5t-108.5 -34.5t-123.5 -11q-90 0 -173 18.5 t-139 42.5l-30 176l110 19q10 -47 62.5 -82t154.5 -35q76 0 117 14.5t41 42.5q0 27 -28.5 43.5t-96.5 16.5q-29 0 -52.5 1t-54.5 -1l-30 39l49 159q-172 14 -313.5 73.5t-242.5 158t-156.5 232.5t-55.5 296z" />
<glyph unicode="&#xc8;" horiz-adv-x="1863" d="M104 0v162h140q31 0 54.5 3t39.5 15.5t24.5 37t8.5 67.5v860q0 72 -24.5 99.5t-102.5 27.5h-140v162h1565l68 -525l-162 -18q-16 109 -48 178.5t-79 108.5t-109.5 53t-140.5 14h-532v-414h268q72 0 99.5 25t27.5 102v117h162v-676h-162v140q0 23 -3 42t-16.5 33.5 t-38 22.5t-67.5 8h-270v-461h491q100 0 174 13.5t126 58.5t87 130t60 230q41 -4 79.5 -8t79.5 -8l-61 -600h-1598zM581 1855v50h328l344 -301v-48h-227z" />
<glyph unicode="&#xc9;" horiz-adv-x="1863" d="M104 0v162h140q31 0 54.5 3t39.5 15.5t24.5 37t8.5 67.5v860q0 72 -24.5 99.5t-102.5 27.5h-140v162h1565l68 -525l-162 -18q-16 109 -48 178.5t-79 108.5t-109.5 53t-140.5 14h-532v-414h268q72 0 99.5 25t27.5 102v117h162v-676h-162v140q0 23 -3 42t-16.5 33.5 t-38 22.5t-67.5 8h-270v-461h491q100 0 174 13.5t126 58.5t87 130t60 230q41 -4 79.5 -8t79.5 -8l-61 -600h-1598zM643 1556v48l342 301h330v-50l-444 -299h-228z" />
<glyph unicode="&#xca;" horiz-adv-x="1863" d="M104 0v162h140q31 0 54.5 3t39.5 15.5t24.5 37t8.5 67.5v860q0 72 -24.5 99.5t-102.5 27.5h-140v162h1565l68 -525l-162 -18q-16 109 -48 178.5t-79 108.5t-109.5 53t-140.5 14h-532v-414h268q72 0 99.5 25t27.5 102v117h162v-676h-162v140q0 23 -3 42t-16.5 33.5 t-38 22.5t-67.5 8h-270v-461h491q100 0 174 13.5t126 58.5t87 130t60 230q41 -4 79.5 -8t79.5 -8l-61 -600h-1598zM538 1556v48l252 301h301l252 -301v-48h-190l-213 175l-211 -175h-191z" />
<glyph unicode="&#xcb;" horiz-adv-x="1863" d="M104 0v162h140q31 0 54.5 3t39.5 15.5t24.5 37t8.5 67.5v860q0 72 -24.5 99.5t-102.5 27.5h-140v162h1565l68 -525l-162 -18q-16 109 -48 178.5t-79 108.5t-109.5 53t-140.5 14h-532v-414h268q72 0 99.5 25t27.5 102v117h162v-676h-162v140q0 23 -3 42t-16.5 33.5 t-38 22.5t-67.5 8h-270v-461h491q100 0 174 13.5t126 58.5t87 130t60 230q41 -4 79.5 -8t79.5 -8l-61 -600h-1598zM546 1737q0 66 46.5 111.5t113.5 45.5q72 0 118 -46t46 -111q0 -66 -46 -110t-118 -44q-68 0 -114 44t-46 110zM999 1737q0 66 46 111.5t114 45.5 q72 0 118 -46t46 -111q0 -66 -46.5 -110t-117.5 -44q-68 0 -114 44t-46 110z" />
<glyph unicode="&#xcc;" horiz-adv-x="1038" d="M18 1855v50h328l344 -301v-48h-227zM104 0v162h160q23 0 42.5 3t33.5 15.5t22.5 37t8.5 67.5v860q0 78 -28 102.5t-99 24.5h-140v162h828v-162h-160q-47 0 -76.5 -20.5t-29.5 -104.5v-860q0 -72 24.5 -98.5t102.5 -26.5h139v-162h-828z" />
<glyph unicode="&#xcd;" horiz-adv-x="1038" d="M104 0v162h160q23 0 42.5 3t33.5 15.5t22.5 37t8.5 67.5v860q0 78 -28 102.5t-99 24.5h-140v162h828v-162h-160q-47 0 -76.5 -20.5t-29.5 -104.5v-860q0 -72 24.5 -98.5t102.5 -26.5h139v-162h-828zM348 1556v48l342 301h330v-50l-444 -299h-228z" />
<glyph unicode="&#xce;" horiz-adv-x="1038" d="M104 0v162h160q23 0 42.5 3t33.5 15.5t22.5 37t8.5 67.5v860q0 78 -28 102.5t-99 24.5h-140v162h828v-162h-160q-47 0 -76.5 -20.5t-29.5 -104.5v-860q0 -72 24.5 -98.5t102.5 -26.5h139v-162h-828zM114 1556v48l252 301h301l252 -301v-48h-190l-213 175l-211 -175h-191z " />
<glyph unicode="&#xcf;" horiz-adv-x="1038" d="M104 0v162h160q23 0 42.5 3t33.5 15.5t22.5 37t8.5 67.5v860q0 78 -28 102.5t-99 24.5h-140v162h828v-162h-160q-47 0 -76.5 -20.5t-29.5 -104.5v-860q0 -72 24.5 -98.5t102.5 -26.5h139v-162h-828zM129 1737q0 66 46.5 111.5t113.5 45.5q72 0 118 -46t46 -111 q0 -66 -46 -110t-118 -44q-68 0 -114 44t-46 110zM582 1737q0 66 46 111.5t114 45.5q72 0 118 -46t46 -111q0 -66 -46.5 -110t-117.5 -44q-68 0 -114 44t-46 110z" />
<glyph unicode="&#xd0;" horiz-adv-x="1976" d="M145 0v162h160q23 0 42.5 3t33.5 15.5t22.5 37t8.5 67.5v331h-267v199h267v330q0 72 -25 99.5t-102 27.5h-140v162h899q199 0 358 -46.5t269.5 -135.5t170 -221t59.5 -304q0 -164 -59.5 -297t-170 -229.5t-269.5 -148.5t-358 -52h-899zM707 184h213q145 0 267 30 t209 94.5t136 168t49 250.5q0 156 -50 256t-137 158.5t-207 82t-257 23.5h-223v-432h512v-199h-512v-432z" />
<glyph unicode="&#xd1;" horiz-adv-x="2179" d="M106 0v162h158q23 0 42.5 3t33.5 16.5t22.5 38t8.5 67.5v858q0 72 -24.5 99.5t-102.5 27.5h-138v162h580l977 -1004v715q0 72 -24.5 99.5t-102.5 27.5h-125v162h717v-162h-160q-23 0 -42 -3t-33.5 -16.5t-22.5 -38t-8 -67.5v-1147h-199l-1092 1122v-833q0 -72 25 -99.5 t102 -27.5h125v-162h-717zM678 1682.5q6 60.5 33.5 109.5t77.5 80t124 31q57 0 104.5 -22.5t90.5 -49.5t80.5 -49.5t76.5 -22.5q20 0 39 13.5t31 33t19 44t7 48.5h117q20 -55 13 -114.5t-35.5 -110.5t-78.5 -84t-118 -33q-57 0 -107.5 23t-95.5 49.5t-83 49t-70 22.5 q-23 0 -42.5 -14.5t-32.5 -35t-18.5 -44t-0.5 -43.5h-123q-14 59 -8 119.5z" />
<glyph unicode="&#xd2;" d="M76 717q0 170 63.5 308t179 235.5t275.5 150.5t352 53q193 0 352.5 -53t275.5 -150.5t179.5 -235.5t63.5 -308t-63.5 -308.5t-179.5 -235.5t-275.5 -150.5t-352.5 -53.5t-352.5 53.5t-275 150.5t-179 235.5t-63.5 308.5zM391 717q0 -139 44 -242.5t120 -173.5t176 -103.5 t215 -33.5q113 0 214.5 33.5t177 103.5t119.5 173.5t44 242.5t-44 242.5t-119.5 172t-177 102.5t-214.5 34q-115 0 -215 -34t-176 -102.5t-120 -172t-44 -242.5zM462 1855v50h328l344 -301v-48h-227z" />
<glyph unicode="&#xd3;" d="M76 717q0 170 63.5 308t179 235.5t275.5 150.5t352 53q193 0 352.5 -53t275.5 -150.5t179.5 -235.5t63.5 -308t-63.5 -308.5t-179.5 -235.5t-275.5 -150.5t-352.5 -53.5t-352.5 53.5t-275 150.5t-179 235.5t-63.5 308.5zM391 717q0 -139 44 -242.5t120 -173.5t176 -103.5 t215 -33.5q113 0 214.5 33.5t177 103.5t119.5 173.5t44 242.5t-44 242.5t-119.5 172t-177 102.5t-214.5 34q-115 0 -215 -34t-176 -102.5t-120 -172t-44 -242.5zM790 1556v48l342 301h330v-50l-444 -299h-228z" />
<glyph unicode="&#xd4;" d="M76 717q0 170 63.5 308t179 235.5t275.5 150.5t352 53q193 0 352.5 -53t275.5 -150.5t179.5 -235.5t63.5 -308t-63.5 -308.5t-179.5 -235.5t-275.5 -150.5t-352.5 -53.5t-352.5 53.5t-275 150.5t-179 235.5t-63.5 308.5zM391 717q0 -139 44 -242.5t120 -173.5t176 -103.5 t215 -33.5q113 0 214.5 33.5t177 103.5t119.5 173.5t44 242.5t-44 242.5t-119.5 172t-177 102.5t-214.5 34q-115 0 -215 -34t-176 -102.5t-120 -172t-44 -242.5zM542 1556v48l252 301h301l252 -301v-48h-190l-213 175l-211 -175h-191z" />
<glyph unicode="&#xd5;" d="M76 717q0 170 63.5 308t179 235.5t275.5 150.5t352 53q193 0 352.5 -53t275.5 -150.5t179.5 -235.5t63.5 -308t-63.5 -308.5t-179.5 -235.5t-275.5 -150.5t-352.5 -53.5t-352.5 53.5t-275 150.5t-179 235.5t-63.5 308.5zM391 717q0 -139 44 -242.5t120 -173.5t176 -103.5 t215 -33.5q113 0 214.5 33.5t177 103.5t119.5 173.5t44 242.5t-44 242.5t-119.5 172t-177 102.5t-214.5 34q-115 0 -215 -34t-176 -102.5t-120 -172t-44 -242.5zM535 1682.5q6 60.5 33.5 109.5t77.5 80t124 31q57 0 104.5 -22.5t90.5 -49.5t80.5 -49.5t76.5 -22.5 q20 0 39 13.5t31 33t19 44t7 48.5h117q20 -55 13 -114.5t-35.5 -110.5t-78.5 -84t-118 -33q-57 0 -107.5 23t-95.5 49.5t-83 49t-70 22.5q-23 0 -42.5 -14.5t-32.5 -35t-18.5 -44t-0.5 -43.5h-123q-14 59 -8 119.5z" />
<glyph unicode="&#xd6;" d="M76 717q0 170 63.5 308t179 235.5t275.5 150.5t352 53q193 0 352.5 -53t275.5 -150.5t179.5 -235.5t63.5 -308t-63.5 -308.5t-179.5 -235.5t-275.5 -150.5t-352.5 -53.5t-352.5 53.5t-275 150.5t-179 235.5t-63.5 308.5zM391 717q0 -139 44 -242.5t120 -173.5t176 -103.5 t215 -33.5q113 0 214.5 33.5t177 103.5t119.5 173.5t44 242.5t-44 242.5t-119.5 172t-177 102.5t-214.5 34q-115 0 -215 -34t-176 -102.5t-120 -172t-44 -242.5zM555 1737q0 66 46.5 111.5t113.5 45.5q72 0 118 -46t46 -111q0 -66 -46 -110t-118 -44q-68 0 -114 44t-46 110z M1008 1737q0 66 46 111.5t114 45.5q72 0 118 -46t46 -111q0 -66 -46.5 -110t-117.5 -44q-68 0 -114 44t-46 110z" />
<glyph unicode="&#xd7;" horiz-adv-x="1267" d="M145 365l349 348l-349 346l140 139l348 -346l348 346l69.5 -69.5l69.5 -69.5l-348 -346l348 -348q-35 -35 -69.5 -70t-69.5 -70q-176 172 -348 348q-88 -88 -174 -175t-174 -173z" />
<glyph unicode="&#xd8;" d="M76 717q0 170 63.5 308t179 235.5t275.5 150.5t352 53q137 0 258 -27.5t221 -78.5l160 168l139 -137l-137 -144q111 -98 170.5 -231t59.5 -297q0 -170 -63.5 -308.5t-179.5 -235.5t-275.5 -150.5t-352.5 -53.5q-137 0 -258 27t-221 78l-160 -166l-139 137l137 143 q-111 98 -170 230.5t-59 298.5zM391 717q0 -104 29 -186t82 -142l758 801q-137 78 -314 78q-115 0 -215 -34t-176 -102.5t-120 -172t-44 -242.5zM631 242q68 -41 147.5 -59.5t167.5 -18.5q113 0 214.5 33.5t177 103.5t119.5 173.5t44 242.5q0 104 -29.5 186t-80.5 141z" />
<glyph unicode="&#xd9;" horiz-adv-x="2082" d="M66 1276v158h806v-158h-133q-41 0 -64.5 -9.5t-36.5 -27.5t-17.5 -45t-6.5 -64v-507q0 -121 35 -206t98.5 -138.5t151.5 -79t193 -25.5q104 0 192 25.5t151.5 79t99.5 138.5t36 206v507q-2 37 -5 65t-14.5 46.5t-35 26.5t-62.5 8h-143v158h708v-158h-133 q-41 0 -64.5 -9.5t-34.5 -27.5t-14.5 -45t-3.5 -64v-522q0 -168 -48 -288.5t-139 -198.5t-224 -115t-301 -37q-170 0 -306.5 37t-232.5 115t-148.5 198.5t-52.5 288.5v522q-2 78 -26.5 112t-95.5 34h-129zM577 1855v50h328l344 -301v-48h-227z" />
<glyph unicode="&#xda;" horiz-adv-x="2082" d="M66 1276v158h806v-158h-133q-41 0 -64.5 -9.5t-36.5 -27.5t-17.5 -45t-6.5 -64v-507q0 -121 35 -206t98.5 -138.5t151.5 -79t193 -25.5q104 0 192 25.5t151.5 79t99.5 138.5t36 206v507q-2 37 -5 65t-14.5 46.5t-35 26.5t-62.5 8h-143v158h708v-158h-133 q-41 0 -64.5 -9.5t-34.5 -27.5t-14.5 -45t-3.5 -64v-522q0 -168 -48 -288.5t-139 -198.5t-224 -115t-301 -37q-170 0 -306.5 37t-232.5 115t-148.5 198.5t-52.5 288.5v522q-2 78 -26.5 112t-95.5 34h-129zM913 1556v48l342 301h330v-50l-444 -299h-228z" />
<glyph unicode="&#xdb;" horiz-adv-x="2082" d="M66 1276v158h806v-158h-133q-41 0 -64.5 -9.5t-36.5 -27.5t-17.5 -45t-6.5 -64v-507q0 -121 35 -206t98.5 -138.5t151.5 -79t193 -25.5q104 0 192 25.5t151.5 79t99.5 138.5t36 206v507q-2 37 -5 65t-14.5 46.5t-35 26.5t-62.5 8h-143v158h708v-158h-133 q-41 0 -64.5 -9.5t-34.5 -27.5t-14.5 -45t-3.5 -64v-522q0 -168 -48 -288.5t-139 -198.5t-224 -115t-301 -37q-170 0 -306.5 37t-232.5 115t-148.5 198.5t-52.5 288.5v522q-2 78 -26.5 112t-95.5 34h-129zM688 1556v48l252 301h301l252 -301v-48h-190l-213 175l-211 -175 h-191z" />
<glyph unicode="&#xdc;" horiz-adv-x="2082" d="M66 1276v158h806v-158h-133q-41 0 -64.5 -9.5t-36.5 -27.5t-17.5 -45t-6.5 -64v-507q0 -121 35 -206t98.5 -138.5t151.5 -79t193 -25.5q104 0 192 25.5t151.5 79t99.5 138.5t36 206v507q-2 37 -5 65t-14.5 46.5t-35 26.5t-62.5 8h-143v158h708v-158h-133 q-41 0 -64.5 -9.5t-34.5 -27.5t-14.5 -45t-3.5 -64v-522q0 -168 -48 -288.5t-139 -198.5t-224 -115t-301 -37q-170 0 -306.5 37t-232.5 115t-148.5 198.5t-52.5 288.5v522q-2 78 -26.5 112t-95.5 34h-129zM698 1737q0 66 46.5 111.5t113.5 45.5q72 0 118 -46t46 -111 q0 -66 -46 -110t-118 -44q-68 0 -114 44t-46 110zM1151 1737q0 66 46 111.5t114 45.5q72 0 118 -46t46 -111q0 -66 -46.5 -110t-117.5 -44q-68 0 -114 44t-46 110z" />
<glyph unicode="&#xdd;" horiz-adv-x="1939" d="M23 1272v162h866v-162h-152q-59 0 -62 -34t27 -71l336 -419l340 440q25 33 18 58.5t-59 25.5h-135v162h713v-162h-76q-59 0 -117.5 -25.5t-101.5 -79.5l-481 -596v-284q0 -72 24.5 -98.5t102.5 -26.5h139v-162h-825v162h157q23 0 42.5 3t33.5 15.5t22.5 37t8.5 67.5v278 l-516 604q-41 47 -90.5 76t-124.5 29h-90zM829 1556v48l342 301h330v-50l-444 -299h-228z" />
<glyph unicode="&#xde;" horiz-adv-x="1685" d="M106 0v162h158q23 0 42.5 3t33.5 16.5t22.5 38t8.5 67.5v860q0 72 -24.5 98.5t-102.5 26.5h-138v162h1041v-162h-309q-55 0 -89 -8.5t-52.5 -29t-24.5 -53t-6 -81.5h495q106 0 193.5 -25.5t149 -75t95 -120t33.5 -160.5t-33.5 -162t-95 -121t-148.5 -75.5t-194 -26.5 h-495q0 -41 6 -74t24.5 -54.5t52 -32.5t89.5 -11h309v-162h-1041zM666 520h403q133 0 188.5 53.5t55.5 143.5t-62.5 143t-179.5 53h-405v-393z" />
<glyph unicode="&#xdf;" horiz-adv-x="2052" d="M106 0v162h158q23 0 42.5 3t33.5 16.5t22.5 38t8.5 67.5v858q0 72 -24.5 99.5t-102.5 27.5h-138v162h1641l76 -170l-486 -418h111q96 0 193.5 -25.5t176 -78t128 -133.5t49.5 -193q0 -113 -43 -197t-124 -139t-194.5 -83t-255.5 -28q-178 0 -321.5 25.5t-229.5 64.5 l62 375l149 -18q-4 -55 -5 -90t14 -70q8 -27 36.5 -46.5t68.5 -31.5t88 -17t97 -5q162 0 251 71.5t89 192.5q0 135 -98 197.5t-266 62.5h-312l-67 149l487 418h-755v-1247h-560z" />
<glyph unicode="&#xe0;" horiz-adv-x="2070" d="M12 0v162h133q55 0 83 26.5t57 75.5l495 905q23 39 11.5 71t-60.5 32h-176v162h569l648 -1170q20 -41 50.5 -71.5t108.5 -30.5h125v-162h-878v162h190q43 0 67.5 21.5t-1.5 70.5l-80 152h-752l-72 -142q-23 -47 0 -74.5t76 -27.5h158v-162h-752zM440 1855v50h328 l344 -301v-48h-227zM698 590h553q-72 129 -141.5 256t-140.5 254z" />
<glyph unicode="&#xe1;" horiz-adv-x="2070" d="M12 0v162h133q55 0 83 26.5t57 75.5l495 905q23 39 11.5 71t-60.5 32h-176v162h569l648 -1170q20 -41 50.5 -71.5t108.5 -30.5h125v-162h-878v162h190q43 0 67.5 21.5t-1.5 70.5l-80 152h-752l-72 -142q-23 -47 0 -74.5t76 -27.5h158v-162h-752zM698 590h553 q-72 129 -141.5 256t-140.5 254zM792 1556v48l342 301h330v-50l-444 -299h-228z" />
<glyph unicode="&#xe2;" horiz-adv-x="2070" d="M12 0v162h133q55 0 83 26.5t57 75.5l495 905q23 39 11.5 71t-60.5 32h-176v162h569l648 -1170q20 -41 50.5 -71.5t108.5 -30.5h125v-162h-878v162h190q43 0 67.5 21.5t-1.5 70.5l-80 152h-752l-72 -142q-23 -47 0 -74.5t76 -27.5h158v-162h-752zM532 1556v48l252 301h301 l252 -301v-48h-190l-213 175l-211 -175h-191zM698 590h553q-72 129 -141.5 256t-140.5 254z" />
<glyph unicode="&#xe3;" horiz-adv-x="2070" d="M12 0v162h133q55 0 83 26.5t57 75.5l495 905q23 39 11.5 71t-60.5 32h-176v162h569l648 -1170q20 -41 50.5 -71.5t108.5 -30.5h125v-162h-878v162h190q43 0 67.5 21.5t-1.5 70.5l-80 152h-752l-72 -142q-23 -47 0 -74.5t76 -27.5h158v-162h-752zM529 1682.5 q6 60.5 33.5 109.5t77.5 80t124 31q57 0 104.5 -22.5t90.5 -49.5t80.5 -49.5t76.5 -22.5q20 0 39 13.5t31 33t19 44t7 48.5h117q20 -55 13 -114.5t-35.5 -110.5t-78.5 -84t-118 -33q-57 0 -107.5 23t-95.5 49.5t-83 49t-70 22.5q-23 0 -42.5 -14.5t-32.5 -35t-18.5 -44 t-0.5 -43.5h-123q-14 59 -8 119.5zM698 590h553q-72 129 -141.5 256t-140.5 254z" />
<glyph unicode="&#xe4;" horiz-adv-x="2070" d="M12 0v162h133q55 0 83 26.5t57 75.5l495 905q23 39 11.5 71t-60.5 32h-176v162h569l648 -1170q20 -41 50.5 -71.5t108.5 -30.5h125v-162h-878v162h190q43 0 67.5 21.5t-1.5 70.5l-80 152h-752l-72 -142q-23 -47 0 -74.5t76 -27.5h158v-162h-752zM546 1737 q0 66 46.5 111.5t113.5 45.5q72 0 118 -46t46 -111q0 -66 -46 -110t-118 -44q-68 0 -114 44t-46 110zM698 590h553q-72 129 -141.5 256t-140.5 254zM999 1737q0 66 46 111.5t114 45.5q72 0 118 -46t46 -111q0 -66 -46.5 -110t-117.5 -44q-68 0 -114 44t-46 110z" />
<glyph unicode="&#xe5;" horiz-adv-x="2070" d="M12 0v162h133q55 0 84 26.5t56 75.5q135 246 267 487.5t265 487.5q-39 16 -75.5 46t-65.5 70t-46.5 90t-17.5 107q0 88 34 154t89.5 110t124 66.5t137.5 22.5q70 0 137.5 -22.5t121 -65.5t87 -109t33.5 -152q0 -104 -46 -178.5t-116 -113.5q141 -252 278.5 -500 t279.5 -500q20 -41 50.5 -71.5t108.5 -30.5h125v-162h-878v162h170q47 0 78.5 22.5t5.5 71.5l-78 150h-752l-72 -142q-23 -47 0 -74.5t76 -27.5h158v-162h-752zM698 590h553q-72 129 -141.5 256t-140.5 254zM797 1552q0 -88 55 -142t145 -54q88 0 143.5 54t55.5 142 q0 86 -55.5 141.5t-143.5 55.5q-90 0 -145 -55.5t-55 -141.5z" />
<glyph unicode="&#xe6;" horiz-adv-x="2924" d="M-12 0v160h80q80 0 130 28.5t81 75.5l579 866q35 51 21.5 96.5t-82.5 45.5h-160v162h2087l55 -512q-41 -4 -82 -8.5t-82 -8.5q-18 117 -54 185.5t-91 102.5t-128 43t-165 9h-457v-414h269q72 0 99.5 25t27.5 102v105h161v-649h-161v125q0 23 -3.5 42t-16.5 33.5 t-37.5 22.5t-67.5 8h-271v-461h443q117 0 199.5 9.5t140 51.5t94.5 129t61 242q41 -4 80 -8t80 -8q-16 -152 -30.5 -301t-30.5 -299h-1569v160h110q29 0 52.5 3t40 15t25.5 36t9 65v139h-739l-96 -156q-29 -43 -8.5 -72.5t73.5 -29.5h140v-160h-807zM797 602h628v574 q-2 35 -25.5 51t-80.5 16q-70 0 -96.5 -21.5t-42.5 -45.5z" />
<glyph unicode="&#xe7;" horiz-adv-x="1783" d="M82 733q0 178 72.5 315.5t191.5 229.5t268.5 139t300.5 47q119 0 206 -19.5t151.5 -44t108.5 -44t75 -19.5q27 0 29 31t-2 70h155l66 -537l-160 -20q-29 88 -84 159.5t-131 121.5t-167 77t-189 27q-123 0 -229.5 -39t-184.5 -109.5t-123 -171t-45 -221.5 q0 -129 46 -231.5t128 -174t194.5 -109.5t246.5 -38q170 0 316 63.5t275 210.5l129 -112q-55 -78 -125.5 -142.5t-158.5 -111.5t-196.5 -76t-239.5 -33l-21 -69q43 0 91 -8.5t89 -29t68 -56t27 -93.5q0 -53 -30 -90t-78 -60.5t-108.5 -34.5t-123.5 -11q-90 0 -173 18.5 t-139 42.5l-30 176l110 19q10 -47 62.5 -82t154.5 -35q76 0 117 14.5t41 42.5q0 27 -28.5 43.5t-96.5 16.5q-29 0 -52.5 1t-54.5 -1l-30 39l49 159q-172 14 -313.5 73.5t-242.5 158t-156.5 232.5t-55.5 296z" />
<glyph unicode="&#xe8;" horiz-adv-x="1863" d="M104 0v162h140q31 0 54.5 3t39.5 15.5t24.5 37t8.5 67.5v860q0 72 -24.5 99.5t-102.5 27.5h-140v162h1565l68 -525l-162 -18q-16 109 -48 178.5t-79 108.5t-109.5 53t-140.5 14h-532v-414h268q72 0 99.5 25t27.5 102v117h162v-676h-162v140q0 23 -3 42t-16.5 33.5 t-38 22.5t-67.5 8h-270v-461h491q100 0 174 13.5t126 58.5t87 130t60 230q41 -4 79.5 -8t79.5 -8l-61 -600h-1598zM581 1855v50h328l344 -301v-48h-227z" />
<glyph unicode="&#xe9;" horiz-adv-x="1863" d="M104 0v162h140q31 0 54.5 3t39.5 15.5t24.5 37t8.5 67.5v860q0 72 -24.5 99.5t-102.5 27.5h-140v162h1565l68 -525l-162 -18q-16 109 -48 178.5t-79 108.5t-109.5 53t-140.5 14h-532v-414h268q72 0 99.5 25t27.5 102v117h162v-676h-162v140q0 23 -3 42t-16.5 33.5 t-38 22.5t-67.5 8h-270v-461h491q100 0 174 13.5t126 58.5t87 130t60 230q41 -4 79.5 -8t79.5 -8l-61 -600h-1598zM581 1556v48l342 301h330v-50l-444 -299h-228z" />
<glyph unicode="&#xea;" horiz-adv-x="1863" d="M104 0v162h140q31 0 54.5 3t39.5 15.5t24.5 37t8.5 67.5v860q0 72 -24.5 99.5t-102.5 27.5h-140v162h1565l68 -525l-162 -18q-16 109 -48 178.5t-79 108.5t-109.5 53t-140.5 14h-532v-414h268q72 0 99.5 25t27.5 102v117h162v-676h-162v140q0 23 -3 42t-16.5 33.5 t-38 22.5t-67.5 8h-270v-461h491q100 0 174 13.5t126 58.5t87 130t60 230q41 -4 79.5 -8t79.5 -8l-61 -600h-1598zM538 1556v48l252 301h301l252 -301v-48h-190l-213 175l-211 -175h-191z" />
<glyph unicode="&#xeb;" horiz-adv-x="1863" d="M104 0v162h140q31 0 54.5 3t39.5 15.5t24.5 37t8.5 67.5v860q0 72 -24.5 99.5t-102.5 27.5h-140v162h1565l68 -525l-162 -18q-16 109 -48 178.5t-79 108.5t-109.5 53t-140.5 14h-532v-414h268q72 0 99.5 25t27.5 102v117h162v-676h-162v140q0 23 -3 42t-16.5 33.5 t-38 22.5t-67.5 8h-270v-461h491q100 0 174 13.5t126 58.5t87 130t60 230q41 -4 79.5 -8t79.5 -8l-61 -600h-1598zM546 1737q0 66 46.5 111.5t113.5 45.5q72 0 118 -46t46 -111q0 -66 -46 -110t-118 -44q-68 0 -114 44t-46 110zM999 1737q0 66 46 111.5t114 45.5 q72 0 118 -46t46 -111q0 -66 -46.5 -110t-117.5 -44q-68 0 -114 44t-46 110z" />
<glyph unicode="&#xec;" horiz-adv-x="1038" d="M18 1855v50h328l344 -301v-48h-227zM104 0v162h160q23 0 42.5 3t33.5 15.5t22.5 37t8.5 67.5v860q0 78 -28 102.5t-99 24.5h-140v162h828v-162h-160q-47 0 -76.5 -20.5t-29.5 -104.5v-860q0 -72 24.5 -98.5t102.5 -26.5h139v-162h-828z" />
<glyph unicode="&#xed;" horiz-adv-x="1038" d="M104 0v162h160q23 0 42.5 3t33.5 15.5t22.5 37t8.5 67.5v860q0 78 -28 102.5t-99 24.5h-140v162h828v-162h-160q-47 0 -76.5 -20.5t-29.5 -104.5v-860q0 -72 24.5 -98.5t102.5 -26.5h139v-162h-828zM348 1556v48l342 301h330v-50l-444 -299h-228z" />
<glyph unicode="&#xee;" horiz-adv-x="1038" d="M104 0v162h160q23 0 42.5 3t33.5 15.5t22.5 37t8.5 67.5v860q0 78 -28 102.5t-99 24.5h-140v162h828v-162h-160q-47 0 -76.5 -20.5t-29.5 -104.5v-860q0 -72 24.5 -98.5t102.5 -26.5h139v-162h-828zM114 1556v48l252 301h301l252 -301v-48h-190l-213 175l-211 -175h-191z " />
<glyph unicode="&#xef;" horiz-adv-x="1038" d="M104 0v162h160q23 0 42.5 3t33.5 15.5t22.5 37t8.5 67.5v860q0 78 -28 102.5t-99 24.5h-140v162h828v-162h-160q-47 0 -76.5 -20.5t-29.5 -104.5v-860q0 -72 24.5 -98.5t102.5 -26.5h139v-162h-828zM129 1737q0 66 46.5 111.5t113.5 45.5q72 0 118 -46t46 -111 q0 -66 -46 -110t-118 -44q-68 0 -114 44t-46 110zM582 1737q0 66 46 111.5t114 45.5q72 0 118 -46t46 -111q0 -66 -46.5 -110t-117.5 -44q-68 0 -114 44t-46 110z" />
<glyph unicode="&#xf0;" horiz-adv-x="1976" d="M145 0v162h160q23 0 42.5 3t33.5 15.5t22.5 37t8.5 67.5v331h-267v199h267v330q0 72 -25 99.5t-102 27.5h-140v162h899q199 0 358 -46.5t269.5 -135.5t170 -221t59.5 -304q0 -164 -59.5 -297t-170 -229.5t-269.5 -148.5t-358 -52h-899zM707 184h213q145 0 267 30 t209 94.5t136 168t49 250.5q0 156 -50 256t-137 158.5t-207 82t-257 23.5h-223v-432h512v-199h-512v-432z" />
<glyph unicode="&#xf1;" horiz-adv-x="2220" d="M106 0v162h158q23 0 42.5 3t33.5 16.5t22.5 38t8.5 67.5v858q0 72 -24.5 99.5t-102.5 27.5h-138v162h580l977 -1004v715q0 72 -24.5 99.5t-102.5 27.5h-125v162h717v-162h-160q-23 0 -42 -3t-33.5 -16.5t-22.5 -38t-8 -67.5v-1147h-199l-1092 1122v-833q0 -72 25 -99.5 t102 -27.5h125v-162h-717zM699 1682.5q6 60.5 33.5 109.5t77.5 80t124 31q57 0 104.5 -22.5t90.5 -49.5t80.5 -49.5t76.5 -22.5q20 0 39 13.5t31 33t19 44t7 48.5h117q20 -55 13 -114.5t-35.5 -110.5t-78.5 -84t-118 -33q-57 0 -107.5 23t-95.5 49.5t-83 49t-70 22.5 q-23 0 -42.5 -14.5t-32.5 -35t-18.5 -44t-0.5 -43.5h-123q-14 59 -8 119.5z" />
<glyph unicode="&#xf2;" d="M76 717q0 170 63.5 308t179 235.5t275.5 150.5t352 53q193 0 352.5 -53t275.5 -150.5t179.5 -235.5t63.5 -308t-63.5 -308.5t-179.5 -235.5t-275.5 -150.5t-352.5 -53.5t-352.5 53.5t-275 150.5t-179 235.5t-63.5 308.5zM391 717q0 -139 44 -242.5t120 -173.5t176 -103.5 t215 -33.5q113 0 214.5 33.5t177 103.5t119.5 173.5t44 242.5t-44 242.5t-119.5 172t-177 102.5t-214.5 34q-115 0 -215 -34t-176 -102.5t-120 -172t-44 -242.5zM462 1855v50h328l344 -301v-48h-227z" />
<glyph unicode="&#xf3;" d="M76 717q0 170 63.5 308t179 235.5t275.5 150.5t352 53q193 0 352.5 -53t275.5 -150.5t179.5 -235.5t63.5 -308t-63.5 -308.5t-179.5 -235.5t-275.5 -150.5t-352.5 -53.5t-352.5 53.5t-275 150.5t-179 235.5t-63.5 308.5zM391 717q0 -139 44 -242.5t120 -173.5t176 -103.5 t215 -33.5q113 0 214.5 33.5t177 103.5t119.5 173.5t44 242.5t-44 242.5t-119.5 172t-177 102.5t-214.5 34q-115 0 -215 -34t-176 -102.5t-120 -172t-44 -242.5zM790 1556v48l342 301h330v-50l-444 -299h-228z" />
<glyph unicode="&#xf4;" d="M76 717q0 170 63.5 308t179 235.5t275.5 150.5t352 53q193 0 352.5 -53t275.5 -150.5t179.5 -235.5t63.5 -308t-63.5 -308.5t-179.5 -235.5t-275.5 -150.5t-352.5 -53.5t-352.5 53.5t-275 150.5t-179 235.5t-63.5 308.5zM391 717q0 -139 44 -242.5t120 -173.5t176 -103.5 t215 -33.5q113 0 214.5 33.5t177 103.5t119.5 173.5t44 242.5t-44 242.5t-119.5 172t-177 102.5t-214.5 34q-115 0 -215 -34t-176 -102.5t-120 -172t-44 -242.5zM542 1556v48l252 301h301l252 -301v-48h-190l-213 175l-211 -175h-191z" />
<glyph unicode="&#xf5;" d="M76 717q0 170 63.5 308t179 235.5t275.5 150.5t352 53q193 0 352.5 -53t275.5 -150.5t179.5 -235.5t63.5 -308t-63.5 -308.5t-179.5 -235.5t-275.5 -150.5t-352.5 -53.5t-352.5 53.5t-275 150.5t-179 235.5t-63.5 308.5zM391 717q0 -139 44 -242.5t120 -173.5t176 -103.5 t215 -33.5q113 0 214.5 33.5t177 103.5t119.5 173.5t44 242.5t-44 242.5t-119.5 172t-177 102.5t-214.5 34q-115 0 -215 -34t-176 -102.5t-120 -172t-44 -242.5zM535 1682.5q6 60.5 33.5 109.5t77.5 80t124 31q57 0 104.5 -22.5t90.5 -49.5t80.5 -49.5t76.5 -22.5 q20 0 39 13.5t31 33t19 44t7 48.5h117q20 -55 13 -114.5t-35.5 -110.5t-78.5 -84t-118 -33q-57 0 -107.5 23t-95.5 49.5t-83 49t-70 22.5q-23 0 -42.5 -14.5t-32.5 -35t-18.5 -44t-0.5 -43.5h-123q-14 59 -8 119.5z" />
<glyph unicode="&#xf6;" d="M76 717q0 170 63.5 308t179 235.5t275.5 150.5t352 53q193 0 352.5 -53t275.5 -150.5t179.5 -235.5t63.5 -308t-63.5 -308.5t-179.5 -235.5t-275.5 -150.5t-352.5 -53.5t-352.5 53.5t-275 150.5t-179 235.5t-63.5 308.5zM391 717q0 -139 44 -242.5t120 -173.5t176 -103.5 t215 -33.5q113 0 214.5 33.5t177 103.5t119.5 173.5t44 242.5t-44 242.5t-119.5 172t-177 102.5t-214.5 34q-115 0 -215 -34t-176 -102.5t-120 -172t-44 -242.5zM555 1737q0 66 46.5 111.5t113.5 45.5q72 0 118 -46t46 -111q0 -66 -46 -110t-118 -44q-68 0 -114 44t-46 110z M1008 1737q0 66 46 111.5t114 45.5q72 0 118 -46t46 -111q0 -66 -46.5 -110t-117.5 -44q-68 0 -114 44t-46 110z" />
<glyph unicode="&#xf7;" horiz-adv-x="1275" d="M104 616v199h1065v-199h-1065zM399 256q0 34 12.5 63t34.5 50.5t50.5 34t60.5 12.5q34 0 63 -12.5t50.5 -34t34.5 -50.5t13 -63q0 -32 -13 -60.5t-34.5 -51t-50.5 -34.5t-63 -12q-32 0 -60.5 12t-50.5 34.5t-34.5 51t-12.5 60.5zM399 877q0 34 12.5 63t34.5 50.5t50.5 34 t60.5 12.5q34 0 63 -12.5t50.5 -34t34.5 -50.5t13 -63q0 -32 -13 -60.5t-34.5 -50.5t-50.5 -34.5t-63 -12.5q-32 0 -60.5 12.5t-50.5 34.5t-34.5 50.5t-12.5 60.5z" />
<glyph unicode="&#xf8;" d="M76 717q0 170 63.5 308t179 235.5t275.5 150.5t352 53q137 0 258 -27.5t221 -78.5l160 168l139 -137l-137 -144q111 -98 170.5 -231t59.5 -297q0 -170 -63.5 -308.5t-179.5 -235.5t-275.5 -150.5t-352.5 -53.5q-137 0 -258 27t-221 78l-160 -166l-139 137l137 143 q-111 98 -170 230.5t-59 298.5zM391 717q0 -104 29 -186t82 -142l758 801q-137 78 -314 78q-115 0 -215 -34t-176 -102.5t-120 -172t-44 -242.5zM631 242q68 -41 147.5 -59.5t167.5 -18.5q113 0 214.5 33.5t177 103.5t119.5 173.5t44 242.5q0 104 -29.5 186t-80.5 141z" />
<glyph unicode="&#xf9;" horiz-adv-x="2082" d="M66 1276v158h806v-158h-133q-41 0 -64.5 -9.5t-36.5 -27.5t-17.5 -45t-6.5 -64v-507q0 -121 35 -206t98.5 -138.5t151.5 -79t193 -25.5q104 0 192 25.5t151.5 79t99.5 138.5t36 206v507q-2 37 -5 65t-14.5 46.5t-35 26.5t-62.5 8h-143v158h708v-158h-133 q-41 0 -64.5 -9.5t-34.5 -27.5t-14.5 -45t-3.5 -64v-522q0 -168 -48 -288.5t-139 -198.5t-224 -115t-301 -37q-170 0 -306.5 37t-232.5 115t-148.5 198.5t-52.5 288.5v522q-2 78 -26.5 112t-95.5 34h-129zM577 1855v50h328l344 -301v-48h-227z" />
<glyph unicode="&#xfa;" horiz-adv-x="2082" d="M66 1276v158h806v-158h-133q-41 0 -64.5 -9.5t-36.5 -27.5t-17.5 -45t-6.5 -64v-507q0 -121 35 -206t98.5 -138.5t151.5 -79t193 -25.5q104 0 192 25.5t151.5 79t99.5 138.5t36 206v507q-2 37 -5 65t-14.5 46.5t-35 26.5t-62.5 8h-143v158h708v-158h-133 q-41 0 -64.5 -9.5t-34.5 -27.5t-14.5 -45t-3.5 -64v-522q0 -168 -48 -288.5t-139 -198.5t-224 -115t-301 -37q-170 0 -306.5 37t-232.5 115t-148.5 198.5t-52.5 288.5v522q-2 78 -26.5 112t-95.5 34h-129zM913 1556v48l342 301h330v-50l-444 -299h-228z" />
<glyph unicode="&#xfb;" horiz-adv-x="2082" d="M66 1276v158h806v-158h-133q-41 0 -64.5 -9.5t-36.5 -27.5t-17.5 -45t-6.5 -64v-507q0 -121 35 -206t98.5 -138.5t151.5 -79t193 -25.5q104 0 192 25.5t151.5 79t99.5 138.5t36 206v507q-2 37 -5 65t-14.5 46.5t-35 26.5t-62.5 8h-143v158h708v-158h-133 q-41 0 -64.5 -9.5t-34.5 -27.5t-14.5 -45t-3.5 -64v-522q0 -168 -48 -288.5t-139 -198.5t-224 -115t-301 -37q-170 0 -306.5 37t-232.5 115t-148.5 198.5t-52.5 288.5v522q-2 78 -26.5 112t-95.5 34h-129zM688 1556v48l252 301h301l252 -301v-48h-190l-213 175l-211 -175 h-191z" />
<glyph unicode="&#xfc;" horiz-adv-x="2082" d="M66 1276v158h806v-158h-133q-41 0 -64.5 -9.5t-36.5 -27.5t-17.5 -45t-6.5 -64v-507q0 -121 35 -206t98.5 -138.5t151.5 -79t193 -25.5q104 0 192 25.5t151.5 79t99.5 138.5t36 206v507q-2 37 -5 65t-14.5 46.5t-35 26.5t-62.5 8h-143v158h708v-158h-133 q-41 0 -64.5 -9.5t-34.5 -27.5t-14.5 -45t-3.5 -64v-522q0 -168 -48 -288.5t-139 -198.5t-224 -115t-301 -37q-170 0 -306.5 37t-232.5 115t-148.5 198.5t-52.5 288.5v522q-2 78 -26.5 112t-95.5 34h-129zM698 1737q0 66 46.5 111.5t113.5 45.5q72 0 118 -46t46 -111 q0 -66 -46 -110t-118 -44q-68 0 -114 44t-46 110zM1151 1737q0 66 46 111.5t114 45.5q72 0 118 -46t46 -111q0 -66 -46.5 -110t-117.5 -44q-68 0 -114 44t-46 110z" />
<glyph unicode="&#xfd;" horiz-adv-x="1939" d="M23 1272v162h866v-162h-152q-59 0 -62 -34t27 -71l336 -419l340 440q25 33 18 58.5t-59 25.5h-135v162h713v-162h-76q-59 0 -117.5 -25.5t-101.5 -79.5l-481 -596v-284q0 -72 24.5 -98.5t102.5 -26.5h139v-162h-825v162h157q23 0 42.5 3t33.5 15.5t22.5 37t8.5 67.5v278 l-516 604q-41 47 -90.5 76t-124.5 29h-90zM829 1556v48l342 301h330v-50l-444 -299h-228z" />
<glyph unicode="&#xfe;" horiz-adv-x="1685" d="M106 0v162h158q23 0 42.5 3t33.5 16.5t22.5 38t8.5 67.5v860q0 72 -24.5 98.5t-102.5 26.5h-138v162h1041v-162h-309q-55 0 -89 -8.5t-52.5 -29t-24.5 -53t-6 -81.5h495q106 0 193.5 -25.5t149 -75t95 -120t33.5 -160.5t-33.5 -162t-95 -121t-148.5 -75.5t-194 -26.5 h-495q0 -41 6 -74t24.5 -54.5t52 -32.5t89.5 -11h309v-162h-1041zM666 520h403q133 0 188.5 53.5t55.5 143.5t-62.5 143t-179.5 53h-405v-393z" />
<glyph unicode="&#xff;" horiz-adv-x="1939" d="M23 1272v162h866v-162h-152q-59 0 -62 -34t27 -71l336 -419l340 440q25 33 18 58.5t-59 25.5h-135v162h713v-162h-76q-59 0 -117.5 -25.5t-101.5 -79.5l-481 -596v-284q0 -72 24.5 -98.5t102.5 -26.5h139v-162h-825v162h157q23 0 42.5 3t33.5 15.5t22.5 37t8.5 67.5v278 l-516 604q-41 47 -90.5 76t-124.5 29h-90zM655 1737q0 66 46.5 111.5t113.5 45.5q72 0 118 -46t46 -111q0 -66 -46 -110t-118 -44q-68 0 -114 44t-46 110zM1108 1737q0 66 46 111.5t114 45.5q72 0 118 -46t46 -111q0 -66 -46.5 -110t-117.5 -44q-68 0 -114 44t-46 110z" />
<glyph unicode="&#x152;" horiz-adv-x="2805" d="M82 727q0 182 68.5 318.5t186.5 227.5t277.5 136t341.5 45q61 0 125 -5t129 -15h1397l55 -512q-41 -4 -81.5 -8.5t-81.5 -8.5q-18 117 -55.5 184.5t-93.5 102.5t-132 44t-170 9h-444v-414h268q72 0 99.5 25t27.5 102v105h162v-649h-162v125q0 23 -3 42t-16.5 33.5 t-38 22.5t-67.5 8h-270v-461h491q100 0 174 13.5t126 58.5t87 130t60 230q41 -4 79.5 -8t79.5 -8q-16 -152 -30.5 -301t-30.5 -299h-1436q-66 -10 -129 -15t-123 -5q-195 0 -355.5 50t-275 146t-177 234.5t-62.5 316.5zM395 727q0 -141 48.5 -247.5t130 -176.5t190 -104.5 t227.5 -34.5q76 0 135.5 7t99.5 27.5t61.5 59.5t21.5 100v729q0 61 -23.5 97.5t-65.5 54.5t-97.5 23.5t-118.5 5.5q-111 0 -219.5 -31t-195.5 -96.5t-140.5 -168t-53.5 -245.5z" />
<glyph unicode="&#x153;" horiz-adv-x="2805" d="M82 727q0 182 68.5 318.5t186.5 227.5t277.5 136t341.5 45q61 0 125 -5t129 -15h1397l55 -512q-41 -4 -81.5 -8.5t-81.5 -8.5q-18 117 -55.5 184.5t-93.5 102.5t-132 44t-170 9h-444v-414h268q72 0 99.5 25t27.5 102v105h162v-649h-162v125q0 23 -3 42t-16.5 33.5 t-38 22.5t-67.5 8h-270v-461h491q100 0 174 13.5t126 58.5t87 130t60 230q41 -4 79.5 -8t79.5 -8q-16 -152 -30.5 -301t-30.5 -299h-1436q-66 -10 -129 -15t-123 -5q-195 0 -355.5 50t-275 146t-177 234.5t-62.5 316.5zM395 727q0 -141 48.5 -247.5t130 -176.5t190 -104.5 t227.5 -34.5q76 0 135.5 7t99.5 27.5t61.5 59.5t21.5 100v729q0 61 -23.5 97.5t-65.5 54.5t-97.5 23.5t-118.5 5.5q-111 0 -219.5 -31t-195.5 -96.5t-140.5 -168t-53.5 -245.5z" />
<glyph unicode="&#x178;" horiz-adv-x="1939" d="M23 1272v162h866v-162h-152q-59 0 -62 -34t27 -71l336 -419l340 440q25 33 18 58.5t-59 25.5h-135v162h713v-162h-76q-59 0 -117.5 -25.5t-101.5 -79.5l-481 -596v-284q0 -72 24.5 -98.5t102.5 -26.5h139v-162h-825v162h157q23 0 42.5 3t33.5 15.5t22.5 37t8.5 67.5v278 l-516 604q-41 47 -90.5 76t-124.5 29h-90zM655 1737q0 66 46.5 111.5t113.5 45.5q72 0 118 -46t46 -111q0 -66 -46 -110t-118 -44q-68 0 -114 44t-46 110zM1108 1737q0 66 46 111.5t114 45.5q72 0 118 -46t46 -111q0 -66 -46.5 -110t-117.5 -44q-68 0 -114 44t-46 110z" />
<glyph unicode="&#x2c6;" horiz-adv-x="1009" d="M102 1556v48l252 301h301l252 -301v-48h-190l-213 175l-211 -175h-191z" />
<glyph unicode="&#x2dc;" horiz-adv-x="1026" d="M105 1682.5q6 60.5 33.5 109.5t77.5 80t124 31q57 0 104.5 -22.5t90.5 -49.5t80.5 -49.5t76.5 -22.5q20 0 39 13.5t31 33t19 44t7 48.5h117q20 -55 13 -114.5t-35.5 -110.5t-78.5 -84t-118 -33q-57 0 -107.5 23t-95.5 49.5t-83 49t-70 22.5q-23 0 -42.5 -14.5t-32.5 -35 t-18.5 -44t-0.5 -43.5h-123q-14 59 -8 119.5z" />
<glyph unicode="&#x2000;" horiz-adv-x="952" />
<glyph unicode="&#x2001;" horiz-adv-x="1905" />
<glyph unicode="&#x2002;" horiz-adv-x="952" />
<glyph unicode="&#x2003;" horiz-adv-x="1905" />
<glyph unicode="&#x2004;" horiz-adv-x="635" />
<glyph unicode="&#x2005;" horiz-adv-x="476" />
<glyph unicode="&#x2006;" horiz-adv-x="317" />
<glyph unicode="&#x2007;" horiz-adv-x="317" />
<glyph unicode="&#x2008;" horiz-adv-x="238" />
<glyph unicode="&#x2009;" horiz-adv-x="381" />
<glyph unicode="&#x200a;" horiz-adv-x="105" />
<glyph unicode="&#x2010;" horiz-adv-x="913" d="M102 618v197h709v-197h-709z" />
<glyph unicode="&#x2011;" horiz-adv-x="913" d="M102 618v197h709v-197h-709z" />
<glyph unicode="&#x2012;" horiz-adv-x="913" d="M102 618v197h709v-197h-709z" />
<glyph unicode="&#x2013;" horiz-adv-x="1269" d="M102 618v197h1065v-197h-1065z" />
<glyph unicode="&#x2014;" horiz-adv-x="2293" d="M102 618v197h2089v-197h-2089z" />
<glyph unicode="&#x2018;" horiz-adv-x="888" d="M221 969q0 94 29 173t78 142.5t115.5 111.5t144.5 79l63 -121q-37 -16 -88 -46t-95 -75t-73.5 -102.5t-25.5 -128.5q6 47 46 75.5t75 28.5q78 0 127 -55t49 -131q0 -84 -59.5 -145.5t-157.5 -61.5q-92 0 -160 66.5t-68 189.5z" />
<glyph unicode="&#x2019;" horiz-adv-x="888" d="M221 1249q0 84 59.5 145.5t157.5 61.5q92 0 160 -66.5t68 -189.5q0 -94 -29 -173t-78 -142.5t-115.5 -111.5t-144.5 -79l-63 121q37 16 88 46t95 75t73.5 102.5t25.5 128.5q-6 -47 -46 -75.5t-75 -28.5q-78 0 -127 55t-49 131z" />
<glyph unicode="&#x201a;" horiz-adv-x="888" d="M221 186q0 84 59.5 145.5t157.5 61.5q92 0 160 -66.5t68 -189.5q0 -94 -29 -173t-78 -142.5t-115.5 -111.5t-144.5 -79l-63 121q37 16 88 46t95 75t73.5 102.5t25.5 128.5q-6 -47 -46 -75.5t-75 -28.5q-78 0 -127 55t-49 131z" />
<glyph unicode="&#x201c;" horiz-adv-x="1464" d="M221 969q0 94 29 173t78 142.5t115.5 111.5t144.5 79l63 -121q-37 -16 -88 -46t-95 -75t-73.5 -102.5t-25.5 -128.5q6 47 46 75.5t75 28.5q78 0 127 -55t49 -131q0 -84 -59.5 -145.5t-157.5 -61.5q-92 0 -160 66.5t-68 189.5zM798 969q0 94 29 173t78 142.5t115.5 111.5 t144.5 79l63 -121q-37 -16 -88 -46t-95 -75t-73.5 -102.5t-25.5 -128.5q6 47 46 75.5t75 28.5q78 0 127 -55t49 -131q0 -84 -59.5 -145.5t-157.5 -61.5q-92 0 -160 66.5t-68 189.5z" />
<glyph unicode="&#x201d;" horiz-adv-x="1464" d="M221 1249q0 84 59.5 145.5t157.5 61.5q92 0 160 -66.5t68 -189.5q0 -94 -29 -173t-78 -142.5t-115.5 -111.5t-144.5 -79l-63 121q37 16 88 46t95 75t73.5 102.5t25.5 128.5q-6 -47 -46 -75.5t-75 -28.5q-78 0 -127 55t-49 131zM796 1249q0 84 59.5 145.5t157.5 61.5 q92 0 160 -66.5t68 -189.5q0 -94 -29 -173t-78 -142.5t-115.5 -111.5t-144.5 -79l-63 121q37 16 88 46t95 75t73.5 102.5t25.5 128.5q-6 -47 -46 -75.5t-75 -28.5q-78 0 -127 55t-49 131z" />
<glyph unicode="&#x201e;" horiz-adv-x="1464" d="M221 186q0 84 59.5 145.5t157.5 61.5q92 0 160 -66.5t68 -189.5q0 -94 -29 -173t-78 -142.5t-115.5 -111.5t-144.5 -79l-63 121q37 16 88 46t95 75t73.5 102.5t25.5 128.5q-6 -47 -46 -75.5t-75 -28.5q-78 0 -127 55t-49 131zM796 186q0 84 59.5 145.5t157.5 61.5 q92 0 160 -66.5t68 -189.5q0 -94 -29 -173t-78 -142.5t-115.5 -111.5t-144.5 -79l-63 121q37 16 88 46t95 75t73.5 102.5t25.5 128.5q-6 -47 -46 -75.5t-75 -28.5q-78 0 -127 55t-49 131z" />
<glyph unicode="&#x2022;" horiz-adv-x="1042" d="M215 727q0 63 24.5 120.5t65.5 98.5t96.5 65.5t116.5 24.5q63 0 119.5 -24.5t98.5 -65.5t66.5 -98t24.5 -121q0 -61 -24.5 -116.5t-66.5 -96.5t-98 -65.5t-120 -24.5q-61 0 -116.5 24.5t-96.5 65.5t-65.5 96.5t-24.5 116.5z" />
<glyph unicode="&#x2026;" horiz-adv-x="2500" d="M221 180q0 45 16.5 84t46 67.5t67.5 45t81 16.5q45 0 84 -16.5t67.5 -45t46 -67.5t17.5 -84q0 -43 -17.5 -81t-46 -67.5t-67.5 -46t-84 -16.5q-43 0 -81 16.5t-67.5 46t-46 67.5t-16.5 81zM1036 180q0 45 16.5 84t46 67.5t67.5 45t81 16.5q45 0 84 -16.5t67.5 -45 t46 -67.5t17.5 -84q0 -43 -17.5 -81t-46 -67.5t-67.5 -46t-84 -16.5q-43 0 -81 16.5t-67.5 46t-46 67.5t-16.5 81zM1851 180q0 45 16.5 84t46 67.5t67.5 45t81 16.5q45 0 84 -16.5t67.5 -45t46 -67.5t17.5 -84q0 -43 -17.5 -81t-46 -67.5t-67.5 -46t-84 -16.5 q-43 0 -81 16.5t-67.5 46t-46 67.5t-16.5 81z" />
<glyph unicode="&#x202f;" horiz-adv-x="381" />
<glyph unicode="&#x2039;" horiz-adv-x="983" d="M139 717l379 450h246v-57l-322 -393l322 -393v-58h-246z" />
<glyph unicode="&#x203a;" horiz-adv-x="983" d="M219 267v57l322 393l-322 393v58h246l379 -451l-379 -450h-246z" />
<glyph unicode="&#x205f;" horiz-adv-x="476" />
<glyph unicode="&#x20ac;" horiz-adv-x="1867" d="M2 457v178h141q-4 18 -4 38.5v43.5v40.5t4 41.5h-141v178h184q45 119 127 210t187.5 152.5t227.5 93t245 31.5q119 0 206 -19.5t151.5 -44t108.5 -44t74 -19.5q16 0 22.5 12.5t8.5 29t0 35t-2 30.5h154q16 -137 32.5 -272.5t32.5 -270.5l-159 -22q-29 90 -84.5 161.5 t-131 121.5t-167 77t-189.5 27q-174 0 -311 -77t-207 -212h760v-178h-819q-4 -20 -4 -40v-40q0 -45 6 -84h817v-178h-760q70 -137 207 -213t311 -76q98 0 189.5 26.5t167 77t131 121t84.5 160.5l159 -21q-16 -137 -32.5 -272t-32.5 -270h-154q2 16 3 35.5t0 35t-8 25.5 t-24 10q-31 0 -74.5 -19.5t-108 -43t-151.5 -43t-206 -19.5q-123 0 -245 31t-227.5 91.5t-187.5 151.5t-127 212h-184z" />
<glyph unicode="&#x2122;" horiz-adv-x="2451" d="M55 1090l41 344h865l40 -304l-122 -16q-10 68 -24.5 104.5t-35 54t-48.5 20.5t-60 3h-80v-415q0 -41 12 -58.5t57 -17.5h86v-115h-516v115h97q27 0 43 13t16 61v417h-82q-35 0 -61.5 -8t-47 -31.5t-35 -67.5t-24.5 -116zM1067 690v115h88q27 0 44.5 13t17.5 61v364 q0 41 -13.5 58.5t-60.5 17.5h-76v115h416l227 -430l229 430h408v-115h-88q-29 0 -44 -13.5t-15 -60.5v-364q0 -41 13 -58.5t58 -17.5h76v-115h-492v115h78q29 0 45.5 13t16.5 61v340l-275 -529h-86l-266 522v-331q0 -41 13.5 -58.5t58.5 -17.5h55v-115h-428z" />
<glyph unicode="&#x25fc;" horiz-adv-x="1433" d="M0 0v1434h1434v-1434h-1434z" />
</font>
</defs>
</svg>
