<?xml version="1.0" standalone="no"?>
<!DOCTYPE svg PUBLIC "-//W3C//DTD SVG 1.1//EN" "http://www.w3.org/Graphics/SVG/1.1/DTD/svg11.dtd" >
<svg xmlns="http://www.w3.org/2000/svg">
<metadata></metadata>
<defs>
<font id="columbia_titlingstandard" horiz-adv-x="1892" >
<font-face units-per-em="2048" ascent="1567" descent="-481" />
<missing-glyph horiz-adv-x="819" />
<glyph horiz-adv-x="0" />
<glyph horiz-adv-x="682" />
<glyph unicode=" "  horiz-adv-x="819" />
<glyph unicode="&#x09;" horiz-adv-x="819" />
<glyph unicode="&#xa0;" horiz-adv-x="819" />
<glyph unicode="!" horiz-adv-x="937" d="M283 154q0 39 14 72.5t38.5 59t58.5 40t73 14.5q80 0 133 -54.5t53 -131.5q0 -78 -53 -131.5t-133 -53.5q-78 0 -131 53.5t-53 131.5zM330 1374v60h274v-60l-82 -891h-110z" />
<glyph unicode="&#x22;" horiz-adv-x="1075" d="M170 1354v80h266v-80l-69 -602h-127zM637 1354v80h266v-80l-69 -602h-127z" />
<glyph unicode="#" horiz-adv-x="1775" d="M68 348v197h374l142 383h-318v196h381q29 78 56.5 155t56.5 155h160q-29 -78 -55.5 -155t-55.5 -155h426l115 310h159q-29 -78 -55.5 -155t-54.5 -155h307v-196h-373q-35 -96 -69.5 -191.5t-69.5 -191.5h313v-197h-377l-124 -348h-166q33 86 64.5 173t62.5 175h-424 q-33 -88 -63.5 -175t-63.5 -173h-164q31 86 63.5 173t63.5 175h-311zM606 545h424l141 383h-426q-35 -96 -69.5 -191.5t-69.5 -191.5z" />
<glyph unicode="$" horiz-adv-x="1757" d="M117 559l110 14q39 -119 137.5 -218t239.5 -160l158 430q-115 16 -221.5 42.5t-187.5 72.5t-129 118t-48 178q0 104 49 184t135 134.5t202 82t251 27.5q66 0 124 -8t110 -20l81 229l146 -49l-80 -223q70 -27 115 -49.5t67 -22.5q16 0 23.5 10t8.5 27.5t-1 39t-4 46.5h129 l65 -512l-114 -17q-29 115 -117 202t-219 138l-160 -442q109 -16 224.5 -39.5t211 -71t156.5 -123t61 -194.5q0 -104 -46 -182t-131 -131.5t-205.5 -80t-270.5 -26.5q-82 0 -152.5 10.5t-129.5 26.5l-84 -233l-150 45l84 235q-82 35 -132 62.5t-73 27.5q-16 0 -21 -12 t-5 -32.5t3 -47.5t5 -57h-131zM377 1065q0 -61 40 -101t104.5 -65t146.5 -38t163 -23l168 456q-41 10 -83 15.5t-85 5.5q-219 0 -336.5 -69.5t-117.5 -180.5zM752 150q49 -12 101.5 -19.5t107.5 -7.5q229 0 355 63.5t126 161.5q0 68 -44 111t-117 71.5t-168 44t-195 27.5z " />
<glyph unicode="%" horiz-adv-x="2115" d="M68 1061q0 82 33.5 152.5t95 121.5t144.5 80t181 29t182 -29t144.5 -80t94.5 -121.5t34 -152.5t-34 -152.5t-94.5 -122t-144 -80t-182.5 -28.5q-98 0 -181 28.5t-144.5 80t-95 122t-33.5 152.5zM256 1061q0 -49 20.5 -95t56.5 -82t85 -57.5t104 -21.5q57 0 106.5 19.5 t85.5 53t56.5 81t20.5 102.5t-20.5 102t-56.5 80t-85 51.5t-107 18.5q-55 0 -104 -18.5t-85 -51.5t-56.5 -80t-20.5 -102zM270 68l1459 1396l94 -96l-1458 -1399zM1137 375q0 82 33.5 152.5t95 121.5t144.5 80t181 29t182.5 -29t144.5 -80t94 -121.5t34 -152.5t-34 -152.5 t-94 -122t-144 -80t-183 -28.5q-98 0 -181 28.5t-144.5 80t-95 122t-33.5 152.5zM1325 375q0 -49 20.5 -95.5t56.5 -82t85 -58t104 -22.5q57 0 106.5 19.5t85.5 53t56.5 81.5t20.5 104q0 55 -20.5 102t-56.5 80t-85 51.5t-107 18.5q-57 0 -105 -18.5t-84 -51.5t-56.5 -80 t-20.5 -102z" />
<glyph unicode="&#x26;" horiz-adv-x="2215" d="M78 410q0 129 59.5 215t148.5 139t192.5 78.5t191.5 34.5q-25 94 -20 198.5t45 190.5t118 142t199 56q74 0 132 -23.5t98 -64.5t61.5 -97t21.5 -122q0 -84 -35 -146.5t-90 -106.5t-124.5 -71.5t-137.5 -39.5q20 -61 65.5 -134t98.5 -141.5t108.5 -123t98.5 -79.5 q55 37 105 89.5t91 105.5t69 101t38 73q14 35 5 65.5t-61 30.5h-180v129h729v-129h-149q-41 0 -88 -21.5t-88 -99.5q-51 -100 -133 -217.5t-193 -212.5q59 -35 125 -59.5t166 -24.5q109 0 200 50.5t138 121.5l96 -77q-37 -68 -89 -115t-115.5 -78t-135.5 -44t-145 -13 q-76 0 -141.5 11t-118 27.5t-92 37t-64.5 36.5q-117 -68 -263.5 -100.5t-283.5 -32.5q-133 0 -252 24.5t-208 79t-141 137.5t-52 200zM307 424q0 -70 33 -126t93.5 -95t143 -60.5t183.5 -21.5q29 0 70.5 4t90 14.5t98.5 27.5t97 42q-125 106 -225 232t-166 298 q-92 -4 -169 -27.5t-132 -64.5t-86 -97t-31 -126zM854 1124q0 -35 3 -91t26 -113q45 6 95 21t92 43t69.5 71t27.5 104q0 68 -40 108t-105 40q-43 0 -73.5 -20.5t-52.5 -49.5t-32 -60.5t-10 -52.5z" />
<glyph unicode="'" horiz-adv-x="606" d="M170 1354v80h266v-80l-69 -602h-127z" />
<glyph unicode="(" horiz-adv-x="1013" d="M119 717q0 164 46 304t140 243.5t237.5 162t338.5 58.5v-133q-127 0 -227.5 -43t-170 -125t-106.5 -199.5t-37 -267.5q0 -311 142.5 -474t398.5 -163v-131q-195 0 -338.5 58.5t-237.5 160.5t-140 243.5t-46 305.5z" />
<glyph unicode=")" horiz-adv-x="1013" d="M133 -51v133q127 0 227.5 43t170 125t106.5 199.5t37 267.5q0 311 -142.5 474t-398.5 163v131q195 0 338.5 -58.5t237.5 -160.5t140 -243.5t46 -305.5t-46 -304t-140 -243.5t-237.5 -162t-338.5 -58.5z" />
<glyph unicode="*" horiz-adv-x="1218" d="M109 989l69 209l43 -14l342 -178l-63 380v48h219v-48l-64 -380l342 178l45 14l66 -209l-45 -14l-379 -55l274 -269l27 -39l-178 -129l-27 39q0 2 -12 29t-31.5 63.5t-41 80.5t-40 81t-32 61.5t-15.5 26.5l-170 -342l-28 -39l-177 129l29 39l273 269l-381 55z" />
<glyph unicode="+" horiz-adv-x="1284" d="M109 641v152h458v456h150v-456h457v-152h-457v-457h-150v457h-458z" />
<glyph unicode="," horiz-adv-x="866" d="M240 160q0 72 51 126t135 54t142.5 -57.5t58.5 -167.5q0 -166 -87 -286t-235 -196l-65 103q33 14 80 47t89 78t67.5 103.5t19.5 125.5q-6 -43 -39 -68.5t-66 -25.5q-70 0 -110.5 48t-40.5 116z" />
<glyph unicode="-" horiz-adv-x="913" d="M102 641v152h709v-152h-709z" />
<glyph unicode="." horiz-adv-x="847" d="M240 154q0 39 14 72.5t38.5 59t58.5 40t73 14.5q78 0 131 -54.5t53 -131.5q0 -39 -14 -73t-39 -58.5t-58.5 -39t-72.5 -14.5q-78 0 -131 53.5t-53 131.5z" />
<glyph unicode="/" horiz-adv-x="1288" d="M27 25l1116 1474l119 -88l-1115 -1477z" />
<glyph unicode="0" d="M78 717q0 170 65.5 308t181 235.5t274.5 150.5t347 53t347 -53t274.5 -150.5t181.5 -235.5t66 -308t-66 -308.5t-181.5 -235.5t-274 -150.5t-347.5 -53.5q-188 0 -347 53.5t-274.5 150.5t-181 235.5t-65.5 308.5zM303 717q0 -147 52.5 -258t140.5 -185.5t204.5 -112.5 t245.5 -38t246 38t205 112.5t140 185t52 258.5q0 147 -52 257.5t-140 184.5t-205 112t-246 38t-245.5 -38t-204.5 -112t-140.5 -184.5t-52.5 -257.5z" />
<glyph unicode="1" horiz-adv-x="1263" d="M143 0v127h324q25 0 47.5 2t37.5 14.5t24.5 36t9.5 66.5v745q0 41 -7.5 64.5t-22.5 36t-39.5 16.5t-57.5 4h-305v127h143q172 0 258 54.5t117 166.5h129v-1212q0 -37 5 -59.5t19.5 -37t41 -19.5t67.5 -5h248v-127h-1039z" />
<glyph unicode="2" horiz-adv-x="1810" d="M178 920l78 524h113q2 -14 3 -32.5t4 -35t10 -28t24 -11.5q25 0 70.5 19.5t110 44t146.5 44t178 19.5q139 0 271.5 -26.5t234 -80.5t163 -137t61.5 -196q0 -127 -64.5 -203t-169 -119t-237 -61t-265.5 -33q-96 -10 -203.5 -29.5t-194.5 -65.5t-139.5 -125t-35.5 -208h758 q109 0 185.5 5t129.5 39t88 106.5t59 208.5l123 -15l-80 -524h-1419q-88 338 62.5 517t539.5 224q90 10 199 24.5t203 43.5t157.5 79t63.5 134q0 72 -41 125t-110.5 89t-163 54.5t-195.5 18.5q-123 0 -225.5 -32t-178 -86t-124 -129t-62.5 -161q-33 4 -64.5 8t-62.5 11z" />
<glyph unicode="3" horiz-adv-x="1810" d="M98 201l92 129q53 -33 116 -69t142.5 -66.5t184 -50t239.5 -19.5q111 0 214.5 16.5t184.5 50t129 84t48 119.5q0 80 -39 128t-113.5 74t-183 34t-246.5 8h-383v147h383q264 0 384 58.5t120 175.5q0 59 -30.5 112.5t-93 93.5t-158 62.5t-224.5 22.5q-98 0 -191 -24.5 t-171 -71t-133.5 -113t-75.5 -150.5l-125 23l72 469h110q-2 -47 10.5 -79t30.5 -32q23 0 40.5 12.5t64.5 34.5q90 41 197.5 62.5t197.5 21.5q156 0 285 -28.5t221 -84t143 -137t51 -186.5q0 -57 -23.5 -109.5t-61.5 -94.5t-88 -70.5t-101 -36.5q57 0 122.5 -18.5t122 -58.5 t93.5 -101.5t37 -147.5q0 -96 -53.5 -174t-156 -133t-252 -85t-341.5 -30q-139 0 -250 15.5t-205 45t-176 72.5t-160 99z" />
<glyph unicode="4" d="M55 342v127l1180 989h139v-973h131q43 0 72 7.5t48.5 25t33.5 47t31 74.5l100 -23l-70 -274h-346v-115q0 -37 5 -56t21.5 -29.5t45.5 -12.5t76 -2h139v-127h-875v127h248q31 0 54.5 2t40 11.5t24.5 29.5t8 55v117h-1106zM307 485h854v721z" />
<glyph unicode="5" horiz-adv-x="1783" d="M86 207l88 127q49 -37 120 -74t156 -67.5t181 -49t196 -18.5q111 0 213.5 21.5t180 63.5t125 106.5t47.5 150.5q0 82 -40 146.5t-111 107.5t-169 65.5t-215 22.5q-76 0 -153.5 -15.5t-151.5 -44t-138.5 -71.5t-115.5 -98l-121 22l103 832h1079q35 0 61.5 10t34.5 47 l94 -16l-43 -224l-1106 -2l-51 -465q66 51 140.5 85t148.5 53.5t144.5 26.5t127.5 7q170 0 304.5 -34.5t226.5 -99t141 -153.5t49 -198q0 -129 -60.5 -223t-166 -155.5t-246.5 -92.5t-303 -31q-86 0 -183.5 10.5t-197.5 37t-198.5 72.5t-190.5 118z" />
<glyph unicode="6" horiz-adv-x="1703" d="M78 707q0 59 15.5 139t53 164t104 165.5t167 146t240 103.5t325.5 39q129 0 289 -29.5t325 -103.5l-61 -153q-57 29 -127 53t-143.5 42.5t-149.5 28t-145 9.5q-156 -2 -282 -52.5t-212 -135.5t-130 -199.5t-38 -243.5q49 57 117 104t148.5 80t171 50.5t184.5 17.5 q131 0 258 -24.5t227.5 -78t160.5 -140.5t60 -212q0 -127 -58 -221t-161.5 -158.5t-241.5 -96.5t-298 -32q-154 0 -298.5 41t-255 130t-178 228.5t-67.5 338.5zM338 481q0 -45 35 -106.5t104.5 -117.5t170 -95t233.5 -39q113 0 210 24.5t168.5 68.5t111.5 107.5t40 141.5 q0 145 -140.5 228t-389.5 83q-111 0 -210.5 -32.5t-173 -79t-116.5 -97.5t-43 -86z" />
<glyph unicode="7" horiz-adv-x="1716" d="M102 942l84 533l105 -11q0 -23 11 -26.5t34 -3.5h1309v-129q-70 -41 -152 -94.5t-165 -127t-159.5 -172t-136 -229.5t-95.5 -299t-36 -383h-262q2 131 35 299t112.5 341t217 337t348.5 285h-774q-80 0 -137.5 -9.5t-97.5 -43t-68.5 -100.5t-51.5 -183z" />
<glyph unicode="8" horiz-adv-x="1777" d="M88 406q0 74 25.5 133t69.5 103t101.5 73.5t123.5 44.5q-29 8 -66 31.5t-70.5 59.5t-57.5 84t-24 105q0 100 54.5 179t147.5 133.5t221 83t276 28.5q147 0 274 -28.5t221.5 -84t148.5 -136t54 -185.5q0 -57 -18.5 -105t-48 -85t-65.5 -63.5t-69 -43.5q57 -14 112.5 -40.5 t97.5 -66.5t68 -97.5t26 -133.5q0 -102 -57.5 -182t-163 -134t-253 -82t-327.5 -28q-170 0 -316.5 28t-254 82t-169 136t-61.5 191zM289 416q0 -61 41 -115.5t117.5 -94.5t186 -62.5t245.5 -22.5q135 0 244.5 21.5t188.5 57.5t121 84t42 101q0 66 -37 108t-99.5 69.5 t-146.5 43t-179 26.5t-195.5 21.5t-196.5 26.5q-70 -2 -130.5 -23.5t-105.5 -56.5t-70.5 -82t-25.5 -102zM401 1057q0 -53 36 -90t97.5 -60.5t142.5 -39t171 -26t184 -18.5t182 -18q72 31 123.5 89t51.5 132q0 125 -124 206t-366 81q-121 0 -214 -20.5t-155.5 -55.5 t-95.5 -82t-33 -98z" />
<glyph unicode="9" horiz-adv-x="1703" d="M68 956q0 125 58 220.5t161.5 160t241.5 96t298 31.5q154 0 298.5 -41t256 -130t178 -228t66.5 -338q0 -59 -15.5 -139t-53 -164t-104.5 -166t-167 -146.5t-239.5 -103.5t-325.5 -39q-129 0 -289 30t-326 103l62 154q57 -29 127 -53.5t143.5 -43t149.5 -27.5t145 -9 q156 2 282 52t212 135t130 200t38 244q-49 -59 -117 -105.5t-148.5 -79t-171 -50t-184.5 -17.5q-133 0 -259 24.5t-226.5 77.5t-160.5 140t-60 212zM293 969q0 -145 140 -228.5t390 -83.5q111 0 210.5 33t174 79t117.5 97t43 86q0 45 -36 106.5t-104.5 118t-171 95.5 t-233.5 39q-115 0 -211 -24.5t-167.5 -68.5t-111.5 -107.5t-40 -141.5z" />
<glyph unicode=":" horiz-adv-x="847" d="M240 154q0 39 14 72.5t38.5 59t58.5 40t73 14.5q78 0 131 -54.5t53 -131.5q0 -39 -14 -73t-39 -58.5t-58.5 -39t-72.5 -14.5q-78 0 -131 53.5t-53 131.5zM240 959q0 39 14 72.5t38.5 59t58.5 40t73 14.5q78 0 131 -54.5t53 -131.5q0 -39 -14 -73t-39 -58.5t-58.5 -39 t-72.5 -14.5q-78 0 -131 53.5t-53 131.5z" />
<glyph unicode=";" horiz-adv-x="866" d="M240 160q0 72 51 126t135 54t142.5 -57.5t58.5 -167.5q0 -166 -87 -286t-235 -196l-65 103q33 14 80 47t89 78t67.5 103.5t19.5 125.5q-6 -43 -39 -68.5t-66 -25.5q-70 0 -110.5 48t-40.5 116zM240 959q0 39 14 72.5t38.5 59t58.5 40t73 14.5q78 0 131 -54.5t53 -131.5 q0 -39 -14 -73t-39 -58.5t-58.5 -39t-72.5 -14.5q-78 0 -131 53.5t-53 131.5z" />
<glyph unicode="&#x3c;" horiz-adv-x="1187" d="M68 688v49l876 500l74 -133l-694 -391l694 -391l-74 -134z" />
<glyph unicode="=" horiz-adv-x="1284" d="M109 457v149h1065v-149h-1065zM109 827v150h1065v-150h-1065z" />
<glyph unicode="&#x3e;" horiz-adv-x="1187" d="M170 321l694 391l-694 391l74 134l876 -500v-49l-876 -500z" />
<glyph unicode="?" horiz-adv-x="1671" d="M139 1356q49 20 123 39.5t161 35t178 24.5t175 9q150 0 292 -17t252 -63.5t176.5 -128t66.5 -208.5q0 -92 -39 -157t-103.5 -109t-147.5 -69.5t-169 -39t-169 -17.5t-149 -4v-168h-176v293l27 25q31 -2 47 -2h30.5t29 1t42.5 1q98 0 194.5 12t173.5 41t125 75t48 115 q0 76 -47 127.5t-126 82t-180.5 44t-209.5 13.5q-154 0 -264.5 -25.5t-151.5 -62.5q-33 -31 -33 -76t11 -129l-127 -21zM514 154q0 39 14.5 72.5t39 59t58 40t72.5 14.5q78 0 132.5 -54.5t54.5 -131.5q0 -39 -14.5 -73t-40 -58.5t-59.5 -39t-73 -14.5q-78 0 -131 53.5 t-53 131.5z" />
<glyph unicode="@" d="M76 713q0 170 62.5 308t177 236.5t277.5 152.5t363 54q221 0 383 -66.5t268.5 -170t158 -228.5t51.5 -241q0 -117 -35 -199t-93.5 -135t-132 -77.5t-151.5 -24.5q-55 0 -93 12t-63.5 30.5t-40 37t-18.5 30.5q-55 -53 -140 -81.5t-188 -28.5q-45 0 -99 11t-100.5 37.5 t-77 72.5t-30.5 116q0 68 27.5 115t75 75.5t107.5 41t126 12.5h280q0 174 -229 174q-109 0 -166 -28.5t-47 -88.5l-102 -6l-39 195q53 16 143 37.5t201 21.5q117 0 196.5 -23.5t130 -67.5t72 -107.5t21.5 -143.5v-227q0 -33 20.5 -54.5t65.5 -21.5q37 0 75.5 18.5t72.5 55 t55.5 92t21.5 129.5q0 106 -47 209.5t-137 186.5t-221.5 134t-301.5 51q-178 0 -314 -49t-228 -135t-140.5 -199.5t-48.5 -242.5q0 -115 42 -225.5t131 -198.5t227.5 -142.5t330.5 -54.5q92 0 178.5 19.5t172.5 52.5l55 -119q-51 -23 -152.5 -49.5t-273.5 -26.5 q-205 0 -364.5 58.5t-270.5 159t-168 236.5t-57 290zM741 559q0 -41 48.5 -74.5t119.5 -33.5q33 0 70 7t72.5 21.5t66.5 37t53 52.5v113h-262q-86 -2 -127 -38t-41 -85z" />
<glyph unicode="A" horiz-adv-x="2088" d="M6 0v127h174q55 0 85 23.5t57 72.5q135 250 267 497t265 497q18 35 7 61.5t-52 26.5h-229v129h526q164 -305 327.5 -605.5t327.5 -605.5q20 -41 52 -68.5t110 -27.5h158v-127h-836v127h201q18 0 35.5 4t28 14.5t12.5 26.5t-11 41l-100 201h-803l-96 -191q-12 -23 -12 -41 q0 -16 10 -28q20 -26 74 -27h190v-127h-768zM684 557h649q-86 154 -167 305.5t-165 304.5z" />
<glyph unicode="B" horiz-adv-x="1890" d="M109 0v127h186q23 0 42 2t33.5 14.5t22.5 36t8 66.5v940q0 72 -24.5 95.5t-102.5 23.5h-165v129h1058q113 0 210.5 -21.5t168 -64.5t110.5 -111t40 -160q0 -68 -21.5 -122t-55.5 -94t-75 -66.5t-80 -36.5q76 -12 138.5 -44t106.5 -79t68.5 -106.5t24.5 -125.5 q0 -106 -46 -183t-121.5 -126t-173 -71.5t-201.5 -22.5h-1151zM616 143h607q168 4 255 80t87 183q0 66 -27 114.5t-73 80.5t-108.5 48.5t-135.5 16.5h-605v-523zM616 809h562q137 4 211.5 70.5t74.5 177.5q0 113 -89 173t-249 60h-510v-481z" />
<glyph unicode="C" horiz-adv-x="1775" d="M78 731q0 178 73.5 315.5t192.5 230.5t269.5 140t301.5 47q121 0 212.5 -21.5t158 -48t111.5 -48t73 -21.5q27 0 30 36q1 12 1 25q0 26 -4 58h125l76 -535l-125 -18q-29 100 -89.5 177t-144.5 130t-185 81t-210 28q-133 0 -251 -41t-205 -117t-138 -184.5t-51 -241.5 q0 -139 51 -251t142.5 -188.5t215 -117.5t269.5 -41q188 0 347 73.5t288 219.5l106 -92q-61 -78 -137 -142.5t-170 -112.5t-210 -75t-255 -27q-193 0 -352.5 54.5t-274 155t-178 240.5t-63.5 312z" />
<glyph unicode="D" horiz-adv-x="1935" d="M109 0v127h186q23 0 42 2t33.5 14.5t22.5 36t8 66.5v940q0 72 -24.5 95.5t-102.5 23.5h-165v129h899q199 0 357.5 -46.5t267 -135.5t167 -221t58.5 -304q0 -164 -58.5 -297t-167 -229.5t-267.5 -148.5t-357 -52h-899zM616 143h351q150 0 271.5 38t207.5 112t133 183.5 t47 250.5q0 150 -48 256.5t-134 175t-205 100t-260 31.5h-363v-1147z" />
<glyph unicode="E" horiz-adv-x="1863" d="M109 0v127h165q31 0 54.5 2t40 12.5t24.5 35t8 67.5v942q0 72 -24.5 95.5t-102.5 23.5h-165v129h1544l76 -521l-62 -8t-61 -8q-20 127 -50 204t-73 118t-102.5 54t-139.5 13h-627v-477h357q72 0 96.5 24.5t24.5 102.5v145h127v-688h-127v166q0 23 -2.5 42.5t-14.5 33.5 t-35.5 22.5t-66.5 8.5h-359v-523h607q100 0 168.5 14.5t115.5 63.5t80 144.5t62 257.5l120 -13q-23 -154 -42 -305t-39 -305h-1577z" />
<glyph unicode="F" horiz-adv-x="1783" d="M109 0v127h172q27 0 49 2t38.5 13.5t24.5 35t8 66.5v942q0 72 -24.5 95.5t-102.5 23.5h-165v129h1544l76 -521l-62 -8t-61 -8q-20 127 -50 204t-73 118t-102.5 54t-139.5 13h-627v-477h357q72 0 96.5 24.5t24.5 102.5v145h127v-688h-127v166q0 23 -2.5 42.5t-14.5 33.5 t-35.5 22.5t-66.5 8.5h-359v-420q0 -72 25 -95.5t102 -23.5h201v-127h-833z" />
<glyph unicode="G" horiz-adv-x="1994" d="M78 727q0 180 73.5 318.5t192.5 231.5t269.5 140t301.5 47q121 0 212.5 -21.5t158 -48t111.5 -48t73 -21.5q27 0 30 32q1 11 1 23q0 25 -4 56h125l76 -527l-125 -18q-29 100 -89.5 177t-144.5 130t-185 81t-210 28q-133 0 -251 -41t-205 -117t-138 -184.5t-51 -241.5 q0 -139 52 -251t143.5 -188.5t213 -117.5t261.5 -41q193 0 333 65.5t224 161.5v97q0 25 -9.5 42t-43.5 17h-310v143h787v-143h-131q-47 0 -70 -15.5t-23 -80.5v-412h-106l-51 190q-113 -106 -264.5 -163.5t-364.5 -57.5q-188 0 -346 54.5t-272.5 152.5t-179 238.5 t-64.5 312.5z" />
<glyph unicode="H" horiz-adv-x="2181" d="M109 0v127h186q23 0 42 2t33.5 13.5t22.5 35t8 66.5v944q0 41 -8 64.5t-24.5 34.5t-40 14.5t-54.5 3.5h-165v129h778v-129h-166q-23 0 -42.5 -3.5t-33.5 -14.5t-22.5 -34.5t-8.5 -64.5v-379h949v379q0 41 -8.5 64.5t-25 34.5t-40 14.5t-53.5 3.5h-144v129h779v-129h-187 q-23 0 -42 -3.5t-33.5 -14.5t-22.5 -34.5t-8 -64.5v-942q0 -72 24.5 -95.5t102.5 -23.5h166v-127h-779v127h164q23 0 42.5 2t33.5 13.5t22.5 35t8.5 66.5v422h-949v-420q0 -72 25 -95.5t102 -23.5h146v-127h-778z" />
<glyph unicode="I" horiz-adv-x="1017" d="M109 0v127h186q23 0 42 2t33.5 13.5t22.5 35t8 66.5v942q0 80 -29.5 99.5t-97.5 19.5h-165v129h798v-129h-186q-23 0 -42.5 -3.5t-33.5 -14.5t-22.5 -34.5t-8.5 -64.5v-942q0 -72 25 -95.5t102 -23.5h166v-127h-798z" />
<glyph unicode="J" horiz-adv-x="1669" d="M31 467l141 22q27 -164 148.5 -262t320.5 -98q115 0 200 34t141 89t84 124.5t28 141.5v641q0 88 -35 117t-119 29h-391v129h1053v-129h-187q-23 0 -42 -2.5t-33.5 -13.5t-22.5 -34.5t-8 -66.5v-668q0 -113 -42 -213t-122 -175t-198 -119t-269 -44q-154 0 -269.5 39 t-195.5 105.5t-125 157.5t-57 196z" />
<glyph unicode="K" horiz-adv-x="2070" d="M109 0v127h186q23 0 42 2t33.5 13.5t22.5 35t8 66.5v866q0 68 -4 106.5t-18 58t-39 25t-66 5.5h-165v129h798v-129h-186q-23 0 -42.5 -3.5t-33.5 -14.5t-22.5 -34.5t-8.5 -64.5v-553l709 579q25 20 34 35t9 25q0 16 -18.5 23.5t-34.5 7.5h-172v129h825v-129h-121 q-82 0 -147.5 -21.5t-147.5 -85.5q-115 -82 -221 -172t-217 -176l571 -631q63 -66 123 -79t103 -13h147v-127h-915v127h217q37 0 53 13.5t16 33.5q0 23 -18 45l-51 55q-104 113 -202.5 225.5t-203.5 227.5l-338 -272v-209q0 -72 25 -95.5t102 -23.5h166v-127h-798z" />
<glyph unicode="L" horiz-adv-x="1781" d="M109 0v127h165q31 0 54.5 2t40 12.5t24.5 35t8 67.5v942q0 72 -24.5 95.5t-102.5 23.5h-165v129h854v-129h-242q-23 0 -42.5 -2.5t-33.5 -13.5t-22.5 -34.5t-8.5 -66.5v-1045h459q94 0 164 1t122 13.5t90 41t66.5 84t51 141.5t45.5 213q31 -4 61.5 -7t59.5 -7 q-23 -158 -41.5 -312.5t-40.5 -310.5h-1542z" />
<glyph unicode="M" horiz-adv-x="2496" d="M109 0v127h186q23 0 42 2t33.5 13.5t22.5 35t8 66.5v942q0 72 -24.5 95.5t-102.5 23.5h-165v129h555q147 -287 296.5 -568.5t296.5 -568.5l582 1137h547v-129h-186q-23 0 -42.5 -3.5t-34 -14.5t-22.5 -34.5t-8 -64.5v-942q0 -72 24.5 -95.5t102.5 -23.5h166v-127h-793 v127h181q23 0 42 2t33.5 13.5t22.5 35t8 66.5v932q-154 -295 -303.5 -588t-300.5 -588h-98l-621 1202v-956q0 -72 24.5 -95.5t102.5 -23.5h160v-127h-735z" />
<glyph unicode="N" horiz-adv-x="2193" d="M109 0v127h186q23 0 42 2t33.5 14.5t22.5 36t8 66.5v940q0 72 -24.5 95.5t-102.5 23.5h-165v129h501l1080 -1117v869q0 72 -25 95.5t-102 23.5h-160v129h735v-129h-186q-23 0 -42.5 -2.5t-33.5 -13.5t-22.5 -34.5t-8.5 -66.5v-1188h-147l-1139 1178v-930 q0 -72 24.5 -96.5t102.5 -24.5h158v-127h-735z" />
<glyph unicode="O" d="M78 717q0 170 65.5 308t181 235.5t274.5 150.5t347 53t347 -53t274.5 -150.5t181.5 -235.5t66 -308t-66 -308.5t-181.5 -235.5t-274 -150.5t-347.5 -53.5q-188 0 -347 53.5t-274.5 150.5t-181 235.5t-65.5 308.5zM303 717q0 -147 52.5 -258t140.5 -185.5t204.5 -112.5 t245.5 -38t246 38t205 112.5t140 185t52 258.5q0 147 -52 257.5t-140 184.5t-205 112t-246 38t-245.5 -38t-204.5 -112t-140.5 -184.5t-52.5 -257.5z" />
<glyph unicode="P" horiz-adv-x="1726" d="M109 0v127h186q23 0 42 2t33.5 14.5t22.5 36t8 66.5v940q0 72 -24.5 95.5t-102.5 23.5h-165v129h995q109 0 212 -20.5t184 -70t130 -131.5t49 -202q0 -121 -48 -206t-129 -137.5t-184.5 -76t-213.5 -23.5h-488v-319q0 -72 25 -96.5t102 -24.5h166v-127h-800zM616 711h480 q162 0 260 78.5t98 220.5q0 141 -100.5 210.5t-259.5 69.5h-478v-579z" />
<glyph unicode="Q" d="M78 717q0 170 65.5 308t181 235.5t274.5 150.5t347 53q186 0 346 -53t274.5 -150.5t180 -235.5t65.5 -308q0 -139 -45 -256t-124.5 -208t-190.5 -152.5t-242 -92.5q39 -82 121 -132t179 -66q48 -9 96 -9t97 9q97 16 169 69q16 -29 33.5 -59.5t33.5 -59.5 q-74 -53 -161.5 -81.5t-181.5 -33.5q-19 -1 -38 -1q-75 0 -149 15q-94 19 -180 61t-157 104.5t-118 144.5h-4q-186 0 -346 53.5t-276.5 150.5t-183 235.5t-66.5 308.5zM301 717q0 -147 52.5 -259t140.5 -186.5t205.5 -112.5t246.5 -38t246 38t205 112.5t140 186t52 259.5 q0 147 -52 257.5t-140 184.5t-205 112t-246 38t-246.5 -38t-205.5 -112t-140.5 -184.5t-52.5 -257.5z" />
<glyph unicode="R" horiz-adv-x="1996" d="M109 0v127h186q23 0 42 2t33.5 14.5t22.5 36t8 66.5v940q0 72 -24.5 95.5t-102.5 23.5h-165v129h1001q109 0 211 -18.5t182 -64.5t128 -124t48 -199q0 -96 -37.5 -169t-95 -122t-127 -77.5t-133.5 -36.5q18 -84 75.5 -179.5t147.5 -172t210 -119.5q79 -28 168 -28 q45 0 93 7l17 -131q-83 -13 -159 -13q-57 -1 -110 7q-122 18 -220.5 64t-175.5 113t-132 140.5t-91 149.5t-54 139h-439v-352q0 -72 25 -96.5t102 -24.5h166v-127h-800zM616 745h480q78 0 143.5 19.5t113.5 56.5t74.5 89.5t26.5 117.5q0 63 -27.5 112.5t-75.5 82t-114 50 t-143 17.5h-478v-545z" />
<glyph unicode="S" horiz-adv-x="1757" d="M117 559l110 14q31 -92 100.5 -174t166 -143t215 -97t252.5 -36q229 0 355 63.5t126 161.5q0 72 -51.5 118t-135.5 73.5t-190.5 43t-214.5 27.5q-127 16 -249 42t-216 72t-151.5 121t-57.5 191q0 104 49 184t135 134.5t202 82t251 27.5q117 0 212 -22.5t166 -49t118 -49 t67 -22.5q16 0 23.5 10t8.5 27.5t-1 39t-4 46.5h129l65 -512l-114 -17q-23 88 -82.5 161t-146.5 126t-195.5 83t-227.5 30q-219 0 -336.5 -69.5t-117.5 -180.5q0 -70 51 -112t131 -67.5t176 -37.5t187 -25q74 -10 156.5 -23.5t162.5 -32.5t152.5 -50t127 -76t87 -108.5 t32.5 -147.5q0 -104 -46 -182t-131 -131.5t-205.5 -80t-270.5 -26.5q-141 0 -249.5 27.5t-187.5 59.5t-129 59.5t-71 27.5q-16 0 -21 -12t-5 -32.5t3 -47.5t5 -57h-131z" />
<glyph unicode="T" horiz-adv-x="1785" d="M45 901l74 533h1546l76 -533l-123 -16q-20 139 -51 219t-73 121t-98.5 52t-129.5 11h-267v-1040q0 -72 25 -96.5t102 -24.5h166v-127h-798v127h184q23 0 42 2t33.5 14.5t22.5 36t8 66.5v1042h-266q-72 0 -128 -11t-99 -52t-74 -121t-51 -219z" />
<glyph unicode="U" horiz-adv-x="2091" d="M68 1309v125h780v-125h-168q-41 0 -64.5 -7.5t-37 -22.5t-17.5 -40t-6 -61v-564q0 -133 37 -225t105.5 -151.5t164.5 -86t213 -26.5q119 0 215 26.5t165 86t106.5 151.5t37.5 225v564q-2 37 -5 62.5t-14 40.5t-34.5 21.5t-62.5 6.5h-176v125h714v-125h-151 q-41 0 -64.5 -7.5t-35 -22.5t-14.5 -40t-3 -61v-570q0 -336 -178 -487.5t-516 -151.5q-170 0 -303 37t-225.5 115t-141.5 198.5t-49 288.5v570q-2 78 -26.5 104.5t-96.5 26.5h-149z" />
<glyph unicode="V" horiz-adv-x="2086" d="M6 1305v129h830v-129h-181q-61 1 -85 -21q-11 -10 -11 -28q0 -19 14 -48l514 -940l494 940q14 28 14 48q0 49 -82 49h-190v129h758v-129h-174q-55 0 -86 -24t-58 -73l-641 -1208h-139l-657 1208q-10 20 -22.5 38t-30 31t-43 20.5t-64.5 7.5h-160z" />
<glyph unicode="W" horiz-adv-x="2723" d="M6 1305v129h776v-129h-135q-49 -1 -77 -21q-15 -11 -14 -32q0 -18 11 -44l391 -891l324 773q-14 33 -26.5 69.5t-34 69.5t-56.5 54.5t-94 21.5h-88v129h725v-129h-162q-50 0 -76 -26q-14 -14 -14 -36q0 -19 10 -43l379 -883l375 891q10 26 10 45q0 52 -78 52h-247v129 h813v-129h-172q-55 0 -85 -24t-57 -73l-522 -1208h-129q-96 223 -190.5 443.5t-192.5 443.5q-92 -223 -184 -443.5t-187 -443.5h-129l-536 1208q-10 20 -22.5 38t-30 31t-43 20.5t-64.5 7.5h-168z" />
<glyph unicode="X" horiz-adv-x="2091" d="M68 0v127h114q72 0 135.5 22.5t116.5 75.5l477 490l-467 493q-33 35 -62.5 54.5t-59 28.5t-60.5 11.5t-63 2.5h-131v129h886v-129h-186q-48 0 -60 -28q-3 -6 -3 -13q0 -24 32 -56l326 -348l334 348q29 29 29 52q0 9 -4 17q-16 28 -72 28h-123v129h772v-129h-101 q-72 0 -139 -15.5t-133 -81.5l-452 -463l493 -520q37 -39 68.5 -59.5t62.5 -28.5t62.5 -9t66.5 -1h117v-127h-907v127h206q49 -1 61 27q3 6 2 13q0 24 -32 58l-352 375l-358 -375q-29 -29 -29 -53q0 -8 4 -16q16 -28 72 -29h155v-127h-798z" />
<glyph unicode="Y" horiz-adv-x="1937" d="M27 1305v129h833v-129h-192q-51 0 -60 -28q-1 -6 -1 -12q0 -24 26 -57q96 -121 189 -239.5t192 -239.5l370 479q12 16 19.5 34t6.5 31t-14.5 22.5t-43.5 9.5h-166v129h723v-129h-84q-66 0 -131.5 -17.5t-114.5 -79.5l-485 -616v-346q0 -72 24.5 -95.5t102.5 -23.5h165 v-127h-798v127h184q23 0 42.5 2t33.5 13.5t22.5 35t8.5 66.5v340l-512 624q-49 59 -104.5 78t-127.5 19h-108z" />
<glyph unicode="Z" horiz-adv-x="1814" d="M109 0v127l1232 1163h-727q-76 -2 -134 -18.5t-103 -57t-75 -112.5t-48 -182l-121 12l76 502h1438v-129l-1225 -1162h743q100 0 168 15.5t114 63.5t76.5 137.5t59.5 236.5l121 -12l-74 -584h-1521z" />
<glyph unicode="[" horiz-adv-x="956" d="M174 -41v1516h635v-129h-315q-23 0 -42.5 -3.5t-34 -14.5t-22.5 -34.5t-8 -64.5v-1024q0 -41 5 -64.5t19.5 -36t39 -15.5t63.5 -3h295v-127h-635z" />
<glyph unicode="\" horiz-adv-x="1288" d="M26 1411l1115 -1477l120 91l-1116 1474z" />
<glyph unicode="]" horiz-adv-x="956" d="M147 -41v129h315q23 0 42.5 3.5t34 14.5t22.5 34.5t8 64.5v1024q0 41 -5 64.5t-19.5 36t-39 15.5t-63.5 3h-295v127h635v-1516h-635z" />
<glyph unicode="^" horiz-adv-x="1249" d="M109 625v43l426 766h186l420 -766v-43h-166l-352 651l-349 -651h-165z" />
<glyph unicode="_" horiz-adv-x="1064" d="M0 -408h1065v-127h-1065v127z" />
<glyph unicode="`" horiz-adv-x="829" d="M102 1866v39h234l391 -312v-37h-180z" />
<glyph unicode="a" horiz-adv-x="2088" d="M6 0v127h174q55 0 85 23.5t57 72.5q135 250 267 497t265 497q18 35 7 61.5t-52 26.5h-229v129h526q164 -305 327.5 -605.5t327.5 -605.5q20 -41 52 -68.5t110 -27.5h158v-127h-836v127h201q18 0 35.5 4t28 14.5t12.5 26.5t-11 41l-100 201h-803l-96 -191q-12 -23 -12 -41 q0 -16 10 -28q20 -26 74 -27h190v-127h-768zM684 557h649q-86 154 -167 305.5t-165 304.5z" />
<glyph unicode="b" horiz-adv-x="1884" d="M109 0v127h186q23 0 42 2t33.5 14.5t22.5 36t8 66.5v940q0 72 -24.5 95.5t-102.5 23.5h-165v129h1058q113 0 210.5 -21.5t168 -64.5t110.5 -111t40 -160q0 -68 -21.5 -122t-55.5 -94t-75 -66.5t-80 -36.5q76 -12 138.5 -44t106.5 -79t68.5 -106.5t24.5 -125.5 q0 -106 -46 -183t-121.5 -126t-173 -71.5t-201.5 -22.5h-1151zM616 143h607q168 4 255 80t87 183q0 66 -27 114.5t-73 80.5t-108.5 48.5t-135.5 16.5h-605v-523zM616 809h562q137 4 211.5 70.5t74.5 177.5q0 113 -89 173t-249 60h-510v-481z" />
<glyph unicode="c" horiz-adv-x="1779" d="M78 731q0 178 73.5 315.5t192.5 230.5t269.5 140t301.5 47q121 0 212.5 -21.5t158 -48t111.5 -48t73 -21.5q27 0 30 36q1 12 1 25q0 26 -4 58h125l76 -535l-125 -18q-29 100 -89.5 177t-144.5 130t-185 81t-210 28q-133 0 -251 -41t-205 -117t-138 -184.5t-51 -241.5 q0 -139 51 -251t142.5 -188.5t215 -117.5t269.5 -41q188 0 347 73.5t288 219.5l106 -92q-61 -78 -137 -142.5t-170 -112.5t-210 -75t-255 -27q-193 0 -352.5 54.5t-274 155t-178 240.5t-63.5 312z" />
<glyph unicode="d" horiz-adv-x="1935" d="M109 0v127h186q23 0 42 2t33.5 14.5t22.5 36t8 66.5v940q0 72 -24.5 95.5t-102.5 23.5h-165v129h899q199 0 357.5 -46.5t267 -135.5t167 -221t58.5 -304q0 -164 -58.5 -297t-167 -229.5t-267.5 -148.5t-357 -52h-899zM616 143h351q150 0 271.5 38t207.5 112t133 183.5 t47 250.5q0 150 -48 256.5t-134 175t-205 100t-260 31.5h-363v-1147z" />
<glyph unicode="e" horiz-adv-x="1863" d="M109 0v127h165q31 0 54.5 2t40 12.5t24.5 35t8 67.5v942q0 72 -24.5 95.5t-102.5 23.5h-165v129h1544l76 -521l-62 -8t-61 -8q-20 127 -50 204t-73 118t-102.5 54t-139.5 13h-627v-477h357q72 0 96.5 24.5t24.5 102.5v145h127v-688h-127v166q0 23 -2.5 42.5t-14.5 33.5 t-35.5 22.5t-66.5 8.5h-359v-523h607q100 0 168.5 14.5t115.5 63.5t80 144.5t62 257.5l120 -13q-23 -154 -42 -305t-39 -305h-1577z" />
<glyph unicode="f" horiz-adv-x="1783" d="M109 0v127h172q27 0 49 2t38.5 13.5t24.5 35t8 66.5v942q0 72 -24.5 95.5t-102.5 23.5h-165v129h1544l76 -521l-62 -8t-61 -8q-20 127 -50 204t-73 118t-102.5 54t-139.5 13h-627v-477h357q72 0 96.5 24.5t24.5 102.5v145h127v-688h-127v166q0 23 -2.5 42.5t-14.5 33.5 t-35.5 22.5t-66.5 8.5h-359v-420q0 -72 25 -95.5t102 -23.5h201v-127h-833z" />
<glyph unicode="g" horiz-adv-x="1986" d="M78 727q0 180 73.5 318.5t192.5 231.5t269.5 140t301.5 47q121 0 212.5 -21.5t158 -48t111.5 -48t73 -21.5q27 0 30 32q1 11 1 23q0 25 -4 56h125l76 -527l-125 -18q-29 100 -89.5 177t-144.5 130t-185 81t-210 28q-133 0 -251 -41t-205 -117t-138 -184.5t-51 -241.5 q0 -139 52 -251t143.5 -188.5t213 -117.5t261.5 -41q193 0 333 65.5t224 161.5v97q0 25 -9.5 42t-43.5 17h-310v143h787v-143h-131q-47 0 -70 -15.5t-23 -80.5v-412h-106l-51 190q-113 -106 -264.5 -163.5t-364.5 -57.5q-188 0 -346 54.5t-272.5 152.5t-179 238.5 t-64.5 312.5z" />
<glyph unicode="h" horiz-adv-x="2181" d="M109 0v127h186q23 0 42 2t33.5 13.5t22.5 35t8 66.5v944q0 41 -8 64.5t-24.5 34.5t-40 14.5t-54.5 3.5h-165v129h778v-129h-166q-23 0 -42.5 -3.5t-33.5 -14.5t-22.5 -34.5t-8.5 -64.5v-379h949v379q0 41 -8.5 64.5t-25 34.5t-40 14.5t-53.5 3.5h-144v129h779v-129h-187 q-23 0 -42 -3.5t-33.5 -14.5t-22.5 -34.5t-8 -64.5v-942q0 -72 24.5 -95.5t102.5 -23.5h166v-127h-779v127h164q23 0 42.5 2t33.5 13.5t22.5 35t8.5 66.5v422h-949v-420q0 -72 25 -95.5t102 -23.5h146v-127h-778z" />
<glyph unicode="i" horiz-adv-x="1017" d="M109 0v127h186q23 0 42 2t33.5 13.5t22.5 35t8 66.5v942q0 80 -29.5 99.5t-97.5 19.5h-165v129h798v-129h-186q-23 0 -42.5 -3.5t-33.5 -14.5t-22.5 -34.5t-8.5 -64.5v-942q0 -72 25 -95.5t102 -23.5h166v-127h-798z" />
<glyph unicode="j" horiz-adv-x="1669" d="M31 467l141 22q27 -164 148.5 -262t320.5 -98q115 0 200 34t141 89t84 124.5t28 141.5v641q0 88 -35 117t-119 29h-391v129h1053v-129h-187q-23 0 -42 -2.5t-33.5 -13.5t-22.5 -34.5t-8 -66.5v-668q0 -113 -42 -213t-122 -175t-198 -119t-269 -44q-154 0 -269.5 39 t-195.5 105.5t-125 157.5t-57 196z" />
<glyph unicode="k" horiz-adv-x="2070" d="M109 0v127h186q23 0 42 2t33.5 13.5t22.5 35t8 66.5v866q0 68 -4 106.5t-18 58t-39 25t-66 5.5h-165v129h798v-129h-186q-23 0 -42.5 -3.5t-33.5 -14.5t-22.5 -34.5t-8.5 -64.5v-553l709 579q25 20 34 35t9 25q0 16 -18.5 23.5t-34.5 7.5h-172v129h825v-129h-121 q-82 0 -147.5 -21.5t-147.5 -85.5q-115 -82 -221 -172t-217 -176l571 -631q63 -66 123 -79t103 -13h147v-127h-915v127h217q37 0 53 13.5t16 33.5q0 23 -18 45l-51 55q-104 113 -202.5 225.5t-203.5 227.5l-338 -272v-209q0 -72 25 -95.5t102 -23.5h166v-127h-798z" />
<glyph unicode="l" horiz-adv-x="1781" d="M109 0v127h165q31 0 54.5 2t40 12.5t24.5 35t8 67.5v942q0 72 -24.5 95.5t-102.5 23.5h-165v129h854v-129h-242q-23 0 -42.5 -2.5t-33.5 -13.5t-22.5 -34.5t-8.5 -66.5v-1045h459q94 0 164 1t122 13.5t90 41t66.5 84t51 141.5t45.5 213q31 -4 61.5 -7t59.5 -7 q-23 -158 -41.5 -312.5t-40.5 -310.5h-1542z" />
<glyph unicode="m" horiz-adv-x="2496" d="M109 0v127h186q23 0 42 2t33.5 13.5t22.5 35t8 66.5v942q0 72 -24.5 95.5t-102.5 23.5h-165v129h555q147 -287 296.5 -568.5t296.5 -568.5l582 1137h547v-129h-186q-23 0 -42.5 -3.5t-34 -14.5t-22.5 -34.5t-8 -64.5v-942q0 -72 24.5 -95.5t102.5 -23.5h166v-127h-793 v127h181q23 0 42 2t33.5 13.5t22.5 35t8 66.5v932q-154 -295 -303.5 -588t-300.5 -588h-98l-621 1202v-956q0 -72 24.5 -95.5t102.5 -23.5h160v-127h-735z" />
<glyph unicode="n" horiz-adv-x="2193" d="M109 0v127h186q23 0 42 2t33.5 14.5t22.5 36t8 66.5v940q0 72 -24.5 95.5t-102.5 23.5h-165v129h501l1080 -1117v869q0 72 -25 95.5t-102 23.5h-160v129h735v-129h-186q-23 0 -42.5 -2.5t-33.5 -13.5t-22.5 -34.5t-8.5 -66.5v-1188h-147l-1139 1178v-930 q0 -72 24.5 -96.5t102.5 -24.5h158v-127h-735z" />
<glyph unicode="o" d="M78 717q0 170 65.5 308t181 235.5t274.5 150.5t347 53t347 -53t274.5 -150.5t181.5 -235.5t66 -308t-66 -308.5t-181.5 -235.5t-274 -150.5t-347.5 -53.5q-188 0 -347 53.5t-274.5 150.5t-181 235.5t-65.5 308.5zM303 717q0 -147 52.5 -258t140.5 -185.5t204.5 -112.5 t245.5 -38t246 38t205 112.5t140 185t52 258.5q0 147 -52 257.5t-140 184.5t-205 112t-246 38t-245.5 -38t-204.5 -112t-140.5 -184.5t-52.5 -257.5z" />
<glyph unicode="p" horiz-adv-x="1726" d="M109 0v127h186q23 0 42 2t33.5 14.5t22.5 36t8 66.5v940q0 72 -24.5 95.5t-102.5 23.5h-165v129h995q109 0 212 -20.5t184 -70t130 -131.5t49 -202q0 -121 -48 -206t-129 -137.5t-184.5 -76t-213.5 -23.5h-488v-319q0 -72 25 -96.5t102 -24.5h166v-127h-800zM616 711h480 q162 0 260 78.5t98 220.5q0 141 -100.5 210.5t-259.5 69.5h-478v-579z" />
<glyph unicode="q" d="M78 717q0 170 65.5 308t181 235.5t274.5 150.5t347 53q186 0 346 -53t274.5 -150.5t180 -235.5t65.5 -308q0 -139 -45 -256t-124.5 -208t-190.5 -152.5t-242 -92.5q39 -82 121 -132t179 -66q48 -9 96 -9t97 9q97 16 169 69q16 -29 33.5 -59.5t33.5 -59.5 q-74 -53 -161.5 -81.5t-181.5 -33.5q-19 -1 -38 -1q-75 0 -149 15q-94 19 -180 61t-157 104.5t-118 144.5h-4q-186 0 -346 53.5t-276.5 150.5t-183 235.5t-66.5 308.5zM301 717q0 -147 52.5 -259t140.5 -186.5t205.5 -112.5t246.5 -38t246 38t205 112.5t140 186t52 259.5 q0 147 -52 257.5t-140 184.5t-205 112t-246 38t-246.5 -38t-205.5 -112t-140.5 -184.5t-52.5 -257.5z" />
<glyph unicode="r" horiz-adv-x="1996" d="M109 0v127h186q23 0 42 2t33.5 14.5t22.5 36t8 66.5v940q0 72 -24.5 95.5t-102.5 23.5h-165v129h1001q109 0 211 -18.5t182 -64.5t128 -124t48 -199q0 -96 -37.5 -169t-95 -122t-127 -77.5t-133.5 -36.5q18 -84 75.5 -179.5t147.5 -172t210 -119.5q79 -28 168 -28 q45 0 93 7l17 -131q-83 -13 -159 -13q-57 -1 -110 7q-122 18 -220.5 64t-175.5 113t-132 140.5t-91 149.5t-54 139h-439v-352q0 -72 25 -96.5t102 -24.5h166v-127h-800zM616 745h480q78 0 143.5 19.5t113.5 56.5t74.5 89.5t26.5 117.5q0 63 -27.5 112.5t-75.5 82t-114 50 t-143 17.5h-478v-545z" />
<glyph unicode="s" horiz-adv-x="1757" d="M117 559l110 14q31 -92 100.5 -174t166 -143t215 -97t252.5 -36q229 0 355 63.5t126 161.5q0 72 -51.5 118t-135.5 73.5t-190.5 43t-214.5 27.5q-127 16 -249 42t-216 72t-151.5 121t-57.5 191q0 104 49 184t135 134.5t202 82t251 27.5q117 0 212 -22.5t166 -49t118 -49 t67 -22.5q16 0 23.5 10t8.5 27.5t-1 39t-4 46.5h129l65 -512l-114 -17q-23 88 -82.5 161t-146.5 126t-195.5 83t-227.5 30q-219 0 -336.5 -69.5t-117.5 -180.5q0 -70 51 -112t131 -67.5t176 -37.5t187 -25q74 -10 156.5 -23.5t162.5 -32.5t152.5 -50t127 -76t87 -108.5 t32.5 -147.5q0 -104 -46 -182t-131 -131.5t-205.5 -80t-270.5 -26.5q-141 0 -249.5 27.5t-187.5 59.5t-129 59.5t-71 27.5q-16 0 -21 -12t-5 -32.5t3 -47.5t5 -57h-131z" />
<glyph unicode="t" horiz-adv-x="1785" d="M45 901l74 533h1546l76 -533l-123 -16q-20 139 -51 219t-73 121t-98.5 52t-129.5 11h-267v-1040q0 -72 25 -96.5t102 -24.5h166v-127h-798v127h184q23 0 42 2t33.5 14.5t22.5 36t8 66.5v1042h-266q-72 0 -128 -11t-99 -52t-74 -121t-51 -219z" />
<glyph unicode="u" horiz-adv-x="2091" d="M68 1309v125h780v-125h-168q-41 0 -64.5 -7.5t-37 -22.5t-17.5 -40t-6 -61v-564q0 -133 37 -225t105.5 -151.5t164.5 -86t213 -26.5q119 0 215 26.5t165 86t106.5 151.5t37.5 225v564q-2 37 -5 62.5t-14 40.5t-34.5 21.5t-62.5 6.5h-176v125h714v-125h-151 q-41 0 -64.5 -7.5t-35 -22.5t-14.5 -40t-3 -61v-570q0 -336 -178 -487.5t-516 -151.5q-170 0 -303 37t-225.5 115t-141.5 198.5t-49 288.5v570q-2 78 -26.5 104.5t-96.5 26.5h-149z" />
<glyph unicode="v" horiz-adv-x="2086" d="M6 1305v129h830v-129h-181q-61 1 -85 -21q-11 -10 -11 -28q0 -19 14 -48l514 -940l494 940q14 28 14 48q0 49 -82 49h-190v129h758v-129h-174q-55 0 -86 -24t-58 -73l-641 -1208h-139l-657 1208q-10 20 -22.5 38t-30 31t-43 20.5t-64.5 7.5h-160z" />
<glyph unicode="w" horiz-adv-x="2723" d="M6 1305v129h776v-129h-135q-49 -1 -77 -21q-15 -11 -14 -32q0 -18 11 -44l391 -891l324 773q-14 33 -26.5 69.5t-34 69.5t-56.5 54.5t-94 21.5h-88v129h725v-129h-162q-50 0 -76 -26q-14 -14 -14 -36q0 -19 10 -43l379 -883l375 891q10 26 10 45q0 52 -78 52h-247v129 h813v-129h-172q-55 0 -85 -24t-57 -73l-522 -1208h-129q-96 223 -190.5 443.5t-192.5 443.5q-92 -223 -184 -443.5t-187 -443.5h-129l-536 1208q-10 20 -22.5 38t-30 31t-43 20.5t-64.5 7.5h-168z" />
<glyph unicode="x" horiz-adv-x="2091" d="M68 0v127h114q72 0 135.5 22.5t116.5 75.5l477 490l-467 493q-33 35 -62.5 54.5t-59 28.5t-60.5 11.5t-63 2.5h-131v129h886v-129h-186q-48 0 -60 -28q-3 -6 -3 -13q0 -24 32 -56l326 -348l334 348q29 29 29 52q0 9 -4 17q-16 28 -72 28h-123v129h772v-129h-101 q-72 0 -139 -15.5t-133 -81.5l-452 -463l493 -520q37 -39 68.5 -59.5t62.5 -28.5t62.5 -9t66.5 -1h117v-127h-907v127h206q49 -1 61 27q3 6 2 13q0 24 -32 58l-352 375l-358 -375q-29 -29 -29 -53q0 -8 4 -16q16 -28 72 -29h155v-127h-798z" />
<glyph unicode="y" horiz-adv-x="1937" d="M27 1305v129h833v-129h-192q-51 0 -60 -28q-1 -6 -1 -12q0 -24 26 -57q96 -121 189 -239.5t192 -239.5l370 479q12 16 19.5 34t6.5 31t-14.5 22.5t-43.5 9.5h-166v129h723v-129h-84q-66 0 -131.5 -17.5t-114.5 -79.5l-485 -616v-346q0 -72 24.5 -95.5t102.5 -23.5h165 v-127h-798v127h184q23 0 42.5 2t33.5 13.5t22.5 35t8.5 66.5v340l-512 624q-49 59 -104.5 78t-127.5 19h-108z" />
<glyph unicode="z" horiz-adv-x="1814" d="M109 0v127l1232 1163h-727q-76 -2 -134 -18.5t-103 -57t-75 -112.5t-48 -182l-121 12l76 502h1438v-129l-1225 -1162h743q100 0 168 15.5t114 63.5t76.5 137.5t59.5 236.5l121 -12l-74 -584h-1521z" />
<glyph unicode="{" horiz-adv-x="1071" d="M47 645v146q72 0 121 12t80 41.5t44 80t13 124.5q0 129 42 223t122 149.5t193.5 70.5t257.5 -13l-17 -133q-98 18 -168.5 3.5t-116 -53.5t-67 -95t-21.5 -122q0 -70 -11 -132t-35.5 -110.5t-67 -80t-103.5 -39.5q61 -8 103.5 -41t67 -82t35.5 -111.5t11 -132.5 q0 -66 22.5 -122t69 -94t117 -53t164.5 3l17 -129q-135 -23 -248 -8.5t-194 68t-127 145.5t-46 227q0 74 -13 123t-44 78.5t-80 43t-121 13.5z" />
<glyph unicode="|" horiz-adv-x="661" d="M252 -164v1761h158v-1761h-158z" />
<glyph unicode="}" horiz-adv-x="1071" d="M149 -45q135 -23 248 -8.5t194 68t127 145.5t46 227q0 74 13 123t44 78.5t80 43t121 13.5v146q-72 0 -121 12t-80 41.5t-44 80t-13 124.5q0 129 -42 223t-122 149.5t-193.5 70.5t-257.5 -13l17 -133q98 18 168.5 3.5t116 -53.5t67 -95t21.5 -122q0 -70 11 -132 t35.5 -110.5t67 -80t103.5 -39.5q-61 -8 -103.5 -41t-67 -82t-35.5 -111.5t-11 -132.5q0 -66 -22.5 -122t-69 -94t-117 -53t-164.5 3z" />
<glyph unicode="~" horiz-adv-x="1142" d="M115 557q-8 47 0 101.5t36.5 99.5t82 74.5t135.5 29.5q63 0 117.5 -23.5t103.5 -53t93 -53t91 -23.5q41 0 66.5 16t40 41t20.5 51.5t6 46.5h119q10 -41 2 -94t-37.5 -100t-82 -80t-130.5 -33q-66 0 -122 23.5t-107 52.5t-95 52.5t-85 23.5q-39 0 -63.5 -16.5t-40 -40 t-21.5 -49t-6 -46.5h-123z" />
<glyph unicode="&#xa1;" horiz-adv-x="937" d="M283 1280q0 78 53 131.5t133 53.5q78 0 131 -53.5t53 -131.5q0 -39 -14 -72.5t-38.5 -59t-58.5 -40t-73 -14.5q-80 0 -133 54.5t-53 131.5zM332 0v60l82 891h110l82 -891v-60h-274z" />
<glyph unicode="&#xa2;" horiz-adv-x="1486" d="M109 713q0 135 56 237.5t145 171t201 103.5t222 35q61 0 119 -11l147 416l146 -49l-144 -406q47 -18 78 -34.5t51 -16.5q12 0 17.5 10.5t5.5 24.5t-2 28.5t-2 22.5h113q12 -98 25 -196.5t28 -196.5q-29 -4 -56.5 -6t-56.5 -6q-23 82 -88 143t-158 96 q-68 -190 -135 -378.5t-137 -378.5q14 -2 27.5 -3.5t27.5 -1.5q82 0 158 18.5t137.5 54.5t105.5 87t62 117q29 -4 56.5 -6t56.5 -6q-14 -98 -27.5 -196.5t-25.5 -197.5h-113q2 6 4 20.5t1 29t-6 24.5t-18 10q-20 0 -49.5 -15t-76 -32.5t-112 -33t-155.5 -15.5q-25 0 -49 2 t-49 6l-147 -415q-39 12 -76 22t-74 23l145 401q-84 27 -152.5 75t-119.5 111.5t-78.5 142.5t-27.5 169zM307 721q2 -125 64.5 -218t163.5 -141l270 748q-12 2 -23.5 2h-23.5q-94 0 -176 -28.5t-143.5 -81t-96.5 -124t-35 -157.5z" />
<glyph unicode="&#xa3;" horiz-adv-x="1884" d="M102 571v148h228q-35 61 -63.5 121.5t-28.5 146.5q0 119 53 208t144 149.5t214 90t264 29.5q100 0 189.5 -21.5t159 -47t113.5 -47t55 -21.5q29 0 37 35t-3 82h121l78 -518l-125 -19q-18 84 -68.5 158t-127 128t-177 86t-219.5 32q-117 0 -206 -24.5t-149.5 -68.5 t-91 -105.5t-30.5 -133.5q0 -43 8 -76t20.5 -62.5t30 -58t35.5 -63.5h598v-148h-536q12 -35 21 -73.5t9 -73.5q0 -76 -36.5 -142.5t-98.5 -101.5h819q76 2 130.5 29t90 75t58 113.5t37.5 145.5l127 -21l-80 -522h-1596l-2 2q0 31 1 61.5t1 61.5q84 14 146.5 46t104.5 73 t62.5 88t20.5 94q0 41 -13 76t-28 69h-297z" />
<glyph unicode="&#xa4;" horiz-adv-x="1542" d="M150 203l194 198q-43 55 -72.5 137.5t-29.5 178.5q0 94 28.5 176t73.5 135q-49 49 -97 99.5t-97 101.5l108 108l199 -198q59 41 139 68.5t174 27.5t174 -28.5t135 -69.5q51 51 102.5 100t100.5 100l109 -108q-49 -51 -97.5 -101.5t-97.5 -99.5q43 -53 72.5 -135 t29.5 -176q0 -96 -29.5 -179t-70.5 -137l193 -198l-109 -109q-49 51 -100.5 100.5t-102.5 100.5q-55 -45 -134 -71.5t-175 -26.5q-94 0 -173 27.5t-138 70.5l-201 -201zM403 717q0 -80 30 -146.5t80 -114.5t116.5 -75t140.5 -27t140.5 27t116.5 75t80 114.5t30 146.5 t-30 145.5t-80 113.5t-116.5 74.5t-140.5 26.5t-140.5 -26.5t-116.5 -74.5t-80 -113.5t-30 -145.5z" />
<glyph unicode="&#xa5;" horiz-adv-x="1937" d="M27 1305v129h833v-129h-192q-51 0 -59.5 -28t24.5 -69q96 -121 189 -239.5t192 -239.5l370 479q12 16 19.5 34t6.5 31t-14.5 22.5t-43.5 9.5h-166v129h723v-129h-84q-66 0 -132.5 -17.5t-113.5 -79.5l-354 -450h381v-142h-488l-24 -30v-117v-2h512v-139h-512 q0 -61 2 -101.5t14 -62t38 -29.5t73 -8h165v-127h-798v127h184q31 0 51.5 3t32.5 22.5t17.5 60.5t5.5 115h-521v139h521v119l-23 30h-498v142h379l-370 450q-47 59 -103.5 78t-128.5 19h-108z" />
<glyph unicode="&#xa6;" horiz-adv-x="661" d="M252 -164v778h158v-778h-158zM252 819v778h158v-778h-158z" />
<glyph unicode="&#xa7;" horiz-adv-x="1759" d="M109 786q0 20 7 48t20.5 56t33.5 53.5t45 43.5q-29 23 -47 60.5t-18 76.5q0 88 55 152.5t148 106.5t215 61.5t257 19.5q262 0 446.5 -34.5t297.5 -83.5l-29 -312l-125 8q2 14 3 37t-2 46.5t-13 47t-35 41.5q-37 27 -93 46.5t-122 32t-137.5 17.5t-138.5 5 q-246 0 -378 -48t-132 -126q0 -43 55 -65.5t141 -33t188.5 -14.5t194.5 -12q125 -10 251 -25.5t226.5 -53.5t164 -106.5t63.5 -187.5q0 -20 -8.5 -47t-22.5 -53.5t-33.5 -48t-40.5 -33.5q35 -33 50.5 -73t15.5 -79q0 -90 -58.5 -153.5t-158 -105.5t-229.5 -61.5t-271 -19.5 q-262 0 -441.5 37t-281.5 82l29 305l123 -10q-4 -27 0 -65.5t28 -71.5q27 -35 82 -59.5t123 -40t142.5 -21.5t144.5 -6q129 0 231.5 14t173 39t108.5 55.5t38 63.5q0 51 -59.5 74.5t-148.5 34t-194.5 12.5t-197.5 10q-125 10 -248 25.5t-220.5 53.5t-157.5 105.5t-60 179.5z M270 811q0 -57 46 -93t123 -57.5t175.5 -32t202.5 -16.5q80 -4 164 -10t165 -14t152.5 -19.5t126.5 -27.5q18 10 41 30.5t23 49.5q0 63 -49 101t-129 59.5t-181.5 30.5t-205.5 15q-80 4 -162 9.5t-160 13.5t-147.5 20.5t-126.5 34.5q-29 -23 -43.5 -44t-14.5 -50z" />
<glyph unicode="&#xa8;" horiz-adv-x="899" d="M102 1741q0 55 39 94t99 39q61 0 100 -39t39 -94q0 -57 -39 -95t-100 -38q-59 0 -98.5 38t-39.5 95zM518 1741q0 55 38 94t97 39q66 0 105 -39t39 -94q0 -57 -39 -95t-105 -38q-59 0 -97 38t-38 95z" />
<glyph unicode="&#xa9;" d="M76 717q0 156 58.5 292t171 237.5t273 159.5t367.5 58q205 0 367 -60.5t274.5 -162.5t171 -237.5t58.5 -286.5q0 -156 -58.5 -292t-171 -237.5t-274.5 -160t-367 -58.5q-207 0 -367.5 58.5t-273 160t-171 237.5t-58.5 292zM225 717q0 -145 57.5 -260t156 -197t229.5 -125 t278 -43t278.5 43t229.5 125t155.5 196.5t57.5 260.5q0 143 -57.5 259t-155.5 196.5t-229 123.5t-279 43q-147 0 -278 -43t-229.5 -123.5t-156 -196.5t-57.5 -259zM487 723q0 90 36 165t95.5 128t135 81.5t157.5 28.5q63 0 110.5 -11t79.5 -25.5t52.5 -25.5t32.5 -11 q20 0 23 15t3 44h103l45 -305l-107 -19q-33 92 -110.5 152.5t-188.5 60.5q-55 0 -106 -20t-90 -58t-62.5 -90.5t-23.5 -113.5q0 -66 26.5 -117t68.5 -86t95 -54.5t107 -19.5q96 0 177 44t128 120l96 -55q-23 -53 -65.5 -98t-98 -77t-120 -50.5t-132.5 -18.5q-90 0 -174 29 t-149.5 83t-104.5 131t-39 173z" />
<glyph unicode="&#xaa;" horiz-adv-x="1468" d="M0 0v127h1466v-127h-1466zM41 506v104h109q59 0 92 64l307 575q16 29 13 53.5t-44 24.5h-112v107h389l405 -760q12 -23 33.5 -43.5t69.5 -20.5h122v-104h-594v104h132q33 0 41 17.5t-7 46.5l-51 100h-489l-54 -100q-10 -23 -7 -43.5t38 -20.5h119v-104h-512zM516 897h367 l-183 338z" />
<glyph unicode="&#xab;" horiz-adv-x="1484" d="M117 717l399 450h178v-55l-348 -395l348 -395v-56h-178zM676 717l399 450h178v-55l-348 -395l348 -395v-56h-178z" />
<glyph unicode="&#xac;" horiz-adv-x="1118" d="M102 641v152h859v-387h-150v235h-709z" />
<glyph unicode="&#xad;" horiz-adv-x="913" d="M102 641v152h709v-152h-709z" />
<glyph unicode="&#xae;" d="M76 717q0 156 58.5 292t171 237.5t273 159.5t367.5 58q205 0 367 -60.5t274.5 -162.5t171 -237.5t58.5 -286.5q0 -156 -58.5 -292t-171 -237.5t-274.5 -160t-367 -58.5q-207 0 -367.5 58.5t-273 160t-171 237.5t-58.5 292zM225 717q0 -145 57.5 -260t156 -197t229.5 -125 t278 -43t278.5 43t229.5 125t155.5 196.5t57.5 260.5q0 143 -57.5 259t-155.5 196.5t-229 123.5t-279 43q-147 0 -278 -43t-229.5 -123.5t-156 -196.5t-57.5 -259zM498 350v101h90q23 0 39 8t16 55v422q0 39 -13.5 52t-54.5 13h-77v101h561q61 0 115.5 -13.5t95.5 -41 t65.5 -68.5t24.5 -98q0 -51 -20.5 -89t-49 -64t-62.5 -42t-59 -24q4 -37 27 -78t59.5 -73t87 -49.5t109.5 -10.5l6 -101q-96 -16 -176 7.5t-139.5 67.5t-97 100.5t-50.5 109.5h-192v-119q0 -39 13 -52t54 -13h70v-101h-442zM803 760h250q47 0 89 31.5t42 78.5q0 49 -38 82 t-87 33h-256v-225z" />
<glyph unicode="&#xb0;" horiz-adv-x="1089" d="M109 1053q0 100 36.5 177t98 129t140.5 78.5t163 26.5t161.5 -26.5t138 -78.5t97.5 -129t37 -177q0 -96 -36 -172t-96.5 -128.5t-139 -79t-162.5 -26.5t-163 26.5t-140.5 79t-98 128.5t-36.5 172zM258 1053q0 -59 22.5 -109.5t61.5 -87.5t92 -58.5t113 -21.5 q59 0 111.5 21.5t90 58.5t60 87t22.5 110q0 57 -22.5 108t-60 90t-90 60.5t-111.5 21.5t-112.5 -21.5t-92.5 -60.5t-61.5 -90t-22.5 -108z" />
<glyph unicode="&#xb1;" horiz-adv-x="1284" d="M109 184v150h1065v-150h-1065zM109 778v150h458v321h150v-321h457v-150h-457v-321h-150v321h-458z" />
<glyph unicode="&#xb2;" horiz-adv-x="1200" d="M95.5 715q13.5 86 63.5 144.5t136 92t203 49.5q57 8 123.5 16.5t125 26t97.5 46t39 75.5q0 45 -27 76t-71 50.5t-99 28.5t-111 9q-49 0 -107 -11t-109.5 -38t-89.5 -70t-44 -106l-114 16l28 314h105q4 -16 7 -36t25 -20q14 0 40 12.5t66 26t95 25.5t127 12 q98 0 184 -16.5t148.5 -51t98.5 -89t36 -128.5q0 -88 -51 -141t-126 -84t-160 -44t-152 -19q-74 -8 -139.5 -21.5t-111.5 -39t-68.5 -65.5t-14.5 -100h540q43 0 74 6.5t54.5 25t39 51t25.5 85.5l111 -16l-48 -301h-933q-29 123 -15.5 209z" />
<glyph unicode="&#xb3;" horiz-adv-x="1177" d="M57 643l86 102q20 -18 58.5 -39.5t90.5 -42t115.5 -34t137.5 -13.5q61 0 122.5 9.5t108.5 29t77 48t30 67.5q0 78 -84 105.5t-234 27.5h-219v127h219q98 2 155.5 13.5t88.5 29t40 40t9 48.5q0 76 -84 121t-225 45q-84 0 -145.5 -19.5t-101.5 -49t-61.5 -62.5t-27.5 -59 l-117 12l29 285h104q4 -18 15.5 -34t23.5 -16q14 0 44 15.5t44 19.5q63 16 113.5 25.5t95.5 9.5q106 0 196.5 -19.5t156 -56.5t101.5 -91t36 -124q0 -45 -16.5 -78.5t-43 -58.5t-57.5 -39t-57 -18q35 0 73.5 -12.5t70.5 -37t52.5 -60.5t20.5 -85q0 -68 -38 -121t-108.5 -91 t-169 -57.5t-221.5 -19.5q-80 0 -156.5 13.5t-142 36t-119 50t-86.5 58.5z" />
<glyph unicode="&#xb4;" horiz-adv-x="829" d="M102 1556v37l392 312h233v-39l-444 -310h-181z" />
<glyph unicode="&#xb6;" horiz-adv-x="1599" d="M123 997q0 115 38 198t106.5 136t163.5 78t212 25h848v-129h-119q-78 0 -102.5 -24t-24.5 -95v-1186h-155v1288h-207v-1288h-162v580h-84q-115 0 -210 27.5t-162.5 81.5t-104.5 132t-37 176z" />
<glyph unicode="&#xb7;" horiz-adv-x="847" d="M240 715q0 39 14 72.5t38.5 59t58.5 40t73 14.5q78 0 131 -54.5t53 -131.5q0 -39 -14 -73t-39 -58.5t-58.5 -39t-72.5 -14.5q-78 0 -131 53.5t-53 131.5z" />
<glyph unicode="&#xb8;" horiz-adv-x="921" d="M158 -246l90 13q10 -59 65.5 -94t157.5 -35q82 0 132 17t50 58q0 72 -161 72q-29 0 -51.5 1t-53.5 -1l-16 12l61 234h125l-31 -140q43 0 91.5 -7t90.5 -27.5t69.5 -54t27.5 -89.5q0 -51 -27.5 -88t-71.5 -60.5t-101.5 -34.5t-119.5 -11q-90 0 -168.5 20.5t-130.5 44.5z " />
<glyph unicode="&#xb9;" horiz-adv-x="944" d="M160 506v104h172q33 0 55.5 7.5t22.5 54.5v483q0 41 -13.5 52.5t-54.5 11.5h-176v104h117q88 0 132 31.5t66 89.5h109v-770q0 -41 13 -52.5t65 -11.5h147v-104h-655z" />
<glyph unicode="&#xba;" horiz-adv-x="1298" d="M0 0v127h1298v-127h-1298zM92 969q0 104 40 193t113.5 153.5t177 101.5t228.5 37t227.5 -37t175 -101.5t112.5 -153.5t40 -193t-40 -192.5t-112.5 -153t-175 -101.5t-227.5 -37t-228.5 37t-177 101.5t-113.5 153t-40 192.5zM281 969q0 -76 26.5 -141.5t75.5 -114.5 t116.5 -77t151.5 -28q82 0 150.5 28t116 77t74 114.5t26.5 141.5t-26.5 141.5t-74 113.5t-116 75.5t-150.5 27.5q-84 0 -151.5 -27.5t-116.5 -75.5t-75.5 -113.5t-26.5 -141.5z" />
<glyph unicode="&#xbb;" horiz-adv-x="1472" d="M232 267v55l348 395l-348 395v56h178l399 -451l-399 -450h-178zM776 267v55l348 395l-348 395v56h178l399 -451l-399 -450h-178z" />
<glyph unicode="&#xbc;" horiz-adv-x="2555" d="M160 506v104h172q33 0 55.5 7.5t22.5 54.5v483q0 41 -13.5 52.5t-54.5 11.5h-176v104h117q88 0 132 31.5t66 89.5h109v-770q0 -41 13 -52.5t65 -11.5h147v-104h-655zM639 25l1044 1454l101 -70l-1045 -1454zM1280 223v100l770 611h119v-590h84q57 0 81.5 23.5t41.5 89.5 l88 -21l-35 -213h-260v-84q0 -16 13.5 -25.5t33.5 -9.5h160v-104h-609v104h179q23 0 31 12.5t8 22.5v33q0 14 1 27.5t1 23.5h-707zM1514 344h473v383z" />
<glyph unicode="&#xbd;" horiz-adv-x="2637" d="M160 506v104h172q33 0 55.5 7.5t22.5 54.5v483q0 41 -13.5 52.5t-54.5 11.5h-176v104h117q88 0 132 31.5t66 89.5h109v-770q0 -41 13 -52.5t65 -11.5h147v-104h-655zM610 25l1044 1454l101 -70l-1045 -1454zM1531.5 209q13.5 86 63.5 144.5t136 92t203 49.5 q57 8 123.5 16.5t125 26t97.5 46t39 75.5q0 45 -27 76t-71 50.5t-99 28.5t-111 9q-49 0 -107 -11t-109.5 -38t-89.5 -70t-44 -106l-114 16l28 314h105q4 -16 7 -36t25 -20q14 0 40 12.5t66 26t95 25.5t127 12q98 0 184 -16.5t148.5 -51t98.5 -89t36 -128.5q0 -88 -51 -141 t-126 -84t-160 -44t-152 -19q-74 -8 -139.5 -21.5t-111.5 -39t-68.5 -65.5t-14.5 -100h540q43 0 74 6.5t54.5 25t39 51t25.5 85.5l111 -16l-48 -301h-933q-29 123 -15.5 209z" />
<glyph unicode="&#xbe;" horiz-adv-x="2723" d="M63 643l86 102q20 -18 58.5 -39.5t90.5 -42t115.5 -34t137.5 -13.5q61 0 122.5 9.5t108.5 29t77 48t30 67.5q0 78 -84 105.5t-234 27.5h-219v127h219q98 2 155.5 13.5t88.5 29t40 40t9 48.5q0 76 -84 121t-225 45q-84 0 -145.5 -19.5t-101.5 -49t-61.5 -62.5t-27.5 -59 l-117 12l29 285h104q4 -18 15.5 -34t23.5 -16q14 0 44 15.5t44 19.5q63 16 113.5 25.5t95.5 9.5q106 0 196.5 -19.5t156 -56.5t101.5 -91t36 -124q0 -45 -16.5 -78.5t-43 -58.5t-57.5 -39t-57 -18q35 0 73.5 -12.5t70.5 -37t52.5 -60.5t20.5 -85q0 -68 -38 -121t-108.5 -91 t-169 -57.5t-221.5 -19.5q-80 0 -156.5 13.5t-142 36t-119 50t-86.5 58.5zM805 25l1044 1454l101 -70l-1045 -1454zM1446 223v100l770 611h119v-590h84q57 0 81.5 23.5t41.5 89.5l88 -21l-35 -213h-260v-84q0 -16 13.5 -25.5t33.5 -9.5h160v-104h-609v104h179q23 0 31 12.5 t8 22.5v33q0 14 1 27.5t1 23.5h-707zM1680 344h473v383z" />
<glyph unicode="&#xbf;" horiz-adv-x="1671" d="M86 387q0 92 39 157t103.5 109t147.5 69.5t169 39t169 17.5t149 4v168h176v-293l-27 -25q-31 2 -47 2h-30.5t-29 -1t-42.5 -1q-98 0 -194.5 -12t-173.5 -41t-125 -75t-48 -115q0 -76 47 -127.5t126 -82t180.5 -44t209.5 -13.5q154 0 264.5 25.5t151.5 62.5q33 31 33 76 t-11 129l127 21l60 -359q-49 -20 -123 -39.5t-161 -35t-178 -24.5t-175 -9q-150 0 -292 17t-252 63.5t-176.5 128t-66.5 208.5zM764 1280q0 39 14.5 73t40 58.5t59.5 39t73 14.5q78 0 131 -53.5t53 -131.5q0 -39 -14.5 -72.5t-39 -59t-58 -40t-72.5 -14.5q-78 0 -132.5 54.5 t-54.5 131.5z" />
<glyph unicode="&#xc0;" horiz-adv-x="2088" d="M6 0v127h174q55 0 85 23.5t57 72.5q135 250 267 497t265 497q18 35 7 61.5t-52 26.5h-229v129h526q164 -305 327.5 -605.5t327.5 -605.5q20 -41 52 -68.5t110 -27.5h158v-127h-836v127h201q18 0 35.5 4t28 14.5t12.5 26.5t-11 41l-100 201h-803l-96 -191 q-23 -43 -2.5 -69.5t74.5 -26.5h190v-127h-768zM473 1866v39h234l391 -312v-37h-180zM684 557h649q-86 154 -167 305.5t-165 304.5z" />
<glyph unicode="&#xc1;" horiz-adv-x="2088" d="M6 0v127h174q55 0 85 23.5t57 72.5q135 250 267 497t265 497q18 35 7 61.5t-52 26.5h-229v129h526q164 -305 327.5 -605.5t327.5 -605.5q20 -41 52 -68.5t110 -27.5h158v-127h-836v127h201q18 0 35.5 4t28 14.5t12.5 26.5t-11 41l-100 201h-803l-96 -191 q-23 -43 -2.5 -69.5t74.5 -26.5h190v-127h-768zM684 557h649q-86 154 -167 305.5t-165 304.5zM825 1556v37l392 312h233v-39l-444 -310h-181z" />
<glyph unicode="&#xc2;" horiz-adv-x="2088" d="M6 0v127h174q55 0 85 23.5t57 72.5q135 250 267 497t265 497q18 35 7 61.5t-52 26.5h-229v129h526q164 -305 327.5 -605.5t327.5 -605.5q20 -41 52 -68.5t110 -27.5h158v-127h-836v127h201q18 0 35.5 4t28 14.5t12.5 26.5t-11 41l-100 201h-803l-96 -191 q-23 -43 -2.5 -69.5t74.5 -26.5h190v-127h-768zM532 1556v37l299 312h207l299 -312v-37h-151l-252 218l-250 -218h-152zM684 557h649q-86 154 -167 305.5t-165 304.5z" />
<glyph unicode="&#xc3;" horiz-adv-x="2088" d="M6 0v127h174q55 0 85 23.5t57 72.5q135 250 267 497t265 497q18 35 7 61.5t-52 26.5h-229v129h526q164 -305 327.5 -605.5t327.5 -605.5q20 -41 52 -68.5t110 -27.5h158v-127h-836v127h201q18 0 35.5 4t28 14.5t12.5 26.5t-11 41l-100 201h-803l-96 -191 q-23 -43 -2.5 -69.5t74.5 -26.5h190v-127h-768zM538 1684.5q5 58.5 30.5 104.5t73.5 74.5t122 28.5q57 0 105 -27.5t92 -60t86 -60.5t85 -28q31 0 51.5 18.5t33 45t16.5 57.5t2 55h100q16 -53 10 -110.5t-33.5 -105.5t-75.5 -78.5t-114 -30.5q-57 0 -108.5 27.5t-97.5 60.5 t-87 60.5t-80 27.5q-29 0 -49 -18.5t-32.5 -45t-17.5 -57.5t-1 -53h-106q-10 57 -5 115.5zM684 557h649q-86 154 -167 305.5t-165 304.5z" />
<glyph unicode="&#xc4;" horiz-adv-x="2088" d="M6 0v127h174q55 0 85 23.5t57 72.5q135 250 267 497t265 497q18 35 7 61.5t-52 26.5h-229v129h526q164 -305 327.5 -605.5t327.5 -605.5q20 -41 52 -68.5t110 -27.5h158v-127h-836v127h201q18 0 35.5 4t28 14.5t12.5 26.5t-11 41l-100 201h-803l-96 -191 q-23 -43 -2.5 -69.5t74.5 -26.5h190v-127h-768zM610 1741q0 55 39 94t99 39q61 0 100 -39t39 -94q0 -57 -39 -95t-100 -38q-59 0 -98.5 38t-39.5 95zM684 557h649q-86 154 -167 305.5t-165 304.5zM1026 1741q0 55 38 94t97 39q66 0 105 -39t39 -94q0 -57 -39 -95t-105 -38 q-59 0 -97 38t-38 95z" />
<glyph unicode="&#xc5;" horiz-adv-x="2088" d="M6 0v127h174q55 0 85 23.5t57 72.5q139 260 275 514t273 514q-88 31 -151.5 111t-63.5 197q0 82 31 144t81 105t115.5 64.5t133.5 21.5t131 -22.5t113.5 -65.5t80 -105.5t29.5 -141.5q0 -104 -51 -181.5t-129 -111.5q143 -262 285.5 -521.5t285.5 -521.5q20 -41 52 -68.5 t110 -27.5h158v-127h-836v127h207q43 0 67.5 19.5t-1.5 66.5l-107 201h-803l-96 -191q-20 -45 -1 -70.5t73 -25.5h190v-127h-768zM684 557h649q-86 154 -167 305.5t-165 304.5zM799 1559q0 -96 60.5 -152.5t156.5 -56.5t155.5 56t59.5 153q0 92 -59.5 151t-155.5 59 t-156.5 -59t-60.5 -151z" />
<glyph unicode="&#xc6;" horiz-adv-x="2942" d="M-27 0v125h115q78 0 129 25.5t82 72.5l621 928q51 78 28.5 117t-98.5 39h-180v127h2048l69 -514l-125 -15q-23 143 -57.5 221t-88.5 114t-132 41t-186 5h-519v-477h357q72 0 96.5 24.5t24.5 102.5v139h127v-676h-127v160q0 23 -2.5 42.5t-14.5 33.5t-35.5 22.5t-66.5 8.5 h-359v-523h648q92 2 152.5 19.5t103.5 68t71.5 143.5t57.5 249l120 -13q-23 -154 -41 -305t-41 -305h-1521v125h110q29 0 51.5 2t39 12.5t25.5 32t11 59.5v207h-788l-141 -215q-29 -43 -5.5 -70.5t74.5 -27.5h182v-125h-815zM768 582h698v630q-4 43 -34.5 61.5t-90.5 18.5 q-39 0 -64.5 -8t-44 -20.5t-29.5 -26.5t-19 -27z" />
<glyph unicode="&#xc7;" horiz-adv-x="1779" d="M82 731q0 178 73.5 315.5t192.5 230.5t268.5 140t301.5 47q123 0 214 -21.5t157.5 -48t110.5 -48t73 -21.5q27 0 30.5 35t-2.5 82h125l76 -533l-127 -18q-29 100 -89.5 177t-144.5 130t-184 81t-209 28q-133 0 -250.5 -41t-204.5 -117t-138.5 -184.5t-51.5 -241.5 q0 -139 51.5 -251t142.5 -188.5t214 -117.5t268 -41q190 0 349 73.5t288 219.5l106 -92q-59 -74 -131.5 -137.5t-164 -111.5t-200 -76t-239.5 -32l-18 -78q43 0 92 -7t91 -27.5t69.5 -54t27.5 -89.5q0 -51 -27.5 -88t-72.5 -60.5t-102.5 -34.5t-116.5 -11q-90 0 -169 20.5 t-130 44.5l-31 170l90 13q10 -59 66.5 -94t158.5 -35q82 0 131.5 17t49.5 58q0 35 -38 53.5t-122 18.5q-29 0 -46.5 1t-47.5 -1l-23 27l41 161q-176 12 -319.5 71.5t-244.5 158t-157.5 232.5t-56.5 296z" />
<glyph unicode="&#xc8;" horiz-adv-x="1863" d="M109 0v127h165q31 0 54.5 2t40 12.5t24.5 35t8 67.5v942q0 72 -24.5 95.5t-102.5 23.5h-165v129h1544l76 -521l-62 -8t-61 -8q-20 127 -50 204t-73 118t-102.5 54t-139.5 13h-627v-477h357q72 0 96.5 24.5t24.5 102.5v145h127v-688h-127v166q0 23 -2.5 42.5t-14.5 33.5 t-35.5 22.5t-66.5 8.5h-359v-523h607q100 0 168.5 14.5t115.5 63.5t80 144.5t62 257.5l120 -13q-23 -154 -42 -305t-39 -305h-1577zM591 1866v39h234l391 -312v-37h-180z" />
<glyph unicode="&#xc9;" horiz-adv-x="1863" d="M109 0v127h165q31 0 54.5 2t40 12.5t24.5 35t8 67.5v942q0 72 -24.5 95.5t-102.5 23.5h-165v129h1544l76 -521l-62 -8t-61 -8q-20 127 -50 204t-73 118t-102.5 54t-139.5 13h-627v-477h357q72 0 96.5 24.5t24.5 102.5v145h127v-688h-127v166q0 23 -2.5 42.5t-14.5 33.5 t-35.5 22.5t-66.5 8.5h-359v-523h607q100 0 168.5 14.5t115.5 63.5t80 144.5t62 257.5l120 -13q-23 -154 -42 -305t-39 -305h-1577zM653 1556v37l392 312h233v-39l-444 -310h-181z" />
<glyph unicode="&#xca;" horiz-adv-x="1863" d="M109 0v127h165q31 0 54.5 2t40 12.5t24.5 35t8 67.5v942q0 72 -24.5 95.5t-102.5 23.5h-165v129h1544l76 -521l-62 -8t-61 -8q-20 127 -50 204t-73 118t-102.5 54t-139.5 13h-627v-477h357q72 0 96.5 24.5t24.5 102.5v145h127v-688h-127v166q0 23 -2.5 42.5t-14.5 33.5 t-35.5 22.5t-66.5 8.5h-359v-523h607q100 0 168.5 14.5t115.5 63.5t80 144.5t62 257.5l120 -13q-23 -154 -42 -305t-39 -305h-1577zM548 1556v37l299 312h207l299 -312v-37h-151l-252 218l-250 -218h-152z" />
<glyph unicode="&#xcb;" horiz-adv-x="1863" d="M109 0v127h165q31 0 54.5 2t40 12.5t24.5 35t8 67.5v942q0 72 -24.5 95.5t-102.5 23.5h-165v129h1544l76 -521l-62 -8t-61 -8q-20 127 -50 204t-73 118t-102.5 54t-139.5 13h-627v-477h357q72 0 96.5 24.5t24.5 102.5v145h127v-688h-127v166q0 23 -2.5 42.5t-14.5 33.5 t-35.5 22.5t-66.5 8.5h-359v-523h607q100 0 168.5 14.5t115.5 63.5t80 144.5t62 257.5l120 -13q-23 -154 -42 -305t-39 -305h-1577zM594 1741q0 55 39 94t99 39q61 0 100 -39t39 -94q0 -57 -39 -95t-100 -38q-59 0 -98.5 38t-39.5 95zM1010 1741q0 55 38 94t97 39 q66 0 105 -39t39 -94q0 -57 -39 -95t-105 -38q-59 0 -97 38t-38 95z" />
<glyph unicode="&#xcc;" horiz-adv-x="1017" d="M30 1866v39h234l391 -312v-37h-180zM109 0v127h186q23 0 42 2t33.5 13.5t22.5 35t8 66.5v942q0 80 -29.5 99.5t-97.5 19.5h-165v129h798v-129h-186q-23 0 -42.5 -3.5t-33.5 -14.5t-22.5 -34.5t-8.5 -64.5v-942q0 -72 25 -95.5t102 -23.5h166v-127h-798z" />
<glyph unicode="&#xcd;" horiz-adv-x="1017" d="M109 0v127h186q23 0 42 2t33.5 13.5t22.5 35t8 66.5v942q0 80 -29.5 99.5t-97.5 19.5h-165v129h798v-129h-186q-23 0 -42.5 -3.5t-33.5 -14.5t-22.5 -34.5t-8.5 -64.5v-942q0 -72 25 -95.5t102 -23.5h166v-127h-798zM362 1556v37l392 312h233v-39l-444 -310h-181z" />
<glyph unicode="&#xce;" horiz-adv-x="1017" d="M104 1556v37l299 312h207l299 -312v-37h-151l-252 218l-250 -218h-152zM109 0v127h186q23 0 42 2t33.5 13.5t22.5 35t8 66.5v942q0 80 -29.5 99.5t-97.5 19.5h-165v129h798v-129h-186q-23 0 -42.5 -3.5t-33.5 -14.5t-22.5 -34.5t-8.5 -64.5v-942q0 -72 25 -95.5 t102 -23.5h166v-127h-798z" />
<glyph unicode="&#xcf;" horiz-adv-x="1017" d="M109 0v127h186q23 0 42 2t33.5 13.5t22.5 35t8 66.5v942q0 80 -29.5 99.5t-97.5 19.5h-165v129h798v-129h-186q-23 0 -42.5 -3.5t-33.5 -14.5t-22.5 -34.5t-8.5 -64.5v-942q0 -72 25 -95.5t102 -23.5h166v-127h-798zM159 1741q0 55 39 94t99 39q61 0 100 -39t39 -94 q0 -57 -39 -95t-100 -38q-59 0 -98.5 38t-39.5 95zM575 1741q0 55 38 94t97 39q66 0 105 -39t39 -94q0 -57 -39 -95t-105 -38q-59 0 -97 38t-38 95z" />
<glyph unicode="&#xd0;" horiz-adv-x="1976" d="M150 0v127h186q23 0 42 2t33.5 13.5t22.5 35t8 66.5v397h-292v150h292v395q0 72 -24.5 95.5t-102.5 23.5h-165v129h899q199 0 356.5 -46.5t267 -135.5t166.5 -221t57 -304q0 -164 -57 -297t-166.5 -229.5t-267.5 -148.5t-356 -52h-899zM655 143h402q131 0 242.5 41 t193.5 117t127 183.5t45 242.5q0 141 -44 245.5t-123 175.5t-189.5 105.5t-243.5 34.5h-410v-497h564v-150h-564v-498z" />
<glyph unicode="&#xd1;" horiz-adv-x="2179" d="M109 0v127h186q23 0 42 2t33.5 14.5t22.5 36t8 66.5v940q0 72 -24.5 95.5t-102.5 23.5h-165v129h501l1080 -1117v869q0 72 -25 95.5t-102 23.5h-160v129h735v-129h-186q-23 0 -42.5 -2.5t-33.5 -13.5t-22.5 -34.5t-8.5 -66.5v-1188h-147l-1139 1178v-930 q0 -72 24.5 -96.5t102.5 -24.5h158v-127h-735zM681 1684.5q5 58.5 30.5 104.5t73.5 74.5t122 28.5q57 0 105 -27.5t92 -60t86 -60.5t85 -28q31 0 51.5 18.5t33 45t16.5 57.5t2 55h100q16 -53 10 -110.5t-33.5 -105.5t-75.5 -78.5t-114 -30.5q-57 0 -108.5 27.5t-97.5 60.5 t-87 60.5t-80 27.5q-29 0 -49 -18.5t-32.5 -45t-17.5 -57.5t-1 -53h-106q-10 57 -5 115.5z" />
<glyph unicode="&#xd2;" d="M78 717q0 170 65.5 308t181 235.5t274.5 150.5t347 53t347 -53t274.5 -150.5t181.5 -235.5t66 -308t-66 -308.5t-181.5 -235.5t-274 -150.5t-347.5 -53.5q-188 0 -347 53.5t-274.5 150.5t-181 235.5t-65.5 308.5zM303 717q0 -147 52.5 -258t140.5 -185.5t204.5 -112.5 t245.5 -38t246 38t205 112.5t140 185t52 258.5q0 147 -52 257.5t-140 184.5t-205 112t-246 38t-245.5 -38t-204.5 -112t-140.5 -184.5t-52.5 -257.5zM462 1866v39h234l391 -312v-37h-180z" />
<glyph unicode="&#xd3;" d="M78 717q0 170 65.5 308t181 235.5t274.5 150.5t347 53t347 -53t274.5 -150.5t181.5 -235.5t66 -308t-66 -308.5t-181.5 -235.5t-274 -150.5t-347.5 -53.5q-188 0 -347 53.5t-274.5 150.5t-181 235.5t-65.5 308.5zM303 717q0 -147 52.5 -258t140.5 -185.5t204.5 -112.5 t245.5 -38t246 38t205 112.5t140 185t52 258.5q0 147 -52 257.5t-140 184.5t-205 112t-246 38t-245.5 -38t-204.5 -112t-140.5 -184.5t-52.5 -257.5zM831 1556v37l392 312h233v-39l-444 -310h-181z" />
<glyph unicode="&#xd4;" d="M78 717q0 170 65.5 308t181 235.5t274.5 150.5t347 53t347 -53t274.5 -150.5t181.5 -235.5t66 -308t-66 -308.5t-181.5 -235.5t-274 -150.5t-347.5 -53.5q-188 0 -347 53.5t-274.5 150.5t-181 235.5t-65.5 308.5zM303 717q0 -147 52.5 -258t140.5 -185.5t204.5 -112.5 t245.5 -38t246 38t205 112.5t140 185t52 258.5q0 147 -52 257.5t-140 184.5t-205 112t-246 38t-245.5 -38t-204.5 -112t-140.5 -184.5t-52.5 -257.5zM542 1556v37l299 312h207l299 -312v-37h-151l-252 218l-250 -218h-152z" />
<glyph unicode="&#xd5;" d="M78 717q0 170 65.5 308t181 235.5t274.5 150.5t347 53t347 -53t274.5 -150.5t181.5 -235.5t66 -308t-66 -308.5t-181.5 -235.5t-274 -150.5t-347.5 -53.5q-188 0 -347 53.5t-274.5 150.5t-181 235.5t-65.5 308.5zM303 717q0 -147 52.5 -258t140.5 -185.5t204.5 -112.5 t245.5 -38t246 38t205 112.5t140 185t52 258.5q0 147 -52 257.5t-140 184.5t-205 112t-246 38t-245.5 -38t-204.5 -112t-140.5 -184.5t-52.5 -257.5zM538 1684.5q5 58.5 30.5 104.5t73.5 74.5t122 28.5q57 0 105 -27.5t92 -60t86 -60.5t85 -28q31 0 51.5 18.5t33 45 t16.5 57.5t2 55h100q16 -53 10 -110.5t-33.5 -105.5t-75.5 -78.5t-114 -30.5q-57 0 -108.5 27.5t-97.5 60.5t-87 60.5t-80 27.5q-29 0 -49 -18.5t-32.5 -45t-17.5 -57.5t-1 -53h-106q-10 57 -5 115.5z" />
<glyph unicode="&#xd6;" d="M78 717q0 170 65.5 308t181 235.5t274.5 150.5t347 53t347 -53t274.5 -150.5t181.5 -235.5t66 -308t-66 -308.5t-181.5 -235.5t-274 -150.5t-347.5 -53.5q-188 0 -347 53.5t-274.5 150.5t-181 235.5t-65.5 308.5zM303 717q0 -147 52.5 -258t140.5 -185.5t204.5 -112.5 t245.5 -38t246 38t205 112.5t140 185t52 258.5q0 147 -52 257.5t-140 184.5t-205 112t-246 38t-245.5 -38t-204.5 -112t-140.5 -184.5t-52.5 -257.5zM596 1741q0 55 39 94t99 39q61 0 100 -39t39 -94q0 -57 -39 -95t-100 -38q-59 0 -98.5 38t-39.5 95zM1012 1741q0 55 38 94 t97 39q66 0 105 -39t39 -94q0 -57 -39 -95t-105 -38q-59 0 -97 38t-38 95z" />
<glyph unicode="&#xd7;" horiz-adv-x="1241" d="M150 348l364 365l-364 362l104 107q92 -92 182 -182.5t182 -182.5l365 365q27 -27 53.5 -52.5t53.5 -54.5l-365 -362l365 -365q-27 -29 -53.5 -54.5t-53.5 -51.5l-365 364l-182 -182l-182 -182z" />
<glyph unicode="&#xd8;" d="M78 717q0 170 65.5 308t181 235.5t274.5 150.5t347 53q137 0 258 -28.5t223 -81.5l158 172l105 -101l-140 -155q123 -98 194 -237.5t71 -315.5q0 -170 -66 -308.5t-181.5 -235.5t-274 -150.5t-347.5 -53.5q-137 0 -258 29t-225 82l-156 -172l-106 100l141 156 q-125 98 -194.5 237.5t-69.5 315.5zM303 717q0 -135 47 -236.5t129 -173.5l826 916q-158 86 -359 86q-129 0 -245.5 -38t-204.5 -112t-140.5 -184.5t-52.5 -257.5zM586 209q78 -43 170 -64.5t190 -21.5q129 0 246 38t205 112.5t140 185.5t52 258q0 135 -48 235.5t-130 171.5 z" />
<glyph unicode="&#xd9;" horiz-adv-x="2091" d="M68 1309v125h780v-125h-168q-41 0 -64.5 -7.5t-37 -22.5t-17.5 -40t-6 -61v-564q0 -133 37 -225t105.5 -151.5t164.5 -86t213 -26.5q119 0 215 26.5t165 86t106.5 151.5t37.5 225v564q-2 37 -5 62.5t-14 40.5t-34.5 21.5t-62.5 6.5h-176v125h714v-125h-151 q-41 0 -64.5 -7.5t-35 -22.5t-14.5 -40t-3 -61v-570q0 -336 -178 -487.5t-516 -151.5q-170 0 -303 37t-225.5 115t-141.5 198.5t-49 288.5v570q-2 78 -26.5 104.5t-96.5 26.5h-149zM561 1866v39h234l391 -312v-37h-180z" />
<glyph unicode="&#xda;" horiz-adv-x="2091" d="M68 1309v125h780v-125h-168q-41 0 -64.5 -7.5t-37 -22.5t-17.5 -40t-6 -61v-564q0 -133 37 -225t105.5 -151.5t164.5 -86t213 -26.5q119 0 215 26.5t165 86t106.5 151.5t37.5 225v564q-2 37 -5 62.5t-14 40.5t-34.5 21.5t-62.5 6.5h-176v125h714v-125h-151 q-41 0 -64.5 -7.5t-35 -22.5t-14.5 -40t-3 -61v-570q0 -336 -178 -487.5t-516 -151.5q-170 0 -303 37t-225.5 115t-141.5 198.5t-49 288.5v570q-2 78 -26.5 104.5t-96.5 26.5h-149zM944 1556v37l392 312h233v-39l-444 -310h-181z" />
<glyph unicode="&#xdb;" horiz-adv-x="2091" d="M68 1309v125h780v-125h-168q-41 0 -64.5 -7.5t-37 -22.5t-17.5 -40t-6 -61v-564q0 -133 37 -225t105.5 -151.5t164.5 -86t213 -26.5q119 0 215 26.5t165 86t106.5 151.5t37.5 225v564q-2 37 -5 62.5t-14 40.5t-34.5 21.5t-62.5 6.5h-176v125h714v-125h-151 q-41 0 -64.5 -7.5t-35 -22.5t-14.5 -40t-3 -61v-570q0 -336 -178 -487.5t-516 -151.5q-170 0 -303 37t-225.5 115t-141.5 198.5t-49 288.5v570q-2 78 -26.5 104.5t-96.5 26.5h-149zM671 1556v37l299 312h207l299 -312v-37h-151l-252 218l-250 -218h-152z" />
<glyph unicode="&#xdc;" horiz-adv-x="2091" d="M68 1309v125h780v-125h-168q-41 0 -64.5 -7.5t-37 -22.5t-17.5 -40t-6 -61v-564q0 -133 37 -225t105.5 -151.5t164.5 -86t213 -26.5q119 0 215 26.5t165 86t106.5 151.5t37.5 225v564q-2 37 -5 62.5t-14 40.5t-34.5 21.5t-62.5 6.5h-176v125h714v-125h-151 q-41 0 -64.5 -7.5t-35 -22.5t-14.5 -40t-3 -61v-570q0 -336 -178 -487.5t-516 -151.5q-170 0 -303 37t-225.5 115t-141.5 198.5t-49 288.5v570q-2 78 -26.5 104.5t-96.5 26.5h-149zM729 1741q0 55 39 94t99 39q61 0 100 -39t39 -94q0 -57 -39 -95t-100 -38q-59 0 -98.5 38 t-39.5 95zM1145 1741q0 55 38 94t97 39q66 0 105 -39t39 -94q0 -57 -39 -95t-105 -38q-59 0 -97 38t-38 95z" />
<glyph unicode="&#xdd;" horiz-adv-x="1937" d="M27 1305v129h833v-129h-192q-51 0 -59.5 -28t24.5 -69q96 -121 189 -239.5t192 -239.5l370 479q12 16 19.5 34t6.5 31t-14.5 22.5t-43.5 9.5h-166v129h723v-129h-84q-66 0 -131.5 -17.5t-114.5 -79.5l-485 -616v-346q0 -72 24.5 -95.5t102.5 -23.5h165v-127h-798v127h184 q23 0 42.5 2t33.5 13.5t22.5 35t8.5 66.5v340l-512 624q-49 59 -104.5 78t-127.5 19h-108zM843 1556v37l392 312h233v-39l-444 -310h-181z" />
<glyph unicode="&#xde;" horiz-adv-x="1683" d="M109 0v127h186q23 0 42 2t33.5 14.5t22.5 36t8 66.5v942q0 72 -24.5 94.5t-102.5 22.5h-165v129h1026v-129h-324q-68 0 -106.5 -8.5t-58 -30t-25 -61.5t-5.5 -103h543q219 0 342 -104.5t123 -278.5q0 -86 -31.5 -158t-92 -123t-146.5 -78.5t-195 -27.5h-543 q0 -55 5.5 -94t25 -63.5t58 -36t106.5 -11.5h324v-127h-1026zM616 475h498q143 0 211 65.5t68 176.5t-75 176t-202 65h-500v-483z" />
<glyph unicode="&#xdf;" horiz-adv-x="2052" d="M109 0v127h186q23 0 42 2t33.5 14.5t22.5 36t8 66.5v940q0 72 -24.5 95.5t-102.5 23.5h-165v129h1648l53 -121l-571 -455h180q104 0 207 -23.5t182.5 -75.5t129 -136t49.5 -203q0 -115 -42 -200t-122 -140t-192.5 -83t-254.5 -28q-178 0 -330.5 28t-238.5 73l63 352 l119 -16q-4 -35 -5 -61t-1 -47.5t3 -38.5t11 -38q10 -29 44 -49t82 -32.5t106.5 -18.5t120.5 -6q211 0 311 87t100 222q0 78 -30.5 134t-86 92t-134 53.5t-175.5 17.5h-383l-49 108l578 461h-865v-1290h-507z" />
<glyph unicode="&#xe0;" horiz-adv-x="2088" d="M6 0v127h174q55 0 85 23.5t57 72.5q135 250 267 497t265 497q18 35 7 61.5t-52 26.5h-229v129h526q164 -305 327.5 -605.5t327.5 -605.5q20 -41 52 -68.5t110 -27.5h158v-127h-836v127h201q18 0 35.5 4t28 14.5t12.5 26.5t-11 41l-100 201h-803l-96 -191 q-23 -43 -2.5 -69.5t74.5 -26.5h190v-127h-768zM460 1866v39h234l391 -312v-37h-180zM684 557h649q-86 154 -167 305.5t-165 304.5z" />
<glyph unicode="&#xe1;" horiz-adv-x="2088" d="M6 0v127h174q55 0 85 23.5t57 72.5q135 250 267 497t265 497q18 35 7 61.5t-52 26.5h-229v129h526q164 -305 327.5 -605.5t327.5 -605.5q20 -41 52 -68.5t110 -27.5h158v-127h-836v127h201q18 0 35.5 4t28 14.5t12.5 26.5t-11 41l-100 201h-803l-96 -191 q-23 -43 -2.5 -69.5t74.5 -26.5h190v-127h-768zM684 557h649q-86 154 -167 305.5t-165 304.5zM813 1556v37l392 312h233v-39l-444 -310h-181z" />
<glyph unicode="&#xe2;" horiz-adv-x="2088" d="M6 0v127h174q55 0 85 23.5t57 72.5q135 250 267 497t265 497q18 35 7 61.5t-52 26.5h-229v129h526q164 -305 327.5 -605.5t327.5 -605.5q20 -41 52 -68.5t110 -27.5h158v-127h-836v127h201q18 0 35.5 4t28 14.5t12.5 26.5t-11 41l-100 201h-803l-96 -191 q-23 -43 -2.5 -69.5t74.5 -26.5h190v-127h-768zM532 1556v37l299 312h207l299 -312v-37h-151l-252 218l-250 -218h-152zM684 557h649q-86 154 -167 305.5t-165 304.5z" />
<glyph unicode="&#xe3;" horiz-adv-x="2088" d="M6 0v127h174q55 0 85 23.5t57 72.5q135 250 267 497t265 497q18 35 7 61.5t-52 26.5h-229v129h526q164 -305 327.5 -605.5t327.5 -605.5q20 -41 52 -68.5t110 -27.5h158v-127h-836v127h201q18 0 35.5 4t28 14.5t12.5 26.5t-11 41l-100 201h-803l-96 -191 q-23 -43 -2.5 -69.5t74.5 -26.5h190v-127h-768zM538 1684.5q5 58.5 30.5 104.5t73.5 74.5t122 28.5q57 0 105 -27.5t92 -60t86 -60.5t85 -28q31 0 51.5 18.5t33 45t16.5 57.5t2 55h100q16 -53 10 -110.5t-33.5 -105.5t-75.5 -78.5t-114 -30.5q-57 0 -108.5 27.5t-97.5 60.5 t-87 60.5t-80 27.5q-29 0 -49 -18.5t-32.5 -45t-17.5 -57.5t-1 -53h-106q-10 57 -5 115.5zM684 557h649q-86 154 -167 305.5t-165 304.5z" />
<glyph unicode="&#xe4;" horiz-adv-x="2088" d="M6 0v127h174q55 0 85 23.5t57 72.5q135 250 267 497t265 497q18 35 7 61.5t-52 26.5h-229v129h526q164 -305 327.5 -605.5t327.5 -605.5q20 -41 52 -68.5t110 -27.5h158v-127h-836v127h201q18 0 35.5 4t28 14.5t12.5 26.5t-11 41l-100 201h-803l-96 -191 q-23 -43 -2.5 -69.5t74.5 -26.5h190v-127h-768zM610 1741q0 55 39 94t99 39q61 0 100 -39t39 -94q0 -57 -39 -95t-100 -38q-59 0 -98.5 38t-39.5 95zM684 557h649q-86 154 -167 305.5t-165 304.5zM1026 1741q0 55 38 94t97 39q66 0 105 -39t39 -94q0 -57 -39 -95t-105 -38 q-59 0 -97 38t-38 95z" />
<glyph unicode="&#xe5;" horiz-adv-x="2088" d="M6 0v127h174q55 0 85 23.5t57 72.5q139 260 275 514t273 514q-88 31 -151.5 111t-63.5 197q0 82 31 144t81 105t115.5 64.5t133.5 21.5t131 -22.5t113.5 -65.5t80 -105.5t29.5 -141.5q0 -104 -51 -181.5t-129 -111.5q143 -262 285.5 -521.5t285.5 -521.5q20 -41 52 -68.5 t110 -27.5h158v-127h-836v127h207q43 0 67.5 19.5t-1.5 66.5l-107 201h-803l-96 -191q-20 -45 -1 -70.5t73 -25.5h190v-127h-768zM684 557h649q-86 154 -167 305.5t-165 304.5zM799 1559q0 -96 60.5 -152.5t156.5 -56.5t155.5 56t59.5 153q0 92 -59.5 151t-155.5 59 t-156.5 -59t-60.5 -151z" />
<glyph unicode="&#xe6;" horiz-adv-x="2942" d="M-27 0v125h115q78 0 129 25.5t82 72.5l621 928q51 78 28.5 117t-98.5 39h-180v127h2048l69 -514l-125 -15q-23 143 -57.5 221t-88.5 114t-132 41t-186 5h-519v-477h357q72 0 96.5 24.5t24.5 102.5v139h127v-676h-127v160q0 23 -2.5 42.5t-14.5 33.5t-35.5 22.5t-66.5 8.5 h-359v-523h648q92 2 152.5 19.5t103.5 68t71.5 143.5t57.5 249l120 -13q-23 -154 -41 -305t-41 -305h-1521v125h110q29 0 51.5 2t39 12.5t25.5 32t11 59.5v207h-788l-141 -215q-29 -43 -5.5 -70.5t74.5 -27.5h182v-125h-815zM768 582h698v630q-4 43 -34.5 61.5t-90.5 18.5 q-39 0 -64.5 -8t-44 -20.5t-29.5 -26.5t-19 -27z" />
<glyph unicode="&#xe7;" horiz-adv-x="1783" d="M82 731q0 178 73.5 315.5t192.5 230.5t268.5 140t301.5 47q123 0 214 -21.5t157.5 -48t110.5 -48t73 -21.5q27 0 30.5 35t-2.5 82h125l76 -533l-127 -18q-29 100 -89.5 177t-144.5 130t-184 81t-209 28q-133 0 -250.5 -41t-204.5 -117t-138.5 -184.5t-51.5 -241.5 q0 -139 51.5 -251t142.5 -188.5t214 -117.5t268 -41q190 0 349 73.5t288 219.5l106 -92q-59 -74 -131.5 -137.5t-164 -111.5t-200 -76t-239.5 -32l-18 -78q43 0 92 -7t91 -27.5t69.5 -54t27.5 -89.5q0 -51 -27.5 -88t-72.5 -60.5t-102.5 -34.5t-116.5 -11q-90 0 -169 20.5 t-130 44.5l-31 170l90 13q10 -59 66.5 -94t158.5 -35q82 0 131.5 17t49.5 58q0 35 -38 53.5t-122 18.5q-29 0 -46.5 1t-47.5 -1l-23 27l41 161q-176 12 -319.5 71.5t-244.5 158t-157.5 232.5t-56.5 296z" />
<glyph unicode="&#xe8;" horiz-adv-x="1863" d="M109 0v127h165q31 0 54.5 2t40 12.5t24.5 35t8 67.5v942q0 72 -24.5 95.5t-102.5 23.5h-165v129h1544l76 -521l-62 -8t-61 -8q-20 127 -50 204t-73 118t-102.5 54t-139.5 13h-627v-477h357q72 0 96.5 24.5t24.5 102.5v145h127v-688h-127v166q0 23 -2.5 42.5t-14.5 33.5 t-35.5 22.5t-66.5 8.5h-359v-523h607q100 0 168.5 14.5t115.5 63.5t80 144.5t62 257.5l120 -13q-23 -154 -42 -305t-39 -305h-1577zM591 1866v39h234l391 -312v-37h-180z" />
<glyph unicode="&#xe9;" horiz-adv-x="1863" d="M109 0v127h165q31 0 54.5 2t40 12.5t24.5 35t8 67.5v942q0 72 -24.5 95.5t-102.5 23.5h-165v129h1544l76 -521l-62 -8t-61 -8q-20 127 -50 204t-73 118t-102.5 54t-139.5 13h-627v-477h357q72 0 96.5 24.5t24.5 102.5v145h127v-688h-127v166q0 23 -2.5 42.5t-14.5 33.5 t-35.5 22.5t-66.5 8.5h-359v-523h607q100 0 168.5 14.5t115.5 63.5t80 144.5t62 257.5l120 -13q-23 -154 -42 -305t-39 -305h-1577zM591 1556v37l392 312h233v-39l-444 -310h-181z" />
<glyph unicode="&#xea;" horiz-adv-x="1863" d="M109 0v127h165q31 0 54.5 2t40 12.5t24.5 35t8 67.5v942q0 72 -24.5 95.5t-102.5 23.5h-165v129h1544l76 -521l-62 -8t-61 -8q-20 127 -50 204t-73 118t-102.5 54t-139.5 13h-627v-477h357q72 0 96.5 24.5t24.5 102.5v145h127v-688h-127v166q0 23 -2.5 42.5t-14.5 33.5 t-35.5 22.5t-66.5 8.5h-359v-523h607q100 0 168.5 14.5t115.5 63.5t80 144.5t62 257.5l120 -13q-23 -154 -42 -305t-39 -305h-1577zM548 1556v37l299 312h207l299 -312v-37h-151l-252 218l-250 -218h-152z" />
<glyph unicode="&#xeb;" horiz-adv-x="1863" d="M109 0v127h165q31 0 54.5 2t40 12.5t24.5 35t8 67.5v942q0 72 -24.5 95.5t-102.5 23.5h-165v129h1544l76 -521l-62 -8t-61 -8q-20 127 -50 204t-73 118t-102.5 54t-139.5 13h-627v-477h357q72 0 96.5 24.5t24.5 102.5v145h127v-688h-127v166q0 23 -2.5 42.5t-14.5 33.5 t-35.5 22.5t-66.5 8.5h-359v-523h607q100 0 168.5 14.5t115.5 63.5t80 144.5t62 257.5l120 -13q-23 -154 -42 -305t-39 -305h-1577zM594 1741q0 55 39 94t99 39q61 0 100 -39t39 -94q0 -57 -39 -95t-100 -38q-59 0 -98.5 38t-39.5 95zM1010 1741q0 55 38 94t97 39 q66 0 105 -39t39 -94q0 -57 -39 -95t-105 -38q-59 0 -97 38t-38 95z" />
<glyph unicode="&#xec;" horiz-adv-x="1017" d="M30 1866v39h234l391 -312v-37h-180zM109 0v127h186q23 0 42 2t33.5 13.5t22.5 35t8 66.5v942q0 80 -29.5 99.5t-97.5 19.5h-165v129h798v-129h-186q-23 0 -42.5 -3.5t-33.5 -14.5t-22.5 -34.5t-8.5 -64.5v-942q0 -72 25 -95.5t102 -23.5h166v-127h-798z" />
<glyph unicode="&#xed;" horiz-adv-x="1017" d="M109 0v127h186q23 0 42 2t33.5 13.5t22.5 35t8 66.5v942q0 80 -29.5 99.5t-97.5 19.5h-165v129h798v-129h-186q-23 0 -42.5 -3.5t-33.5 -14.5t-22.5 -34.5t-8.5 -64.5v-942q0 -72 25 -95.5t102 -23.5h166v-127h-798zM362 1556v37l392 312h233v-39l-444 -310h-181z" />
<glyph unicode="&#xee;" horiz-adv-x="1017" d="M104 1556v37l299 312h207l299 -312v-37h-151l-252 218l-250 -218h-152zM109 0v127h186q23 0 42 2t33.5 13.5t22.5 35t8 66.5v942q0 80 -29.5 99.5t-97.5 19.5h-165v129h798v-129h-186q-23 0 -42.5 -3.5t-33.5 -14.5t-22.5 -34.5t-8.5 -64.5v-942q0 -72 25 -95.5 t102 -23.5h166v-127h-798z" />
<glyph unicode="&#xef;" horiz-adv-x="1017" d="M109 0v127h186q23 0 42 2t33.5 13.5t22.5 35t8 66.5v942q0 80 -29.5 99.5t-97.5 19.5h-165v129h798v-129h-186q-23 0 -42.5 -3.5t-33.5 -14.5t-22.5 -34.5t-8.5 -64.5v-942q0 -72 25 -95.5t102 -23.5h166v-127h-798zM159 1741q0 55 39 94t99 39q61 0 100 -39t39 -94 q0 -57 -39 -95t-100 -38q-59 0 -98.5 38t-39.5 95zM575 1741q0 55 38 94t97 39q66 0 105 -39t39 -94q0 -57 -39 -95t-105 -38q-59 0 -97 38t-38 95z" />
<glyph unicode="&#xf0;" horiz-adv-x="1976" d="M150 0v127h186q23 0 42 2t33.5 13.5t22.5 35t8 66.5v397h-292v150h292v395q0 72 -24.5 95.5t-102.5 23.5h-165v129h899q199 0 356.5 -46.5t267 -135.5t166.5 -221t57 -304q0 -164 -57 -297t-166.5 -229.5t-267.5 -148.5t-356 -52h-899zM655 143h402q131 0 242.5 41 t193.5 117t127 183.5t45 242.5q0 141 -44 245.5t-123 175.5t-189.5 105.5t-243.5 34.5h-410v-497h564v-150h-564v-498z" />
<glyph unicode="&#xf1;" horiz-adv-x="2220" d="M109 0v127h186q23 0 42 2t33.5 14.5t22.5 36t8 66.5v940q0 72 -24.5 95.5t-102.5 23.5h-165v129h501l1080 -1117v869q0 72 -25 95.5t-102 23.5h-160v129h735v-129h-186q-23 0 -42.5 -2.5t-33.5 -13.5t-22.5 -34.5t-8.5 -66.5v-1188h-147l-1139 1178v-930 q0 -72 24.5 -96.5t102.5 -24.5h158v-127h-735zM702 1684.5q5 58.5 30.5 104.5t73.5 74.5t122 28.5q57 0 105 -27.5t92 -60t86 -60.5t85 -28q31 0 51.5 18.5t33 45t16.5 57.5t2 55h100q16 -53 10 -110.5t-33.5 -105.5t-75.5 -78.5t-114 -30.5q-57 0 -108.5 27.5t-97.5 60.5 t-87 60.5t-80 27.5q-29 0 -49 -18.5t-32.5 -45t-17.5 -57.5t-1 -53h-106q-10 57 -5 115.5z" />
<glyph unicode="&#xf2;" d="M78 717q0 170 65.5 308t181 235.5t274.5 150.5t347 53t347 -53t274.5 -150.5t181.5 -235.5t66 -308t-66 -308.5t-181.5 -235.5t-274 -150.5t-347.5 -53.5q-188 0 -347 53.5t-274.5 150.5t-181 235.5t-65.5 308.5zM303 717q0 -147 52.5 -258t140.5 -185.5t204.5 -112.5 t245.5 -38t246 38t205 112.5t140 185t52 258.5q0 147 -52 257.5t-140 184.5t-205 112t-246 38t-245.5 -38t-204.5 -112t-140.5 -184.5t-52.5 -257.5zM462 1866v39h234l391 -312v-37h-180z" />
<glyph unicode="&#xf3;" d="M78 717q0 170 65.5 308t181 235.5t274.5 150.5t347 53t347 -53t274.5 -150.5t181.5 -235.5t66 -308t-66 -308.5t-181.5 -235.5t-274 -150.5t-347.5 -53.5q-188 0 -347 53.5t-274.5 150.5t-181 235.5t-65.5 308.5zM303 717q0 -147 52.5 -258t140.5 -185.5t204.5 -112.5 t245.5 -38t246 38t205 112.5t140 185t52 258.5q0 147 -52 257.5t-140 184.5t-205 112t-246 38t-245.5 -38t-204.5 -112t-140.5 -184.5t-52.5 -257.5zM831 1556v37l392 312h233v-39l-444 -310h-181z" />
<glyph unicode="&#xf4;" d="M78 717q0 170 65.5 308t181 235.5t274.5 150.5t347 53t347 -53t274.5 -150.5t181.5 -235.5t66 -308t-66 -308.5t-181.5 -235.5t-274 -150.5t-347.5 -53.5q-188 0 -347 53.5t-274.5 150.5t-181 235.5t-65.5 308.5zM303 717q0 -147 52.5 -258t140.5 -185.5t204.5 -112.5 t245.5 -38t246 38t205 112.5t140 185t52 258.5q0 147 -52 257.5t-140 184.5t-205 112t-246 38t-245.5 -38t-204.5 -112t-140.5 -184.5t-52.5 -257.5zM542 1556v37l299 312h207l299 -312v-37h-151l-252 218l-250 -218h-152z" />
<glyph unicode="&#xf5;" d="M78 717q0 170 65.5 308t181 235.5t274.5 150.5t347 53t347 -53t274.5 -150.5t181.5 -235.5t66 -308t-66 -308.5t-181.5 -235.5t-274 -150.5t-347.5 -53.5q-188 0 -347 53.5t-274.5 150.5t-181 235.5t-65.5 308.5zM303 717q0 -147 52.5 -258t140.5 -185.5t204.5 -112.5 t245.5 -38t246 38t205 112.5t140 185t52 258.5q0 147 -52 257.5t-140 184.5t-205 112t-246 38t-245.5 -38t-204.5 -112t-140.5 -184.5t-52.5 -257.5zM538 1684.5q5 58.5 30.5 104.5t73.5 74.5t122 28.5q57 0 105 -27.5t92 -60t86 -60.5t85 -28q31 0 51.5 18.5t33 45 t16.5 57.5t2 55h100q16 -53 10 -110.5t-33.5 -105.5t-75.5 -78.5t-114 -30.5q-57 0 -108.5 27.5t-97.5 60.5t-87 60.5t-80 27.5q-29 0 -49 -18.5t-32.5 -45t-17.5 -57.5t-1 -53h-106q-10 57 -5 115.5z" />
<glyph unicode="&#xf6;" d="M78 717q0 170 65.5 308t181 235.5t274.5 150.5t347 53t347 -53t274.5 -150.5t181.5 -235.5t66 -308t-66 -308.5t-181.5 -235.5t-274 -150.5t-347.5 -53.5q-188 0 -347 53.5t-274.5 150.5t-181 235.5t-65.5 308.5zM303 717q0 -147 52.5 -258t140.5 -185.5t204.5 -112.5 t245.5 -38t246 38t205 112.5t140 185t52 258.5q0 147 -52 257.5t-140 184.5t-205 112t-246 38t-245.5 -38t-204.5 -112t-140.5 -184.5t-52.5 -257.5zM596 1741q0 55 39 94t99 39q61 0 100 -39t39 -94q0 -57 -39 -95t-100 -38q-59 0 -98.5 38t-39.5 95zM1012 1741q0 55 38 94 t97 39q66 0 105 -39t39 -94q0 -57 -39 -95t-105 -38q-59 0 -97 38t-38 95z" />
<glyph unicode="&#xf7;" horiz-adv-x="1284" d="M108 641v150h1065v-150h-1065zM506 294q0 29 10.5 54t29 44t44 30t54.5 11q58 0 98 -41t40 -98q0 -30 -10.5 -55.5t-29 -44t-44 -29t-54.5 -10.5q-58 0 -98 40t-40 99zM506 1122q0 29 10.5 54t29 44t44 30t54.5 11q58 0 98 -41t40 -98q0 -30 -10.5 -55.5t-29 -44t-44 -29 t-54.5 -10.5q-58 0 -98 40t-40 99z" />
<glyph unicode="&#xf8;" d="M78 717q0 170 65.5 308t181 235.5t274.5 150.5t347 53q137 0 258 -28.5t223 -81.5l158 172l105 -101l-140 -155q123 -98 194 -237.5t71 -315.5q0 -170 -66 -308.5t-181.5 -235.5t-274 -150.5t-347.5 -53.5q-137 0 -258 29t-225 82l-156 -172l-106 100l141 156 q-125 98 -194.5 237.5t-69.5 315.5zM303 717q0 -135 47 -236.5t129 -173.5l826 916q-158 86 -359 86q-129 0 -245.5 -38t-204.5 -112t-140.5 -184.5t-52.5 -257.5zM586 209q78 -43 170 -64.5t190 -21.5q129 0 246 38t205 112.5t140 185.5t52 258q0 135 -48 235.5t-130 171.5 z" />
<glyph unicode="&#xf9;" horiz-adv-x="2091" d="M68 1309v125h780v-125h-168q-41 0 -64.5 -7.5t-37 -22.5t-17.5 -40t-6 -61v-564q0 -133 37 -225t105.5 -151.5t164.5 -86t213 -26.5q119 0 215 26.5t165 86t106.5 151.5t37.5 225v564q-2 37 -5 62.5t-14 40.5t-34.5 21.5t-62.5 6.5h-176v125h714v-125h-151 q-41 0 -64.5 -7.5t-35 -22.5t-14.5 -40t-3 -61v-570q0 -336 -178 -487.5t-516 -151.5q-170 0 -303 37t-225.5 115t-141.5 198.5t-49 288.5v570q-2 78 -26.5 104.5t-96.5 26.5h-149zM561 1866v39h234l391 -312v-37h-180z" />
<glyph unicode="&#xfa;" horiz-adv-x="2091" d="M68 1309v125h780v-125h-168q-41 0 -64.5 -7.5t-37 -22.5t-17.5 -40t-6 -61v-564q0 -133 37 -225t105.5 -151.5t164.5 -86t213 -26.5q119 0 215 26.5t165 86t106.5 151.5t37.5 225v564q-2 37 -5 62.5t-14 40.5t-34.5 21.5t-62.5 6.5h-176v125h714v-125h-151 q-41 0 -64.5 -7.5t-35 -22.5t-14.5 -40t-3 -61v-570q0 -336 -178 -487.5t-516 -151.5q-170 0 -303 37t-225.5 115t-141.5 198.5t-49 288.5v570q-2 78 -26.5 104.5t-96.5 26.5h-149zM944 1556v37l392 312h233v-39l-444 -310h-181z" />
<glyph unicode="&#xfb;" horiz-adv-x="2091" d="M68 1309v125h780v-125h-168q-41 0 -64.5 -7.5t-37 -22.5t-17.5 -40t-6 -61v-564q0 -133 37 -225t105.5 -151.5t164.5 -86t213 -26.5q119 0 215 26.5t165 86t106.5 151.5t37.5 225v564q-2 37 -5 62.5t-14 40.5t-34.5 21.5t-62.5 6.5h-176v125h714v-125h-151 q-41 0 -64.5 -7.5t-35 -22.5t-14.5 -40t-3 -61v-570q0 -336 -178 -487.5t-516 -151.5q-170 0 -303 37t-225.5 115t-141.5 198.5t-49 288.5v570q-2 78 -26.5 104.5t-96.5 26.5h-149zM671 1556v37l299 312h207l299 -312v-37h-151l-252 218l-250 -218h-152z" />
<glyph unicode="&#xfc;" horiz-adv-x="2091" d="M68 1309v125h780v-125h-168q-41 0 -64.5 -7.5t-37 -22.5t-17.5 -40t-6 -61v-564q0 -133 37 -225t105.5 -151.5t164.5 -86t213 -26.5q119 0 215 26.5t165 86t106.5 151.5t37.5 225v564q-2 37 -5 62.5t-14 40.5t-34.5 21.5t-62.5 6.5h-176v125h714v-125h-151 q-41 0 -64.5 -7.5t-35 -22.5t-14.5 -40t-3 -61v-570q0 -336 -178 -487.5t-516 -151.5q-170 0 -303 37t-225.5 115t-141.5 198.5t-49 288.5v570q-2 78 -26.5 104.5t-96.5 26.5h-149zM729 1741q0 55 39 94t99 39q61 0 100 -39t39 -94q0 -57 -39 -95t-100 -38q-59 0 -98.5 38 t-39.5 95zM1145 1741q0 55 38 94t97 39q66 0 105 -39t39 -94q0 -57 -39 -95t-105 -38q-59 0 -97 38t-38 95z" />
<glyph unicode="&#xfd;" horiz-adv-x="1937" d="M27 1305v129h833v-129h-192q-51 0 -59.5 -28t24.5 -69q96 -121 189 -239.5t192 -239.5l370 479q12 16 19.5 34t6.5 31t-14.5 22.5t-43.5 9.5h-166v129h723v-129h-84q-66 0 -131.5 -17.5t-114.5 -79.5l-485 -616v-346q0 -72 24.5 -95.5t102.5 -23.5h165v-127h-798v127h184 q23 0 42.5 2t33.5 13.5t22.5 35t8.5 66.5v340l-512 624q-49 59 -104.5 78t-127.5 19h-108zM843 1556v37l392 312h233v-39l-444 -310h-181z" />
<glyph unicode="&#xfe;" horiz-adv-x="1683" d="M109 0v127h186q23 0 42 2t33.5 14.5t22.5 36t8 66.5v942q0 72 -24.5 94.5t-102.5 22.5h-165v129h1026v-129h-324q-68 0 -106.5 -8.5t-58 -30t-25 -61.5t-5.5 -103h543q219 0 342 -104.5t123 -278.5q0 -86 -31.5 -158t-92 -123t-146.5 -78.5t-195 -27.5h-543 q0 -55 5.5 -94t25 -63.5t58 -36t106.5 -11.5h324v-127h-1026zM616 475h498q143 0 211 65.5t68 176.5t-75 176t-202 65h-500v-483z" />
<glyph unicode="&#xff;" horiz-adv-x="1937" d="M27 1305v129h833v-129h-192q-51 0 -59.5 -28t24.5 -69q96 -121 189 -239.5t192 -239.5l370 479q12 16 19.5 34t6.5 31t-14.5 22.5t-43.5 9.5h-166v129h723v-129h-84q-66 0 -131.5 -17.5t-114.5 -79.5l-485 -616v-346q0 -72 24.5 -95.5t102.5 -23.5h165v-127h-798v127h184 q23 0 42.5 2t33.5 13.5t22.5 35t8.5 66.5v340l-512 624q-49 59 -104.5 78t-127.5 19h-108zM669 1741q0 55 39 94t99 39q61 0 100 -39t39 -94q0 -57 -39 -95t-100 -38q-59 0 -98.5 38t-39.5 95zM1085 1741q0 55 38 94t97 39q66 0 105 -39t39 -94q0 -57 -39 -95t-105 -38 q-59 0 -97 38t-38 95z" />
<glyph unicode="&#x152;" horiz-adv-x="2828" d="M92 727q0 182 70.5 318.5t192.5 227.5t285 137t349 46q66 0 134.5 -6t138.5 -16h1349l70 -514l-125 -15q-23 145 -58.5 223t-93 113t-139.5 40t-199 5h-493v-477h356q72 0 96.5 24.5t24.5 102.5v139h127v-676h-127v160q0 23 -2 42.5t-14.5 33.5t-36 22.5t-66.5 8.5h-358 v-523h606q100 0 169 14.5t116 63.5t79.5 144.5t61.5 257.5l121 -13q-23 -154 -41.5 -305t-40.5 -305h-1387q-74 -10 -143.5 -16.5t-134.5 -6.5q-203 0 -368 50.5t-279.5 146.5t-177 235.5t-62.5 317.5zM313 727q0 -156 55.5 -269.5t149.5 -188t216 -110.5t257 -36 q78 0 145.5 5t117 25.5t78 59.5t28.5 104v816q0 61 -32 96t-84 52t-116.5 22.5t-130.5 5.5q-127 0 -248.5 -34t-219 -105.5t-157 -181t-59.5 -261.5z" />
<glyph unicode="&#x153;" horiz-adv-x="2828" d="M92 727q0 182 70.5 318.5t192.5 227.5t285 137t349 46q66 0 134.5 -6t138.5 -16h1349l70 -514l-125 -15q-23 145 -58.5 223t-93 113t-139.5 40t-199 5h-493v-477h356q72 0 96.5 24.5t24.5 102.5v139h127v-676h-127v160q0 23 -2 42.5t-14.5 33.5t-36 22.5t-66.5 8.5h-358 v-523h606q100 0 169 14.5t116 63.5t79.5 144.5t61.5 257.5l121 -13q-23 -154 -41.5 -305t-40.5 -305h-1387q-74 -10 -143.5 -16.5t-134.5 -6.5q-203 0 -368 50.5t-279.5 146.5t-177 235.5t-62.5 317.5zM313 727q0 -156 55.5 -269.5t149.5 -188t216 -110.5t257 -36 q78 0 145.5 5t117 25.5t78 59.5t28.5 104v816q0 61 -32 96t-84 52t-116.5 22.5t-130.5 5.5q-127 0 -248.5 -34t-219 -105.5t-157 -181t-59.5 -261.5z" />
<glyph unicode="&#x178;" horiz-adv-x="1937" d="M27 1305v129h833v-129h-192q-51 0 -59.5 -28t24.5 -69q96 -121 189 -239.5t192 -239.5l370 479q12 16 19.5 34t6.5 31t-14.5 22.5t-43.5 9.5h-166v129h723v-129h-84q-66 0 -131.5 -17.5t-114.5 -79.5l-485 -616v-346q0 -72 24.5 -95.5t102.5 -23.5h165v-127h-798v127h184 q23 0 42.5 2t33.5 13.5t22.5 35t8.5 66.5v340l-512 624q-49 59 -104.5 78t-127.5 19h-108zM669 1741q0 55 39 94t99 39q61 0 100 -39t39 -94q0 -57 -39 -95t-100 -38q-59 0 -98.5 38t-39.5 95zM1085 1741q0 55 38 94t97 39q66 0 105 -39t39 -94q0 -57 -39 -95t-105 -38 q-59 0 -97 38t-38 95z" />
<glyph unicode="&#x2c6;" horiz-adv-x="1009" d="M102 1556v37l299 312h207l299 -312v-37h-151l-252 218l-250 -218h-152z" />
<glyph unicode="&#x2dc;" horiz-adv-x="1019" d="M106 1684.5q5 58.5 30.5 104.5t73.5 74.5t122 28.5q57 0 105 -27.5t92 -60t86 -60.5t85 -28q31 0 51.5 18.5t33 45t16.5 57.5t2 55h100q16 -53 10 -110.5t-33.5 -105.5t-75.5 -78.5t-114 -30.5q-57 0 -108.5 27.5t-97.5 60.5t-87 60.5t-80 27.5q-29 0 -49 -18.5 t-32.5 -45t-17.5 -57.5t-1 -53h-106q-10 57 -5 115.5z" />
<glyph unicode="&#x2000;" horiz-adv-x="952" />
<glyph unicode="&#x2001;" horiz-adv-x="1905" />
<glyph unicode="&#x2002;" horiz-adv-x="952" />
<glyph unicode="&#x2003;" horiz-adv-x="1905" />
<glyph unicode="&#x2004;" horiz-adv-x="635" />
<glyph unicode="&#x2005;" horiz-adv-x="476" />
<glyph unicode="&#x2006;" horiz-adv-x="317" />
<glyph unicode="&#x2007;" horiz-adv-x="317" />
<glyph unicode="&#x2008;" horiz-adv-x="238" />
<glyph unicode="&#x2009;" horiz-adv-x="381" />
<glyph unicode="&#x200a;" horiz-adv-x="105" />
<glyph unicode="&#x2010;" horiz-adv-x="913" d="M102 641v152h709v-152h-709z" />
<glyph unicode="&#x2011;" horiz-adv-x="913" d="M102 641v152h709v-152h-709z" />
<glyph unicode="&#x2012;" horiz-adv-x="913" d="M102 641v152h709v-152h-709z" />
<glyph unicode="&#x2013;" horiz-adv-x="1269" d="M102 641v152h1065v-152h-1065z" />
<glyph unicode="&#x2014;" horiz-adv-x="2293" d="M102 641v152h2089v-152h-2089z" />
<glyph unicode="&#x2018;" horiz-adv-x="866" d="M237 991q0 166 87 286t235 196l65 -103q-33 -14 -80 -47t-89 -78t-67.5 -103.5t-19.5 -125.5q6 43 39 68.5t66 25.5q70 0 110.5 -48t40.5 -116q0 -72 -51 -126t-135 -54t-142.5 57.5t-58.5 167.5z" />
<glyph unicode="&#x2019;" horiz-adv-x="866" d="M240 846q33 14 80 47t89 78t67.5 103.5t19.5 125.5q-6 -43 -39 -68.5t-66 -25.5q-70 0 -110.5 48t-40.5 116q0 72 51 126t135 54t142.5 -57.5t58.5 -167.5q0 -166 -87 -286t-235 -196z" />
<glyph unicode="&#x201a;" horiz-adv-x="866" d="M240 160q0 72 51 126t135 54t142.5 -57.5t58.5 -167.5q0 -166 -87 -286t-235 -196l-65 103q33 14 80 47t89 78t67.5 103.5t19.5 125.5q-6 -43 -39 -68.5t-66 -25.5q-70 0 -110.5 48t-40.5 116z" />
<glyph unicode="&#x201c;" horiz-adv-x="1415" d="M237 991q0 166 87 286t235 196l65 -103q-33 -14 -80 -47t-89 -78t-67.5 -103.5t-19.5 -125.5q6 43 39 68.5t66 25.5q70 0 110.5 -48t40.5 -116q0 -72 -51 -126t-135 -54t-142.5 57.5t-58.5 167.5zM788 991q0 166 87 286t235 196l65 -103q-33 -14 -80 -47t-89 -78 t-67.5 -103.5t-19.5 -125.5q6 43 39 68.5t66 25.5q70 0 110.5 -48t40.5 -116q0 -72 -51 -126t-135 -54t-142.5 57.5t-58.5 167.5z" />
<glyph unicode="&#x201d;" horiz-adv-x="1415" d="M240 846q33 14 80 47t89 78t67.5 103.5t19.5 125.5q-6 -43 -39 -68.5t-66 -25.5q-70 0 -110.5 48t-40.5 116q0 72 51 126t135 54t142.5 -57.5t58.5 -167.5q0 -166 -87 -286t-235 -196zM789 846q33 14 80 47t89 78t67.5 103.5t19.5 125.5q-6 -43 -39 -68.5t-66 -25.5 q-70 0 -110.5 48t-40.5 116q0 72 51 126t135 54t142.5 -57.5t58.5 -167.5q0 -166 -87 -286t-235 -196z" />
<glyph unicode="&#x201e;" horiz-adv-x="1415" d="M240 160q0 72 51 126t135 54t142.5 -57.5t58.5 -167.5q0 -166 -87 -286t-235 -196l-65 103q33 14 80 47t89 78t67.5 103.5t19.5 125.5q-6 -43 -39 -68.5t-66 -25.5q-70 0 -110.5 48t-40.5 116zM789 160q0 72 51 126t135 54t142.5 -57.5t58.5 -167.5q0 -166 -87 -286 t-235 -196l-65 103q33 14 80 47t89 78t67.5 103.5t19.5 125.5q-6 -43 -39 -68.5t-66 -25.5q-70 0 -110.5 48t-40.5 116z" />
<glyph unicode="&#x2022;" horiz-adv-x="956" d="M225 723q0 53 19.5 99t53.5 81t80 54.5t97 19.5q55 0 101.5 -19.5t81 -54.5t54 -81t19.5 -99t-19.5 -98t-54 -80t-81 -54.5t-101.5 -19.5q-51 0 -97 19.5t-80 54.5t-53.5 80t-19.5 98z" />
<glyph unicode="&#x2026;" horiz-adv-x="2490" d="M240 154q0 39 14 72.5t38.5 59t58.5 40t73 14.5q78 0 131 -54.5t53 -131.5q0 -39 -14 -73t-39 -58.5t-58.5 -39t-72.5 -14.5q-78 0 -131 53.5t-53 131.5zM1061 154q0 39 14 72.5t38.5 59t58.5 40t73 14.5q78 0 131 -54.5t53 -131.5q0 -39 -14 -73t-39 -58.5t-58.5 -39 t-72.5 -14.5q-78 0 -131 53.5t-53 131.5zM1882 154q0 39 14 72.5t38.5 59t58.5 40t73 14.5q78 0 131 -54.5t53 -131.5q0 -39 -14 -73t-39 -58.5t-58.5 -39t-72.5 -14.5q-78 0 -131 53.5t-53 131.5z" />
<glyph unicode="&#x202f;" horiz-adv-x="381" />
<glyph unicode="&#x2039;" horiz-adv-x="925" d="M117 717l399 450h178v-55l-348 -395l348 -395v-56h-178z" />
<glyph unicode="&#x203a;" horiz-adv-x="925" d="M232 267v55l348 395l-348 395v56h178l399 -451l-399 -450h-178z" />
<glyph unicode="&#x205f;" horiz-adv-x="476" />
<glyph unicode="&#x20ac;" horiz-adv-x="1886" d="M6 473v141h156q-6 45 -6 103q0 53 6 102h-156v139h191q43 125 124.5 219.5t189 158t232.5 96t250 32.5q121 0 212 -22.5t158 -48t112 -48t73 -22.5q16 0 23.5 14.5t8.5 35t-1 41t-4 30.5h125l76 -535l-125 -18q-29 100 -89.5 177t-144.5 130t-185.5 81t-209.5 28 q-100 0 -191.5 -23.5t-169 -69t-137 -110t-94.5 -146.5h825v-139h-870q-4 -25 -6 -49.5t-2 -50.5q0 -29 2 -54.5t6 -50.5h870v-141h-825q35 -82 94.5 -146.5t137 -108.5t169 -67.5t191.5 -23.5q109 0 210 27.5t185 80t144.5 130t89.5 176.5q31 -4 61.5 -8.5t63.5 -8.5 l-76 -534h-125q2 20 5 40.5t1 38t-9 29t-24 11.5q-29 0 -73.5 -21.5t-111.5 -47.5t-158 -47.5t-212 -21.5q-125 0 -250 32t-232.5 94.5t-189 156.5t-124.5 219h-191z" />
<glyph unicode="&#x2122;" horiz-adv-x="2455" d="M57 1098l49 336h850l45 -295l-106 -17q-10 68 -25.5 107t-35 58.5t-47 25.5t-62.5 6h-113v-455q0 -41 12.5 -58.5t57.5 -17.5h104v-98h-514v98h117q27 0 43.5 13.5t16.5 60.5v457h-113q-37 0 -64.5 -8t-47 -34t-34 -73t-24.5 -123zM1075 690v98h101q27 0 44 13.5t17 60.5 v400q0 41 -13.5 58t-60.5 17h-88v97h377l256 -498l260 498h377v-97h-100q-29 0 -44.5 -13t-15.5 -60v-400q0 -41 13.5 -58.5t58.5 -17.5h88v-98h-479v98h96q29 0 45 13.5t16 60.5v402l-297 -574h-73l-285 555v-381q0 -41 13.5 -58.5t58.5 -17.5h63v-98h-428z" />
<glyph unicode="&#x25fc;" horiz-adv-x="1433" d="M0 0v1434h1434v-1434h-1434z" />
</font>
</defs>
</svg>
