<?xml version="1.0" standalone="no"?>
<!DOCTYPE svg PUBLIC "-//W3C//DTD SVG 20010904//EN"
 "http://www.w3.org/TR/2001/REC-SVG-20010904/DTD/svg10.dtd">
<svg version="1.0" xmlns="http://www.w3.org/2000/svg"
 width="256.000000pt" height="256.000000pt" viewBox="0 0 256.000000 256.000000"
 preserveAspectRatio="xMidYMid meet">
<metadata>
Created by potrace 1.11, written by Peter Selinger 2001-2013
</metadata>
<g transform="translate(0.000000,256.000000) scale(0.100000,-0.100000)"
fill="#000000" stroke="none">
<path d="M1260 1943 c-13 -43 -54 -170 -91 -283 l-68 -205 -301 -3 -302 -2
237 -173 c131 -94 239 -177 242 -183 2 -6 -36 -134 -85 -285 -49 -151 -88
-276 -86 -277 1 -2 110 74 242 170 l239 173 -50 8 c-99 15 -194 88 -239 185
-32 69 -31 188 2 257 29 60 92 125 152 157 36 19 58 23 138 23 83 0 100 -3
135 -24 88 -54 132 -104 161 -184 16 -44 21 -139 9 -177 -4 -12 -3 -21 2 -19
5 2 114 81 242 174 l233 170 -298 5 c-250 4 -298 7 -305 20 -4 8 -42 123 -84
255 -41 132 -81 253 -88 268 -13 29 -13 28 -37 -50z"/>
<path d="M1561 1038 c-50 -82 -133 -141 -218 -154 -24 -3 -43 -9 -43 -13 1 -8
463 -342 468 -337 2 3 -35 125 -83 273 -47 147 -87 272 -89 277 -1 5 -17 -16
-35 -46z"/>
</g>
</svg>
